<?xml version="1.0" encoding="utf-8"?>
<!-- Generator: Adobe Illustrator 18.1.1, SVG Export Plug-In . SVG Version: 6.00 Build 0)  -->
<svg version="1.1" id="Layer_1" xmlns="http://www.w3.org/2000/svg" xmlns:xlink="http://www.w3.org/1999/xlink" x="0px" y="0px"
	 viewBox="0 0 230.5 54.8" enable-background="new 0 0 230.5 54.8" xml:space="preserve">
<g>
	<path stroke="#1C1B1A" stroke-miterlimit="10" d="M195.8,30.4c1.1-1.2,2.2-2.3,3.3-3.5c0.1-0.1,0.1-0.5,0.1-0.6
		c-0.3-0.2-0.7-0.4-1-0.3c-1.7,0.2-3.4,0.3-5.1,0.7c-1.6,0.4-2.3-0.9-2.8-1.7c-0.7-0.9,0.5-1.3,1.3-1.4c2.4-0.4,4.9-0.7,7.3-1
		c1.1-0.1,1.9-0.2,2-1.8c0.2-2.6,0.7-5.1,1.3-7.6c0.3-1,1.2-2,2-2.8c0.2-0.2,1.4,0.1,1.7,0.5c1,1.2,0.7,3.1,0,4.6
		c-0.8,1.8-1.1,3.8-1.4,5.7c-0.1,0.4,0.8,1.2,1.3,1.3c3.6,0.3,7.1,0.5,10.7,0.5c1.5,0,3-0.5,4.5-0.9c2-0.6,2.2-0.2,2.5,1.8
		c0.2,1.4,0.1,2.1-1,2.3c-1.3,0.3-2.6,0.1-3.9,0.2c-1.3,0-2.6,0.2-3.9,0.1c-1.6-0.1-3.2-0.4-4.9-0.5c-0.6-0.1-1.2,0-1.7,0
		c-0.5,0-1,0.2-1.5,0.2c-1.7-0.3-2.8,0.7-2.7,2.4c0.1,1.7,0.3,3.5-0.2,5.1c-1,3.7-0.5,7.5-0.9,11.3c-0.1,0.8-0.2,1.6-0.5,2.3
		c-0.2,0.4-0.8,0.6-1.2,0.7c-0.2,0.1-0.8-0.3-0.9-0.6c-0.3-0.9-0.6-1.8-0.6-2.7c0.2-3.7,0.4-7.4,0.9-11c0.2-1.6,0.2-3.1,0.1-4.7
		c0-0.4-0.2-1-0.4-1c-0.4-0.1-1,0.1-1.3,0.3c-0.6,0.5-1,1.3-1.6,1.8C196.9,30.3,196.3,30.3,195.8,30.4
		C195.7,30.4,195.8,30.4,195.8,30.4z"/>
	<path stroke="#1C1B1A" stroke-miterlimit="10" d="M143.7,32.8c-0.8,1.2-1.8,2.2-2.3,3.5c-0.7,1.8-1.8,3-3.3,4.1
		c-0.4,0.3-0.7,0.9-1,1.4c-1,1.6-2.7,2.1-4.2,2.1c-1.3,0-2.4-1.1-3.2-2.5c-1.1-1.8-0.8-3.6-1-5.5c-0.2-2.3,0.7-4.1,1.6-5.9
		c1.8-3.6,4.7-5.8,8.6-6.5c0.6-0.1,1.4,0,2,0.2c1.8,0.8,3.6,1.7,5.3,2.7c0.5,0.3,0.7,1.2,0.8,1.9c0.2,1,0,2.2,0.3,3.2
		c0.4,1.8,0.8,3.7,1.6,5.3c1,2.2,2.3,4.4,4.5,5.5c1.2,0.5,2.8,0.2,4.3,0.3c0.6,0,1.3,0.1,2.2,0.2c-0.9,1.1-1.2,2.2-2.7,1.8
		c-0.3-0.1-0.7,0.4-1.1,0.5c-0.9,0.1-2,0.4-2.8,0.1c-1.9-0.9-4-1.8-5.2-3.7c-1.2-2.1-2.5-4.3-3.1-6.7c-0.2-0.7-0.6-1.3-0.9-2
		C144.1,32.7,143.9,32.8,143.7,32.8z M134.1,40.3c0.5-0.4,1.3-0.8,1.9-1.4c2-2.5,4-5,5.9-7.6c1.6-2.2,1.3-3.1-1.1-4.2
		c-2.8-1.2-7.1,0.9-7.8,3.9c-0.5,2.2-1,4.4-1.4,6.6C131.1,39.3,132,40.3,134.1,40.3z"/>
	<path stroke="#1C1B1A" stroke-miterlimit="10" d="M75.3,21.3c0.5,2.2,1.4,1.8,2.5,1c1.1-0.8,2.3-1.6,3.6-1.9
		c2.4-0.7,4.3,0.7,5.9,2.3c2.9,3,4.4,6.5,4.6,10.6c0.1,2.3,0.2,4.6,0.4,6.9c0.1,1.2,0.2,2.6,1.9,2.9c0.3,0.1,0.8,1.1,0.8,1.2
		c-0.6,0.7-1.3,1.6-2,1.7c-1.4,0.2-2.5-1-2.7-2.2c-0.5-2.6-0.7-5.3-1-8c-0.1-0.9-0.3-1.8-0.4-2.6c-0.6-3.2-1.4-6.3-3.9-8.7
		c-1.3-1.3-2.9-0.9-4.3-0.4c-2.9,0.9-4.5,3.2-5.4,5.9c-1.2,3.5-2.3,7.1-3.5,10.7c-0.6,1.8-1,3.6-1.7,5.3c-0.2,0.5-1.1,0.9-1.7,0.9
		c-0.7,0-1.9,0-1.8-1.3c0-0.6,0.3-1.3,0.5-1.9c1-2.9,1.9-5.8,2.9-8.7c1.4-4.1,2.9-8.1,4.4-12.2C74.4,22.4,74.8,22.1,75.3,21.3z"/>
	<path stroke="#1C1B1A" stroke-miterlimit="10" d="M50,47.9c-2.9-0.8-4.6-2.5-6-4.7C42,40,41.1,36.6,40.8,33
		c-0.2-2.3,0.4-4.8,0.9-7.1c0.2-0.7,1.4-1.2,2.3-1.7c0.6-0.3,1.4-0.4,2.2-0.4c0.4,0,1,0.4,1.2,0.8c0.2,0.3-0.1,0.9-0.3,1.2
		c-0.3,0.4-0.8,0.8-1.3,1.1c-1.8,1.2-1.7,3.1-1.6,4.8c0.1,2.2,0.2,4.4,0.9,6.5c0.6,1.9,1.8,3.8,3.1,5.4c1,1.2,3,0.3,3.5-1.3
		c1.1-3.4,2.2-6.7,3.3-10c0.1-0.4,0.1-1,0.1-1.4c-0.2-3.5-1.6-6.5-3.4-9.5c-1.6-2.6-4.2-2.5-6-1.4c-1.4,0.9-2.7,1.9-4.2,2.9
		c-0.3,0.2-0.7,0.1-1.1,0.2c0.1-0.3,0-0.8,0.2-1c2.1-2,4.1-4.1,7.1-4.5c1.7-0.2,3.3,0.2,4.4,1.6c1.3,1.7,2.8,3.3,3.7,5.2
		c0.9,2.1,1.3,4.5,1.5,6.9c0.2,1.9-0.2,3.9-0.5,5.8c-0.5,3.5-1.7,6.8-4,9.4C52.2,47.2,50.8,47.5,50,47.9z"/>
	<path stroke="#1C1B1A" stroke-miterlimit="10" d="M123.7,26.3c-2.5-0.1-4.8-0.2-7.1-0.4c-1.9-0.2-2.1,0.2-2.4,2
		c-0.5,3.6-1.2,7.1-1.7,10.7c-0.3,2.3-0.5,4.6-0.8,6.9c-0.2,1.3-0.5,2.5-1,3.8c-0.2,0.5-0.8,0.9-1.3,1c-0.2,0.1-0.7-0.6-1-1
		c-0.9-1.2-0.9-2.3,0.1-3.5c0.4-0.6,0.1-1.7,0.4-2.4c0.9-1.9,0.2-3.8,0.6-5.7c0.4-2,0.6-4.1,0.9-6.1c0.2-1.3,0.3-2.6,0.4-4
		c0.1-2.1-1.4-2.9-3.5-2.2c-1.7,0.5-3.6,0.8-5.4,0.9c-1.1,0.1-1.7-0.7-1.8-1.8c0-1.3,0.8-1.4,1.8-1.4c2.7-0.1,5.4-0.2,8.1-0.4
		c0.4,0,1-0.7,1.1-1.2c0.2-1.6,0-3.3,0.2-4.9c0.2-1.4,0.8-2.8,1.3-4.2c0.1-0.2,0.7-0.2,1-0.2c1.4,0.4,1.9,2,1.7,3.6
		c-0.4,2.3-0.5,4.6-0.6,7c0,0.4,0.6,1.1,1.1,1.2c1.5,0.3,3.1,0.3,4.6,0.7C121.7,24.6,123.1,24.7,123.7,26.3z"/>
	<path stroke="#1C1B1A" stroke-miterlimit="10" d="M26.7,10.2c-1.3-0.1-2.7-0.4-4-0.2c-1.6,0.3-2.7,1.4-3.3,3.1
		c-0.2,0.5-0.7,0.9-1.1,1.3c-0.6,0.7-1.3,1.3-1.7,2.2c-0.9,1.8-1.6,3.7-2.3,5.7c-0.6,1.5-1.3,3.1-1.4,4.7c-0.3,3.1-0.5,6.2-0.4,9.4
		c0,1.2,0.8,2.4,1.5,3.4c2.3,3.2,7.2,4.8,10.9,3.3c1-0.4,1.8-1.4,2.7-2.1c0.3-0.2,0.7-0.5,1.1-0.5c0.2,0,0.6,0.5,0.6,0.8
		c0,0.4-0.3,0.8-0.5,1.1c-0.5,0.6-1,1.2-1.6,1.6c-1.9,1.6-3.6,3.1-6.6,2.6c-3.6-0.6-6.5-2.2-8.8-4.8c-1.1-1.2-1.7-2.9-2.6-4.3
		C9,37.3,9,37.1,9,37c0.2-2.6,0.3-5.1,0.6-7.7c0.2-2.2,0.4-4.4,1-6.5c0.5-1.9,1.5-3.7,2.5-5.4c1.3-2.1,2.6-4.1,4.2-5.8
		c1.4-1.5,3.1-2.7,4.8-3.7C23.9,6.8,26.6,8.5,26.7,10.2z"/>
	<path stroke="#1C1B1A" stroke-miterlimit="10" d="M195.7,30.4c0,0.4,0.2,1-0.1,1.2c-2.4,2.2-4.8,4.4-7.3,6.6c-2.3,2-4.6,4.1-7,6
		c-2.2,1.7-4.3,3.5-6.7,4.8c-2.9,1.6-6.4,0.5-8.1-2.3c-2.1-3.4-2.3-7-1-10.7c0.3-0.8,0.5-1.6,0.6-2.5c0.5-3.4,2.9-5.7,5.2-7.8
		c2.1-1.9,5.5-0.5,6.2,2.4c0.4,1.5,0.4,1.9,0.2,2.1c-1.4-0.5-2.7-1.1-4.1-1.3c-2.1-0.3-3.8,1.6-4,3.7c-0.2,1.9-0.7,3.7-1.3,5.5
		c-0.8,2.8-0.5,5.4,1.2,7.6c0.6,0.8,1.5,1.3,2.8,0.9c2.9-0.9,5.2-2.6,7.4-4.6c1.6-1.4,3.7-2.4,5.5-3.7c2.6-1.8,5.1-3.8,7.6-5.6
		C193.9,31.9,194.9,31.2,195.7,30.4C195.8,30.4,195.7,30.4,195.7,30.4z"/>
	<path fill="#FFFFFF" stroke="#1C1B1A" stroke-miterlimit="10" d="M134.1,40.3c-2.1,0-3-1-2.6-2.7c0.5-2.2,0.9-4.4,1.4-6.6
		c0.7-3,5-5.1,7.8-3.9c2.5,1.1,2.8,2,1.1,4.2c-1.9,2.6-3.8,5.1-5.9,7.6C135.5,39.5,134.6,39.9,134.1,40.3z"/>
</g>
</svg>
