<?xml version="1.0" encoding="utf-8"?>
<!-- Generator: Adobe Illustrator 18.1.1, SVG Export Plug-In . SVG Version: 6.00 Build 0)  -->
<svg version="1.1" id="Layer_1" xmlns="http://www.w3.org/2000/svg" xmlns:xlink="http://www.w3.org/1999/xlink" x="0px" y="0px"
	 viewBox="0 0 501 425" enable-background="new 0 0 501 425" xml:space="preserve">
<pattern  x="-250" y="-287.8" width="500.1" height="425" patternUnits="userSpaceOnUse" id="Leaf-edits_4" viewBox="500 -593.4 500.1 425" overflow="visible">
	<g>
		<polygon fill="none" points="500,-593.4 1000.1,-593.4 1000.1,-168.4 500,-168.4 		"/>
		<g>
			<path fill="#A9D4CC" d="M1034.4-122.5c0.7-0.1,1-0.1,1-0.2c3.3-5.8,6.6-11.7,10-17.4c2.6-4.4,1.5-8.5-1.1-12.4
				c-2-3-3.7-6.2-5.8-9.1c-2.2-3.1-2.7-6.7-3.5-10.2c-0.2-1.1-0.1-2.3,0.1-3.4c0.8-3.6,3-4.9,6.5-3.8c3.6,1.2,6.4,3.3,7.6,7.1
				c1.3,4.2,2.6,8.5,4,12.7c0.5,1.4,1.1,2.6,2,4.6c2.7-2.4,5.1-4.5,7.4-6.7c3.9-3.7,7.7-7.6,11.6-11.4c0.6-0.6,1.3-1,2.1-1.3
				c7.3-3.3,14.6-6.6,22-9.8c3.1-1.3,6.3-1.5,9.4,0.7c1.3,0.9,3.3,1.1,3.2,3.2c-0.1,2.5-0.5,5.1-3.1,6.3c-4.5,2-9,3.9-13.7,5.5
				c-4.3,1.5-8.8,2.5-13.2,3.7c-7.5,2.1-13.3,6.9-18.6,12.3c-0.4,0.4-0.6,1.1-1.2,2.5c3.4-0.9,6.1-1.6,8.8-2.3
				c8.2-2.2,16.5-3,24.9-2c2.4,0.3,4.8,2,6.8,3.6c1.7,1.3,0.8,3.2-0.9,4c-3.2,1.6-6.6,2.9-10,4.2c-10.6,4.3-21.8,5-33,4.8
				c-6.9-0.1-11.2,2.2-14,8.3c-1,2.2-2.8,4-2.7,7.1c4-1.9,7.9-3.6,11.6-5.6c7.4-3.9,15.1-2.2,22.7-1c1.2,0.2,2.4,1.7,3.1,2.9
				c1.2,2.1,2.1,4.5,2.9,6.8c0.8,2.1-0.1,3.8-1.7,5.3c-2.5,2.4-5.7,3.5-9,3.3c-3.9-0.2-7.9-0.6-11.6-1.8c-8.2-2.7-15.9-1.8-23.3,2.3
				c-1.2,0.7-2.4,1.8-3,3c-1.7,3.3-3.1,6.8-4.9,11c2.4-0.7,4.2-1,5.9-1.8c4-1.8,8.3-1.8,12.5-1.9c3-0.1,5.4,1,7.5,3
				c4,3.8,3.2,10-1.9,12.1c-4.2,1.8-8.7,3.2-13.4,2.3c-3.8-0.7-7.9,0.4-11.4-2.3c-0.4-0.3-2.5,0.4-2.8,1.1c-1.8,5.2-4,10.4-3.9,16.5
				c3.8-1.6,7.1-3,10.4-4.3c6.2-2.5,12.4-2.9,18.8-0.8c5,1.7,6.3,4.1,6.1,8.3c-0.1,3.6-4.2,6.8-8.5,6.5c-5.9-0.4-11.7-1.4-17.6-1.7
				c-3-0.2-6.1,0.6-9.1,1c-1.5,5.4-3.8,10.1-2.1,15.4c4.6-0.8,9-1.7,13.5-2.3c4.2-0.5,5.1,0.2,6.6,4.2c1.2,3.3,0.2,5.4-3.4,6
				c-2.9,0.5-5.9,0.4-8.8,0.7c-2.4,0.3-4.8,0.9-7.3,1.3c-0.6,6.1-1.2,11.8-1.7,17.5c-0.5,5.5-2.3,10.5-5.9,14.8
				c-2.7-0.4-3.8-1.9-2.4-4.1c3.6-6.2,4.1-13.1,5-19.9c0.7-5.4-0.2-7.2-5.5-8.6c-3.8-1-7.2-2.3-9.4-5.8c-1.2-1.9-2-3.8-0.9-6.2
				c6-3.2,9.8,3.5,15.7,3.6c0-3.9,0.3-7.8,0-11.6c-0.1-2-1.4-3.6-3.5-4.4c-1.1-0.4-2.3-0.7-3.1-1.4c-3.4-3.4-7.3-5.3-12.2-5.4
				c-2.8,0-5.6-4.5-5.4-7.4c0.2-2.2,1.6-3,3.6-3.4c6.1-1.1,11.4,0.6,15.9,4.8c1.8,1.7,3.3,3.6,5.2,5.7c1.9-3.1,2.5-6.4,1.5-9.4
				c-0.8-2.6-0.6-4.7,0.6-7c0.6-1.1,0.8-2.5,1.3-3.7c0.8-1.9,0.1-3.2-1.3-4.3c-1.6-1.2-3-2.5-4.6-3.7c-2.7-1.9-5.5-3.5-9.1-3
				c-1.8,0.3-3.7,0.1-5.4-0.3c-1.8-0.5-3.8-1.2-5.2-2.5c-3.7-3.3-2.8-8.3,1.9-9.7c2.7-0.8,5.8-0.8,8.7-0.6c2.3,0.1,4.5,0.8,6.7,1.5
				c4.9,1.6,9.8,3.2,12.2,8.4c0.2,0.4,0.7,0.6,1.1,0.9c0.1,0.1,0.3,0.1,0.8,0.1c1.6-1.9,2.8-3.7,1.4-6.7c-0.9-1.9-0.8-4.6-0.3-6.7
				c0.7-2.7-0.4-4.4-2-6.1c-2-2.1-3.9-4.5-6.2-6.3c-3.4-2.7-4.1-6.6-4.9-10.4c-0.8-3.5,2.2-8.9,5.4-10.3c2.6-1.2,8.8,0.7,10.5,3.7
				c2.2,4,3.9,8.3,5.6,12.5C1033.6-126.2,1033.9-124.3,1034.4-122.5z"/>
		</g>
		<g>
			<path fill="#A9D4CC" d="M689.3-120.4c0.4-0.6,0.6-0.8,0.6-0.9c-1.7-6.5-3.6-12.9-5.2-19.4c-1.3-5-4.9-7-9.5-8
				c-3.5-0.8-7-1.8-10.6-2.4c-3.7-0.6-6.6-2.8-9.7-4.7c-0.9-0.6-1.7-1.5-2.3-2.5c-2-3.1-1.4-5.6,1.9-7.3c3.4-1.7,6.9-2.2,10.4-0.3
				c3.9,2.1,7.8,4.1,11.8,6.1c1.3,0.6,2.7,1.1,4.7,1.8c0.2-3.6,0.4-6.8,0.5-10c0.1-5.4,0.1-10.8,0.2-16.2c0-0.8,0.2-1.6,0.5-2.4
				c2.8-7.5,5.6-15,8.6-22.4c1.3-3.1,3.4-5.5,7.1-6.2c1.6-0.3,3.1-1.5,4.5,0c1.7,1.8,3.3,4,2.3,6.6c-1.8,4.6-3.6,9.1-5.8,13.6
				c-2,4.1-4.5,8-6.7,12c-3.9,6.8-4.6,14.3-4.5,21.9c0,0.6,0.4,1.2,0.9,2.6c1.7-3,3.2-5.4,4.6-7.9c4.2-7.4,9.5-13.8,16.2-19
				c1.9-1.5,4.8-2,7.3-2.3c2.1-0.2,2.8,1.7,2.2,3.5c-1.2,3.4-2.6,6.7-4,10c-4.5,10.5-11.9,19-19.9,26.7c-4.9,4.8-6.4,9.5-4,15.8
				c0.8,2.3,0.8,4.8,3.1,6.9c1.5-4.2,3-8.1,4.2-12.2c2.5-8,9.1-12.2,15.3-16.7c1-0.7,2.9-0.5,4.3-0.2c2.4,0.6,4.6,1.7,6.9,2.7
				c2.1,0.9,2.6,2.8,2.6,4.9c-0.1,3.5-1.6,6.5-4.1,8.7c-2.9,2.6-6,5.2-9.5,7c-7.7,3.9-12.5,9.9-14.8,18.1c-0.4,1.3-0.4,3,0,4.3
				c1.2,3.6,2.7,7,4.3,11.2c1.2-2.2,2.3-3.7,2.9-5.4c1.5-4.1,4.6-7.1,7.5-10.2c2.1-2.2,4.5-3.1,7.5-3.2c5.5-0.1,9.3,4.8,7.2,10
				c-1.7,4.2-3.8,8.4-7.9,11.1c-3.2,2.2-5.3,5.9-9.7,6.4c-0.5,0.1-1.5,2.1-1.2,2.7c2.4,5,4.5,10.1,8.9,14.4
				c1.6-3.8,2.9-7.1,4.3-10.4c2.6-6.1,6.7-10.8,12.7-13.8c4.7-2.4,7.3-1.6,10.2,1.5c2.5,2.7,1.8,7.8-1.4,10.6
				c-4.4,3.9-9.3,7.3-13.7,11.2c-2.2,2-3.8,4.7-5.7,7.1c2.8,4.9,4.4,9.8,9.4,12.4c2.7-3.8,5.2-7.6,7.9-11.1c2.6-3.4,3.8-3.5,7.6-1.7
				c3.2,1.5,4,3.7,1.8,6.6c-1.7,2.4-3.9,4.4-5.7,6.7c-1.5,1.9-2.8,4-4.2,6.1c3.9,4.7,7.5,9.2,11.1,13.6c3.6,4.3,5.8,9.1,6.3,14.7
				c-2.2,1.6-4,1.3-4.7-1.2c-1.8-6.9-6.4-12.1-10.5-17.6c-3.3-4.4-5.2-5-10-2.1c-3.4,2-6.7,3.4-10.7,2.6c-2.2-0.5-4.1-1.3-5-3.7
				c2-6.5,9.4-4.5,13.6-8.5c-2.7-2.8-5.3-5.7-8.2-8.2c-1.5-1.3-3.6-1.6-5.6-0.6c-1,0.5-2.1,1.2-3.2,1.2c-4.8,0-8.9,1.4-12.4,4.9
				c-2,1.9-7.2,0.8-9-1.4c-1.4-1.7-1-3.3,0.1-4.9c3.6-5.1,8.5-7.7,14.6-7.9c2.4-0.1,4.9,0.2,7.7,0.4c-0.8-3.6-2.7-6.3-5.6-7.7
				c-2.5-1.3-3.8-2.9-4.5-5.4c-0.4-1.2-1.2-2.3-1.7-3.6c-0.7-1.9-2.1-2.3-4-2.1c-2,0.2-3.9,0.4-5.9,0.7c-3.3,0.5-6.4,1.4-8.6,4.3
				c-1.1,1.4-2.5,2.7-4,3.6c-1.7,1-3.6,1.8-5.4,2c-4.9,0.3-7.9-3.9-5.5-8.2c1.4-2.5,3.6-4.6,5.7-6.6c1.7-1.5,3.8-2.6,5.8-3.7
				c4.6-2.3,9.2-4.7,14.6-2.7c0.4,0.2,1,0,1.4-0.1c0.1,0,0.3-0.2,0.7-0.5c-0.2-2.5-0.7-4.6-3.8-5.8c-2-0.8-3.9-2.7-5-4.5
				c-1.5-2.4-3.4-2.8-5.8-2.9c-3-0.1-5.9-0.4-8.9-0.1c-4.4,0.5-7.6-1.8-10.8-3.9c-3-1.9-4.7-7.9-3.5-11.1c1-2.7,6.7-5.8,10.1-4.8
				c4.4,1.3,8.6,3.1,12.8,4.9C686.1-122.5,687.7-121.3,689.3-120.4z"/>
			<path fill="#A9D4CC" d="M534.3-122.5c0.7-0.1,1-0.1,1-0.2c3.3-5.8,6.6-11.7,10-17.4c2.6-4.4,1.5-8.5-1.1-12.4
				c-2-3-3.7-6.2-5.8-9.1c-2.2-3.1-2.7-6.7-3.5-10.2c-0.2-1.1-0.1-2.3,0.1-3.4c0.8-3.6,3-4.9,6.5-3.8c3.6,1.2,6.4,3.3,7.6,7.1
				c1.3,4.2,2.6,8.5,4,12.7c0.5,1.4,1.1,2.6,2,4.6c2.7-2.4,5.1-4.5,7.4-6.7c3.9-3.7,7.7-7.6,11.6-11.4c0.6-0.6,1.3-1,2.1-1.3
				c7.3-3.3,14.6-6.6,22-9.8c3.1-1.3,6.3-1.5,9.4,0.7c1.3,0.9,3.3,1.1,3.2,3.2c-0.1,2.5-0.5,5.1-3.1,6.3c-4.5,2-9,3.9-13.7,5.5
				c-4.3,1.5-8.8,2.5-13.2,3.7c-7.5,2.1-13.3,6.9-18.6,12.3c-0.4,0.4-0.6,1.1-1.2,2.5c3.4-0.9,6.1-1.6,8.8-2.3
				c8.2-2.2,16.5-3,24.9-2c2.4,0.3,4.8,2,6.8,3.6c1.7,1.3,0.8,3.2-0.9,4c-3.2,1.6-6.6,2.9-10,4.2c-10.6,4.3-21.8,5-33,4.8
				c-6.9-0.1-11.2,2.2-14,8.3c-1,2.2-2.8,4-2.7,7.1c4-1.9,7.9-3.6,11.6-5.6c7.4-3.9,15.1-2.2,22.7-1c1.2,0.2,2.4,1.7,3.1,2.9
				c1.2,2.1,2.1,4.5,2.9,6.8c0.8,2.1-0.1,3.8-1.7,5.3c-2.5,2.4-5.7,3.5-9,3.3c-3.9-0.2-7.9-0.6-11.6-1.8c-8.2-2.7-15.9-1.8-23.3,2.3
				c-1.2,0.7-2.4,1.8-3,3c-1.7,3.3-3.1,6.8-4.9,11c2.4-0.7,4.2-1,5.9-1.8c4-1.8,8.3-1.8,12.5-1.9c3-0.1,5.4,1,7.5,3
				c4,3.8,3.2,10-1.9,12.1c-4.2,1.8-8.7,3.2-13.4,2.3c-3.8-0.7-7.9,0.4-11.4-2.3c-0.4-0.3-2.5,0.4-2.8,1.1c-1.8,5.2-4,10.4-3.9,16.5
				c3.8-1.6,7.1-3,10.4-4.3c6.2-2.5,12.4-2.9,18.8-0.8c5,1.7,6.3,4.1,6.1,8.3c-0.1,3.6-4.2,6.8-8.5,6.5c-5.9-0.4-11.7-1.4-17.6-1.7
				c-3-0.2-6.1,0.6-9.1,1c-1.5,5.4-3.8,10.1-2.1,15.4c4.6-0.8,9-1.7,13.5-2.3c4.2-0.5,5.1,0.2,6.6,4.2c1.2,3.3,0.2,5.4-3.4,6
				c-2.9,0.5-5.9,0.4-8.8,0.7c-2.4,0.3-4.8,0.9-7.3,1.3c-0.6,6.1-1.2,11.8-1.7,17.5c-0.5,5.5-2.3,10.5-5.9,14.8
				c-2.7-0.4-3.8-1.9-2.4-4.1c3.6-6.2,4.1-13.1,5-19.9c0.7-5.4-0.2-7.2-5.5-8.6c-3.8-1-7.2-2.3-9.4-5.8c-1.2-1.9-2-3.8-0.9-6.2
				c6-3.2,9.8,3.5,15.7,3.6c0-3.9,0.3-7.8,0-11.6c-0.1-2-1.4-3.6-3.5-4.4c-1.1-0.4-2.3-0.7-3.1-1.4c-3.4-3.4-7.3-5.3-12.2-5.4
				c-2.8,0-5.6-4.5-5.4-7.4c0.2-2.2,1.6-3,3.6-3.4c6.1-1.1,11.4,0.6,15.9,4.8c1.8,1.7,3.3,3.6,5.2,5.7c1.9-3.1,2.5-6.4,1.5-9.4
				c-0.8-2.6-0.6-4.7,0.6-7c0.6-1.1,0.8-2.5,1.3-3.7c0.8-1.9,0.1-3.2-1.3-4.3c-1.6-1.2-3-2.5-4.6-3.7c-2.7-1.9-5.5-3.5-9.1-3
				c-1.8,0.3-3.7,0.1-5.4-0.3c-1.8-0.5-3.8-1.2-5.2-2.5c-3.7-3.3-2.8-8.3,1.9-9.7c2.7-0.8,5.8-0.8,8.7-0.6c2.3,0.1,4.5,0.8,6.7,1.5
				c4.9,1.6,9.8,3.2,12.2,8.4c0.2,0.4,0.7,0.6,1.1,0.9c0.1,0.1,0.3,0.1,0.8,0.1c1.6-1.9,2.8-3.7,1.4-6.7c-0.9-1.9-0.8-4.6-0.3-6.7
				c0.7-2.7-0.4-4.4-2-6.1c-2-2.1-3.9-4.5-6.2-6.3c-3.4-2.7-4.1-6.6-4.9-10.4c-0.8-3.5,2.2-8.9,5.4-10.3c2.6-1.2,8.8,0.7,10.5,3.7
				c2.2,4,3.9,8.3,5.6,12.5C533.5-126.2,533.8-124.3,534.3-122.5z"/>
			<path fill="#A9D4CC" d="M842.9-98.3c-0.4,0.6-0.6,0.8-0.6,0.9c1.7,6.5,3.6,12.9,5.2,19.4c1.3,5,4.9,7,9.5,8
				c3.5,0.8,7,1.8,10.6,2.4c3.7,0.6,6.6,2.8,9.7,4.7c0.9,0.6,1.7,1.5,2.3,2.5c2,3.1,1.4,5.6-1.9,7.3c-3.4,1.7-6.9,2.2-10.4,0.3
				c-3.9-2.1-7.8-4.1-11.8-6.1c-1.3-0.6-2.7-1.1-4.7-1.8c-0.2,3.6-0.4,6.8-0.5,10c-0.1,5.4-0.1,10.8-0.2,16.2c0,0.8-0.2,1.6-0.5,2.4
				c-2.8,7.5-5.6,15-8.6,22.4c-1.3,3.1-3.4,5.5-7.1,6.2c-1.6,0.3-3.1,1.5-4.5,0c-1.7-1.8-3.3-4-2.3-6.6c1.8-4.6,3.6-9.1,5.8-13.6
				c2-4.1,4.5-8,6.7-12c3.9-6.8,4.6-14.3,4.5-21.9c0-0.6-0.4-1.2-0.9-2.6c-1.7,3-3.2,5.4-4.6,7.9c-4.2,7.4-9.5,13.8-16.2,19
				c-1.9,1.5-4.8,2-7.3,2.3c-2.1,0.2-2.8-1.7-2.2-3.5c1.2-3.4,2.6-6.7,4-10c4.5-10.5,11.9-19,19.9-26.7c4.9-4.8,6.4-9.5,4-15.8
				c-0.8-2.3-0.8-4.8-3.1-6.9c-1.5,4.2-3,8.1-4.2,12.2c-2.5,8-9.1,12.2-15.3,16.7c-1,0.7-2.9,0.5-4.3,0.2c-2.4-0.6-4.6-1.7-6.9-2.7
				c-2.1-0.9-2.6-2.8-2.6-4.9c0.1-3.5,1.6-6.5,4.1-8.7c2.9-2.6,6-5.2,9.5-7c7.7-3.9,12.5-9.9,14.8-18.1c0.4-1.3,0.4-3,0-4.3
				c-1.2-3.6-2.7-7-4.3-11.2c-1.2,2.2-2.3,3.7-2.9,5.4c-1.5,4.1-4.6,7.1-7.5,10.2c-2.1,2.2-4.5,3.1-7.5,3.2c-5.5,0.1-9.3-4.8-7.2-10
				c1.7-4.2,3.8-8.4,7.9-11.1c3.2-2.2,5.3-5.9,9.7-6.4c0.5-0.1,1.5-2.1,1.2-2.7c-2.4-5-4.5-10.1-8.9-14.4c-1.6,3.8-2.9,7.1-4.3,10.4
				c-2.6,6.1-6.7,10.8-12.7,13.8c-4.7,2.4-7.3,1.6-10.2-1.5c-2.5-2.7-1.8-7.8,1.4-10.6c4.4-3.9,9.3-7.3,13.7-11.2
				c2.2-2,3.8-4.7,5.7-7.1c-2.8-4.9-4.4-9.8-9.4-12.4c-2.7,3.8-5.2,7.6-7.9,11.1c-2.6,3.4-3.8,3.5-7.6,1.7c-3.2-1.5-4-3.7-1.8-6.6
				c1.7-2.4,3.9-4.4,5.7-6.7c1.5-1.9,2.8-4,4.2-6.1c-3.9-4.7-7.5-9.2-11.1-13.6c-3.6-4.3-5.8-9.1-6.3-14.7c2.2-1.6,4-1.3,4.7,1.2
				c1.8,6.9,6.4,12.1,10.5,17.6c3.3,4.4,5.2,5,10,2.1c3.4-2,6.7-3.4,10.7-2.6c2.2,0.5,4.1,1.3,5,3.7c-2,6.5-9.4,4.5-13.6,8.5
				c2.7,2.8,5.3,5.7,8.2,8.2c1.5,1.3,3.6,1.6,5.6,0.6c1-0.5,2.1-1.2,3.2-1.2c4.8,0,8.9-1.4,12.4-4.9c2-1.9,7.2-0.8,9,1.4
				c1.4,1.7,1,3.3-0.1,4.9c-3.6,5.1-8.5,7.7-14.6,7.9c-2.4,0.1-4.9-0.2-7.7-0.4c0.8,3.6,2.7,6.3,5.6,7.7c2.5,1.3,3.8,2.9,4.5,5.4
				c0.4,1.2,1.2,2.3,1.7,3.6c0.7,1.9,2.1,2.3,4,2.1c2-0.2,3.9-0.4,5.9-0.7c3.3-0.5,6.4-1.4,8.6-4.3c1.1-1.4,2.5-2.7,4-3.6
				c1.7-1,3.6-1.8,5.4-2c4.9-0.3,7.9,3.9,5.5,8.2c-1.4,2.5-3.6,4.6-5.7,6.6c-1.7,1.5-3.8,2.6-5.8,3.7c-4.6,2.3-9.2,4.7-14.6,2.7
				c-0.4-0.2-1,0-1.4,0.1c-0.1,0-0.3,0.2-0.7,0.5c0.2,2.5,0.7,4.6,3.8,5.8c2,0.8,3.9,2.7,5,4.5c1.5,2.4,3.4,2.8,5.8,2.9
				c3,0.1,5.9,0.4,8.9,0.1c4.4-0.5,7.6,1.8,10.8,3.9c3,1.9,4.7,7.9,3.5,11.1c-1,2.7-6.7,5.8-10.1,4.8c-4.4-1.3-8.6-3.1-12.8-4.9
				C846-96.3,844.5-97.4,842.9-98.3z"/>
			<path fill="#A9D4CC" d="M944-155.6c0.7-0.1,1-0.1,1-0.2c3.3-5.8,6.6-11.7,10-17.4c2.6-4.4,1.5-8.5-1.1-12.4c-2-3-3.7-6.2-5.8-9.1
				c-2.2-3.1-2.7-6.7-3.5-10.2c-0.2-1.1-0.1-2.3,0.1-3.4c0.8-3.6,3-4.9,6.5-3.8c3.6,1.2,6.4,3.3,7.6,7.1c1.3,4.2,2.6,8.5,4,12.7
				c0.5,1.4,1.1,2.6,2,4.6c2.7-2.4,5.1-4.5,7.4-6.7c3.9-3.7,7.7-7.6,11.6-11.4c0.6-0.6,1.3-1,2.1-1.3c7.3-3.3,14.6-6.6,22-9.8
				c3.1-1.3,6.3-1.5,9.4,0.7c1.3,0.9,3.3,1.1,3.2,3.2c-0.1,2.5-0.5,5.1-3.1,6.3c-4.5,2-9,3.9-13.7,5.5c-4.3,1.5-8.8,2.5-13.2,3.7
				c-7.5,2.1-13.3,6.9-18.6,12.3c-0.4,0.4-0.6,1.1-1.2,2.5c3.4-0.9,6.1-1.6,8.8-2.3c8.2-2.2,16.5-3,24.9-2c2.4,0.3,4.8,2,6.8,3.6
				c1.7,1.3,0.8,3.2-0.9,4c-3.2,1.6-6.6,2.9-10,4.2c-10.6,4.3-21.8,5-33,4.8c-6.9-0.1-11.2,2.2-14,8.3c-1,2.2-2.8,4-2.7,7.1
				c4-1.9,7.9-3.6,11.6-5.6c7.4-3.9,15.1-2.2,22.7-1c1.2,0.2,2.4,1.7,3.1,2.9c1.2,2.1,2.1,4.5,2.9,6.8c0.8,2.1-0.1,3.8-1.7,5.3
				c-2.5,2.4-5.7,3.5-9,3.3c-3.9-0.2-7.9-0.6-11.6-1.8c-8.2-2.7-15.9-1.8-23.3,2.3c-1.2,0.7-2.4,1.8-3,3c-1.7,3.3-3.1,6.8-4.9,11
				c2.4-0.7,4.2-1,5.9-1.8c4-1.8,8.3-1.8,12.5-1.9c3-0.1,5.4,1,7.5,3c4,3.8,3.2,10-1.9,12.1c-4.2,1.8-8.7,3.2-13.4,2.3
				c-3.8-0.7-7.9,0.4-11.4-2.3c-0.4-0.3-2.5,0.4-2.8,1.1c-1.8,5.2-4,10.4-3.9,16.5c3.8-1.6,7.1-3,10.4-4.3
				c6.2-2.5,12.4-2.9,18.8-0.8c5,1.7,6.3,4.1,6.1,8.3c-0.1,3.6-4.2,6.8-8.5,6.5c-5.9-0.4-11.7-1.4-17.6-1.7c-3-0.2-6.1,0.6-9.1,1
				c-1.5,5.4-3.8,10.1-2.1,15.4c4.6-0.8,9-1.7,13.5-2.3c4.2-0.5,5.1,0.2,6.6,4.2c1.2,3.3,0.2,5.4-3.4,6c-2.9,0.5-5.9,0.4-8.8,0.7
				c-2.4,0.3-4.8,0.9-7.3,1.3c-0.6,6.1-1.2,11.8-1.7,17.5c-0.5,5.5-2.3,10.5-5.9,14.8c-2.7-0.4-3.8-1.9-2.4-4.1
				c3.6-6.2,4.1-13.1,5-19.9c0.7-5.4-0.2-7.2-5.5-8.6c-3.8-1-7.2-2.3-9.4-5.8c-1.2-1.9-2-3.8-0.9-6.2c6-3.2,9.8,3.5,15.7,3.6
				c0-3.9,0.3-7.8,0-11.6c-0.1-2-1.4-3.6-3.5-4.4c-1.1-0.4-2.3-0.7-3.1-1.4c-3.4-3.4-7.3-5.3-12.2-5.4c-2.8,0-5.6-4.5-5.4-7.4
				c0.2-2.2,1.6-3,3.6-3.4c6.1-1.1,11.4,0.6,15.9,4.8c1.8,1.7,3.3,3.6,5.2,5.7c1.9-3.1,2.5-6.4,1.5-9.4c-0.8-2.6-0.6-4.7,0.6-7
				c0.6-1.1,0.8-2.5,1.3-3.7c0.8-1.9,0.1-3.2-1.3-4.3c-1.6-1.2-3-2.5-4.6-3.7c-2.7-1.9-5.5-3.5-9.1-3c-1.8,0.3-3.7,0.1-5.4-0.3
				c-1.8-0.5-3.8-1.2-5.2-2.5c-3.7-3.3-2.8-8.3,1.9-9.7c2.7-0.8,5.8-0.8,8.7-0.6c2.3,0.1,4.5,0.8,6.7,1.5c4.9,1.6,9.8,3.2,12.2,8.4
				c0.2,0.4,0.7,0.6,1.1,0.9c0.1,0.1,0.3,0.1,0.8,0.1c1.6-1.9,2.8-3.7,1.4-6.7c-0.9-1.9-0.8-4.6-0.3-6.7c0.7-2.7-0.4-4.4-2-6.1
				c-2-2.1-3.9-4.5-6.2-6.3c-3.4-2.7-4.1-6.6-4.9-10.4c-0.8-3.5,2.2-8.9,5.4-10.3c2.6-1.2,8.8,0.7,10.5,3.7c2.2,4,3.9,8.3,5.6,12.5
				C943.2-159.3,943.6-157.4,944-155.6z"/>
			<path fill="#A9D4CC" d="M1033.5-122.9c0.7-0.1,1-0.1,1-0.2c3.3-5.8,6.6-11.7,10-17.4c2.6-4.4,1.5-8.5-1.1-12.4
				c-2-3-3.7-6.2-5.8-9.1c-2.2-3.1-2.7-6.7-3.5-10.2c-0.2-1.1-0.1-2.3,0.1-3.4c0.8-3.6,3-4.9,6.5-3.8c3.6,1.2,6.4,3.3,7.6,7.1
				c1.3,4.2,2.6,8.5,4,12.7c0.5,1.4,1.1,2.6,2,4.6c2.7-2.4,5.1-4.5,7.4-6.7c3.9-3.7,7.7-7.6,11.6-11.4c0.6-0.6,1.3-1,2.1-1.3
				c7.3-3.3,14.6-6.6,22-9.8c3.1-1.3,6.3-1.5,9.4,0.7c1.3,0.9,3.3,1.1,3.2,3.2c-0.1,2.5-0.5,5.1-3.1,6.3c-4.5,2-9,3.9-13.7,5.5
				c-4.3,1.5-8.8,2.5-13.2,3.7c-7.5,2.1-13.3,6.9-18.6,12.3c-0.4,0.4-0.6,1.1-1.2,2.5c3.4-0.9,6.1-1.6,8.8-2.3
				c8.2-2.2,16.5-3,24.9-2c2.4,0.3,4.8,2,6.8,3.6c1.7,1.3,0.8,3.2-0.9,4c-3.2,1.6-6.6,2.9-10,4.2c-10.6,4.3-21.8,5-33,4.8
				c-6.9-0.1-11.2,2.2-14,8.3c-1,2.2-2.8,4-2.7,7.1c4-1.9,7.9-3.6,11.6-5.6c7.4-3.9,15.1-2.2,22.7-1c1.2,0.2,2.4,1.7,3.1,2.9
				c1.2,2.1,2.1,4.5,2.9,6.8c0.8,2.1-0.1,3.8-1.7,5.3c-2.5,2.4-5.7,3.5-9,3.3c-3.9-0.2-7.9-0.6-11.6-1.8c-8.2-2.7-15.9-1.8-23.3,2.3
				c-1.2,0.7-2.4,1.8-3,3c-1.7,3.3-3.1,6.8-4.9,11c2.4-0.7,4.2-1,5.9-1.8c4-1.8,8.3-1.8,12.5-1.9c3-0.1,5.4,1,7.5,3
				c4,3.8,3.2,10-1.9,12.1c-4.2,1.8-8.7,3.2-13.4,2.3c-3.8-0.7-7.9,0.4-11.4-2.3c-0.4-0.3-2.5,0.4-2.8,1.1c-1.8,5.2-4,10.4-3.9,16.5
				c3.8-1.6,7.1-3,10.4-4.3c6.2-2.5,12.4-2.9,18.8-0.8c5,1.7,6.3,4.1,6.1,8.3c-0.1,3.6-4.2,6.8-8.5,6.5c-5.9-0.4-11.7-1.4-17.6-1.7
				c-3-0.2-6.1,0.6-9.1,1c-1.5,5.4-3.8,10.1-2.1,15.4c4.6-0.8,9-1.7,13.5-2.3c4.2-0.5,5.1,0.2,6.6,4.2c1.2,3.3,0.2,5.4-3.4,6
				c-2.9,0.5-5.9,0.4-8.8,0.7c-2.4,0.3-4.8,0.9-7.3,1.3c-0.6,6.1-1.2,11.8-1.7,17.5c-0.5,5.5-2.3,10.5-5.9,14.8
				c-2.7-0.4-3.8-1.9-2.4-4.1c3.6-6.2,4.1-13.1,5-19.9c0.7-5.4-0.2-7.2-5.5-8.6c-3.8-1-7.2-2.3-9.4-5.8c-1.2-1.9-2-3.8-0.9-6.2
				c6-3.2,9.8,3.5,15.7,3.6c0-3.9,0.3-7.8,0-11.6c-0.1-2-1.4-3.6-3.5-4.4c-1.1-0.4-2.3-0.7-3.1-1.4c-3.4-3.4-7.3-5.3-12.2-5.4
				c-2.8,0-5.6-4.5-5.4-7.4c0.2-2.2,1.6-3,3.6-3.4c6.1-1.1,11.4,0.6,15.9,4.8c1.8,1.7,3.3,3.6,5.2,5.7c1.9-3.1,2.5-6.4,1.5-9.4
				c-0.8-2.6-0.6-4.7,0.6-7c0.6-1.1,0.8-2.5,1.3-3.7c0.8-1.9,0.1-3.2-1.3-4.3c-1.6-1.2-3-2.5-4.6-3.7c-2.7-1.9-5.5-3.5-9.1-3
				c-1.8,0.3-3.7,0.1-5.4-0.3c-1.8-0.5-3.8-1.2-5.2-2.5c-3.7-3.3-2.8-8.3,1.9-9.7c2.7-0.8,5.8-0.8,8.7-0.6c2.3,0.1,4.5,0.8,6.7,1.5
				c4.9,1.6,9.8,3.2,12.2,8.4c0.2,0.4,0.7,0.6,1.1,0.9c0.1,0.1,0.3,0.1,0.8,0.1c1.6-1.9,2.8-3.7,1.4-6.7c-0.9-1.9-0.8-4.6-0.3-6.7
				c0.7-2.7-0.4-4.4-2-6.1c-2-2.1-3.9-4.5-6.2-6.3c-3.4-2.7-4.1-6.6-4.9-10.4c-0.8-3.5,2.2-8.9,5.4-10.3c2.6-1.2,8.8,0.7,10.5,3.7
				c2.2,4,3.9,8.3,5.6,12.5C1032.7-126.6,1033-124.7,1033.5-122.9z"/>
		</g>
		<g>
			<path fill="#A9D4CC" d="M444-155.6c0.7-0.1,1-0.1,1-0.2c3.3-5.8,6.6-11.7,10-17.4c2.6-4.4,1.5-8.5-1.1-12.4c-2-3-3.7-6.2-5.8-9.1
				c-2.2-3.1-2.7-6.7-3.5-10.2c-0.2-1.1-0.1-2.3,0.1-3.4c0.8-3.6,3-4.9,6.5-3.8c3.6,1.2,6.4,3.3,7.6,7.1c1.3,4.2,2.6,8.5,4,12.7
				c0.5,1.4,1.1,2.6,2,4.6c2.7-2.4,5.1-4.5,7.4-6.7c3.9-3.7,7.7-7.6,11.6-11.4c0.6-0.6,1.3-1,2.1-1.3c7.3-3.3,14.6-6.6,22-9.8
				c3.1-1.3,6.3-1.5,9.4,0.7c1.3,0.9,3.3,1.1,3.2,3.2c-0.1,2.5-0.5,5.1-3.1,6.3c-4.5,2-9,3.9-13.7,5.5c-4.3,1.5-8.8,2.5-13.2,3.7
				c-7.5,2.1-13.3,6.9-18.6,12.3c-0.4,0.4-0.6,1.1-1.2,2.5c3.4-0.9,6.1-1.6,8.8-2.3c8.2-2.2,16.5-3,24.9-2c2.4,0.3,4.8,2,6.8,3.6
				c1.7,1.3,0.8,3.2-0.9,4c-3.2,1.6-6.6,2.9-10,4.2c-10.6,4.3-21.8,5-33,4.8c-6.9-0.1-11.2,2.2-14,8.3c-1,2.2-2.8,4-2.7,7.1
				c4-1.9,7.9-3.6,11.6-5.6c7.4-3.9,15.1-2.2,22.7-1c1.2,0.2,2.4,1.7,3.1,2.9c1.2,2.1,2.1,4.5,2.9,6.8c0.8,2.1-0.1,3.8-1.7,5.3
				c-2.5,2.4-5.7,3.5-9,3.3c-3.9-0.2-7.9-0.6-11.6-1.8c-8.2-2.7-15.9-1.8-23.3,2.3c-1.2,0.7-2.4,1.8-3,3c-1.7,3.3-3.1,6.8-4.9,11
				c2.4-0.7,4.2-1,5.9-1.8c4-1.8,8.3-1.8,12.5-1.9c3-0.1,5.4,1,7.5,3c4,3.8,3.2,10-1.9,12.1c-4.2,1.8-8.7,3.2-13.4,2.3
				c-3.8-0.7-7.9,0.4-11.4-2.3c-0.4-0.3-2.5,0.4-2.8,1.1c-1.8,5.2-4,10.4-3.9,16.5c3.8-1.6,7.1-3,10.4-4.3
				c6.2-2.5,12.4-2.9,18.8-0.8c5,1.7,6.3,4.1,6.1,8.3c-0.1,3.6-4.2,6.8-8.5,6.5c-5.9-0.4-11.7-1.4-17.6-1.7c-3-0.2-6.1,0.6-9.1,1
				c-1.5,5.4-3.8,10.1-2.1,15.4c4.6-0.8,9-1.7,13.5-2.3c4.2-0.5,5.1,0.2,6.6,4.2c1.2,3.3,0.2,5.4-3.4,6c-2.9,0.5-5.9,0.4-8.8,0.7
				c-2.4,0.3-4.8,0.9-7.3,1.3c-0.6,6.1-1.2,11.8-1.7,17.5c-0.5,5.5-2.3,10.5-5.9,14.8c-2.7-0.4-3.8-1.9-2.4-4.1
				c3.6-6.2,4.1-13.1,5-19.9c0.7-5.4-0.2-7.2-5.5-8.6c-3.8-1-7.2-2.3-9.4-5.8c-1.2-1.9-2-3.8-0.9-6.2c6-3.2,9.8,3.5,15.7,3.6
				c0-3.9,0.3-7.8,0-11.6c-0.1-2-1.4-3.6-3.5-4.4c-1.1-0.4-2.3-0.7-3.1-1.4c-3.4-3.4-7.3-5.3-12.2-5.4c-2.8,0-5.6-4.5-5.4-7.4
				c0.2-2.2,1.6-3,3.6-3.4c6.1-1.1,11.4,0.6,15.9,4.8c1.8,1.7,3.3,3.6,5.2,5.7c1.9-3.1,2.5-6.4,1.5-9.4c-0.8-2.6-0.6-4.7,0.6-7
				c0.6-1.1,0.8-2.5,1.3-3.7c0.8-1.9,0.1-3.2-1.3-4.3c-1.6-1.2-3-2.5-4.6-3.7c-2.7-1.9-5.5-3.5-9.1-3c-1.8,0.3-3.7,0.1-5.4-0.3
				c-1.8-0.5-3.8-1.2-5.2-2.5c-3.7-3.3-2.8-8.3,1.9-9.7c2.7-0.8,5.8-0.8,8.7-0.6c2.3,0.1,4.5,0.8,6.7,1.5c4.9,1.6,9.8,3.2,12.2,8.4
				c0.2,0.4,0.7,0.6,1.1,0.9c0.1,0.1,0.3,0.1,0.8,0.1c1.6-1.9,2.8-3.7,1.4-6.7c-0.9-1.9-0.8-4.6-0.3-6.7c0.7-2.7-0.4-4.4-2-6.1
				c-2-2.1-3.9-4.5-6.2-6.3c-3.4-2.7-4.1-6.6-4.9-10.4c-0.8-3.5,2.2-8.9,5.4-10.3c2.6-1.2,8.8,0.7,10.5,3.7c2.2,4,3.9,8.3,5.6,12.5
				C443.2-159.3,443.5-157.4,444-155.6z"/>
			<path fill="#A9D4CC" d="M533.4-122.9c0.7-0.1,1-0.1,1-0.2c3.3-5.8,6.6-11.7,10-17.4c2.6-4.4,1.5-8.5-1.1-12.4
				c-2-3-3.7-6.2-5.8-9.1c-2.2-3.1-2.7-6.7-3.5-10.2c-0.2-1.1-0.1-2.3,0.1-3.4c0.8-3.6,3-4.9,6.5-3.8c3.6,1.2,6.4,3.3,7.6,7.1
				c1.3,4.2,2.6,8.5,4,12.7c0.5,1.4,1.1,2.6,2,4.6c2.7-2.4,5.1-4.5,7.4-6.7c3.9-3.7,7.7-7.6,11.6-11.4c0.6-0.6,1.3-1,2.1-1.3
				c7.3-3.3,14.6-6.6,22-9.8c3.1-1.3,6.3-1.5,9.4,0.7c1.3,0.9,3.3,1.1,3.2,3.2c-0.1,2.5-0.5,5.1-3.1,6.3c-4.5,2-9,3.9-13.7,5.5
				c-4.3,1.5-8.8,2.5-13.2,3.7c-7.5,2.1-13.3,6.9-18.6,12.3c-0.4,0.4-0.6,1.1-1.2,2.5c3.4-0.9,6.1-1.6,8.8-2.3
				c8.2-2.2,16.5-3,24.9-2c2.4,0.3,4.8,2,6.8,3.6c1.7,1.3,0.8,3.2-0.9,4c-3.2,1.6-6.6,2.9-10,4.2c-10.6,4.3-21.8,5-33,4.8
				c-6.9-0.1-11.2,2.2-14,8.3c-1,2.2-2.8,4-2.7,7.1c4-1.9,7.9-3.6,11.6-5.6c7.4-3.9,15.1-2.2,22.7-1c1.2,0.2,2.4,1.7,3.1,2.9
				c1.2,2.1,2.1,4.5,2.9,6.8c0.8,2.1-0.1,3.8-1.7,5.3c-2.5,2.4-5.7,3.5-9,3.3c-3.9-0.2-7.9-0.6-11.6-1.8c-8.2-2.7-15.9-1.8-23.3,2.3
				c-1.2,0.7-2.4,1.8-3,3c-1.7,3.3-3.1,6.8-4.9,11c2.4-0.7,4.2-1,5.9-1.8c4-1.8,8.3-1.8,12.5-1.9c3-0.1,5.4,1,7.5,3
				c4,3.8,3.2,10-1.9,12.1c-4.2,1.8-8.7,3.2-13.4,2.3c-3.8-0.7-7.9,0.4-11.4-2.3c-0.4-0.3-2.5,0.4-2.8,1.1c-1.8,5.2-4,10.4-3.9,16.5
				c3.8-1.6,7.1-3,10.4-4.3c6.2-2.5,12.4-2.9,18.8-0.8c5,1.7,6.3,4.1,6.1,8.3c-0.1,3.6-4.2,6.8-8.5,6.5c-5.9-0.4-11.7-1.4-17.6-1.7
				c-3-0.2-6.1,0.6-9.1,1c-1.5,5.4-3.8,10.1-2.1,15.4c4.6-0.8,9-1.7,13.5-2.3c4.2-0.5,5.1,0.2,6.6,4.2c1.2,3.3,0.2,5.4-3.4,6
				c-2.9,0.5-5.9,0.4-8.8,0.7c-2.4,0.3-4.8,0.9-7.3,1.3c-0.6,6.1-1.2,11.8-1.7,17.5c-0.5,5.5-2.3,10.5-5.9,14.8
				c-2.7-0.4-3.8-1.9-2.4-4.1c3.6-6.2,4.1-13.1,5-19.9c0.7-5.4-0.2-7.2-5.5-8.6c-3.8-1-7.2-2.3-9.4-5.8c-1.2-1.9-2-3.8-0.9-6.2
				c6-3.2,9.8,3.5,15.7,3.6c0-3.9,0.3-7.8,0-11.6c-0.1-2-1.4-3.6-3.5-4.4c-1.1-0.4-2.3-0.7-3.1-1.4c-3.4-3.4-7.3-5.3-12.2-5.4
				c-2.8,0-5.6-4.5-5.4-7.4c0.2-2.2,1.6-3,3.6-3.4c6.1-1.1,11.4,0.6,15.9,4.8c1.8,1.7,3.3,3.6,5.2,5.7c1.9-3.1,2.5-6.4,1.5-9.4
				c-0.8-2.6-0.6-4.7,0.6-7c0.6-1.1,0.8-2.5,1.3-3.7c0.8-1.9,0.1-3.2-1.3-4.3c-1.6-1.2-3-2.5-4.6-3.7c-2.7-1.9-5.5-3.5-9.1-3
				c-1.8,0.3-3.7,0.1-5.4-0.3c-1.8-0.5-3.8-1.2-5.2-2.5c-3.7-3.3-2.8-8.3,1.9-9.7c2.7-0.8,5.8-0.8,8.7-0.6c2.3,0.1,4.5,0.8,6.7,1.5
				c4.9,1.6,9.8,3.2,12.2,8.4c0.2,0.4,0.7,0.6,1.1,0.9c0.1,0.1,0.3,0.1,0.8,0.1c1.6-1.9,2.8-3.7,1.4-6.7c-0.9-1.9-0.8-4.6-0.3-6.7
				c0.7-2.7-0.4-4.4-2-6.1c-2-2.1-3.9-4.5-6.2-6.3c-3.4-2.7-4.1-6.6-4.9-10.4c-0.8-3.5,2.2-8.9,5.4-10.3c2.6-1.2,8.8,0.7,10.5,3.7
				c2.2,4,3.9,8.3,5.6,12.5C532.6-126.6,532.9-124.7,533.4-122.9z"/>
		</g>
		<g>
			<path fill="#A9D4CC" d="M1042.2-291.9c-0.7,0.1-1,0.1-1,0.2c-3.3,5.8-6.6,11.7-10,17.4c-2.6,4.4-1.5,8.5,1.1,12.4
				c2,3,3.7,6.2,5.8,9.1c2.2,3.1,2.7,6.7,3.5,10.2c0.2,1.1,0.1,2.3-0.1,3.4c-0.8,3.6-3,4.9-6.5,3.8c-3.6-1.2-6.4-3.3-7.6-7.1
				c-1.3-4.2-2.6-8.5-4-12.7c-0.5-1.4-1.1-2.6-2-4.6c-2.7,2.4-5.1,4.5-7.4,6.7c-3.9,3.7-7.7,7.6-11.6,11.4c-0.6,0.6-1.3,1-2.1,1.3
				c-7.3,3.3-14.6,6.6-22,9.8c-3.1,1.3-6.3,1.5-9.4-0.7c-1.3-0.9-3.3-1.1-3.2-3.2c0.1-2.5,0.5-5.1,3.1-6.3c4.5-2,9-3.9,13.7-5.5
				c4.3-1.5,8.8-2.5,13.2-3.7c7.5-2.1,13.3-6.9,18.6-12.3c0.4-0.4,0.6-1.1,1.2-2.5c-3.4,0.9-6.1,1.6-8.8,2.3c-8.2,2.2-16.5,3-24.9,2
				c-2.4-0.3-4.8-2-6.8-3.6c-1.7-1.3-0.8-3.2,0.9-4c3.2-1.6,6.6-2.9,10-4.2c10.6-4.3,21.8-5,33-4.8c6.9,0.1,11.2-2.2,14-8.3
				c1-2.2,2.8-4,2.7-7.1c-4,1.9-7.9,3.6-11.6,5.6c-7.4,3.9-15.1,2.2-22.7,1c-1.2-0.2-2.4-1.7-3.1-2.9c-1.2-2.1-2.1-4.5-2.9-6.8
				c-0.8-2.1,0.1-3.8,1.7-5.3c2.5-2.4,5.7-3.5,9-3.3c3.9,0.2,7.9,0.6,11.6,1.8c8.2,2.7,15.9,1.8,23.3-2.3c1.2-0.7,2.4-1.8,3-3
				c1.7-3.3,3.1-6.8,4.9-11c-2.4,0.7-4.2,1-5.9,1.8c-4,1.8-8.3,1.8-12.5,1.9c-3,0.1-5.4-1-7.5-3c-4-3.8-3.2-10,1.9-12.1
				c4.2-1.8,8.7-3.2,13.4-2.3c3.8,0.7,7.9-0.4,11.4,2.3c0.4,0.3,2.5-0.4,2.8-1.1c1.8-5.2,4-10.4,3.9-16.5c-3.8,1.6-7.1,3-10.4,4.3
				c-6.2,2.5-12.4,2.9-18.8,0.8c-5-1.7-6.3-4.1-6.1-8.3c0.1-3.6,4.2-6.8,8.5-6.5c5.9,0.4,11.7,1.4,17.6,1.7c3,0.2,6.1-0.6,9.1-1
				c1.5-5.4,3.8-10.1,2.1-15.4c-4.6,0.8-9,1.7-13.5,2.3c-4.2,0.5-5.1-0.2-6.6-4.2c-1.2-3.3-0.2-5.4,3.4-6c2.9-0.5,5.9-0.4,8.8-0.7
				c2.4-0.3,4.8-0.9,7.3-1.3c0.6-6.1,1.2-11.8,1.7-17.5c0.5-5.5,2.3-10.5,5.9-14.8c2.7,0.4,3.8,1.9,2.4,4.1
				c-3.6,6.2-4.1,13.1-5,19.9c-0.7,5.4,0.2,7.2,5.5,8.6c3.8,1,7.2,2.3,9.4,5.8c1.2,1.9,2,3.8,0.9,6.2c-6,3.2-9.8-3.5-15.7-3.6
				c0,3.9-0.3,7.8,0,11.6c0.1,2,1.4,3.6,3.5,4.4c1.1,0.4,2.3,0.7,3.1,1.4c3.4,3.4,7.3,5.3,12.2,5.4c2.8,0,5.6,4.5,5.4,7.4
				c-0.2,2.2-1.6,3-3.6,3.4c-6.1,1.1-11.4-0.6-15.9-4.8c-1.8-1.7-3.3-3.6-5.2-5.7c-1.9,3.1-2.5,6.4-1.5,9.4c0.8,2.6,0.6,4.7-0.6,7
				c-0.6,1.1-0.8,2.5-1.3,3.7c-0.8,1.9-0.1,3.2,1.3,4.3c1.6,1.2,3,2.5,4.6,3.7c2.7,1.9,5.5,3.5,9.1,3c1.8-0.3,3.7-0.1,5.4,0.3
				c1.8,0.5,3.8,1.2,5.2,2.5c3.7,3.3,2.8,8.3-1.9,9.7c-2.7,0.8-5.8,0.8-8.7,0.6c-2.3-0.1-4.5-0.8-6.7-1.5c-4.9-1.6-9.8-3.2-12.2-8.4
				c-0.2-0.4-0.7-0.6-1.1-0.9c-0.1-0.1-0.3-0.1-0.8-0.1c-1.6,1.9-2.8,3.7-1.4,6.7c0.9,1.9,0.8,4.6,0.3,6.7c-0.7,2.7,0.4,4.4,2,6.1
				c2,2.1,3.9,4.5,6.2,6.3c3.4,2.7,4.1,6.6,4.9,10.4c0.8,3.5-2.2,8.9-5.4,10.3c-2.6,1.2-8.8-0.7-10.5-3.7c-2.2-4-3.9-8.3-5.6-12.5
				C1043-288.2,1042.7-290.1,1042.2-291.9z"/>
			<path fill="#A9D4CC" d="M1034.4-547.5c0.7-0.1,1-0.1,1-0.2c3.3-5.8,6.6-11.7,10-17.4c2.6-4.4,1.5-8.5-1.1-12.4
				c-2-3-3.7-6.2-5.8-9.1c-2.2-3.1-2.7-6.7-3.5-10.2c-0.2-1.1-0.1-2.3,0.1-3.4c0.8-3.6,3-4.9,6.5-3.8c3.6,1.2,6.4,3.3,7.6,7.1
				c1.3,4.2,2.6,8.5,4,12.7c0.5,1.4,1.1,2.6,2,4.6c2.7-2.4,5.1-4.5,7.4-6.7c3.9-3.7,7.7-7.6,11.6-11.4c0.6-0.6,1.3-1,2.1-1.3
				c7.3-3.3,14.6-6.6,22-9.8c3.1-1.3,6.3-1.5,9.4,0.7c1.3,0.9,3.3,1.1,3.2,3.2c-0.1,2.5-0.5,5.1-3.1,6.3c-4.5,2-9,3.9-13.7,5.5
				c-4.3,1.5-8.8,2.5-13.2,3.7c-7.5,2.1-13.3,6.9-18.6,12.3c-0.4,0.4-0.6,1.1-1.2,2.5c3.4-0.9,6.1-1.6,8.8-2.3
				c8.2-2.2,16.5-3,24.9-2c2.4,0.3,4.8,2,6.8,3.6c1.7,1.3,0.8,3.2-0.9,4c-3.2,1.6-6.6,2.9-10,4.2c-10.6,4.3-21.8,5-33,4.8
				c-6.9-0.1-11.2,2.2-14,8.3c-1,2.2-2.8,4-2.7,7.1c4-1.9,7.9-3.6,11.6-5.6c7.4-3.9,15.1-2.2,22.7-1c1.2,0.2,2.4,1.7,3.1,2.9
				c1.2,2.1,2.1,4.5,2.9,6.8c0.8,2.1-0.1,3.8-1.7,5.3c-2.5,2.4-5.7,3.5-9,3.3c-3.9-0.2-7.9-0.6-11.6-1.8c-8.2-2.7-15.9-1.8-23.3,2.3
				c-1.2,0.7-2.4,1.8-3,3c-1.7,3.3-3.1,6.8-4.9,11c2.4-0.7,4.2-1,5.9-1.8c4-1.8,8.3-1.8,12.5-1.9c3-0.1,5.4,1,7.5,3
				c4,3.8,3.2,10-1.9,12.1c-4.2,1.8-8.7,3.2-13.4,2.3c-3.8-0.7-7.9,0.4-11.4-2.3c-0.4-0.3-2.5,0.4-2.8,1.1c-1.8,5.2-4,10.4-3.9,16.5
				c3.8-1.6,7.1-3,10.4-4.3c6.2-2.5,12.4-2.9,18.8-0.8c5,1.7,6.3,4.1,6.1,8.3c-0.1,3.6-4.2,6.8-8.5,6.5c-5.9-0.4-11.7-1.4-17.6-1.7
				c-3-0.2-6.1,0.6-9.1,1c-1.5,5.4-3.8,10.1-2.1,15.4c4.6-0.8,9-1.7,13.5-2.3c4.2-0.5,5.1,0.2,6.6,4.2c1.2,3.3,0.2,5.4-3.4,6
				c-2.9,0.5-5.9,0.4-8.8,0.7c-2.4,0.3-4.8,0.9-7.3,1.3c-0.6,6.1-1.2,11.8-1.7,17.5c-0.5,5.5-2.3,10.5-5.9,14.8
				c-2.7-0.4-3.8-1.9-2.4-4.1c3.6-6.2,4.1-13.1,5-19.9c0.7-5.4-0.2-7.2-5.5-8.6c-3.8-1-7.2-2.3-9.4-5.8c-1.2-1.9-2-3.8-0.9-6.2
				c6-3.2,9.8,3.5,15.7,3.6c0-3.9,0.3-7.8,0-11.6c-0.1-2-1.4-3.6-3.5-4.4c-1.1-0.4-2.3-0.7-3.1-1.4c-3.4-3.4-7.3-5.3-12.2-5.4
				c-2.8,0-5.6-4.5-5.4-7.4c0.2-2.2,1.6-3,3.6-3.4c6.1-1.1,11.4,0.6,15.9,4.8c1.8,1.7,3.3,3.6,5.2,5.7c1.9-3.1,2.5-6.4,1.5-9.4
				c-0.8-2.6-0.6-4.7,0.6-7c0.6-1.1,0.8-2.5,1.3-3.7c0.8-1.9,0.1-3.2-1.3-4.3c-1.6-1.2-3-2.5-4.6-3.7c-2.7-1.9-5.5-3.5-9.1-3
				c-1.8,0.3-3.7,0.1-5.4-0.3c-1.8-0.5-3.8-1.2-5.2-2.5c-3.7-3.3-2.8-8.3,1.9-9.7c2.7-0.8,5.8-0.8,8.7-0.6c2.3,0.1,4.5,0.8,6.7,1.5
				c4.9,1.6,9.8,3.2,12.2,8.4c0.2,0.4,0.7,0.6,1.1,0.9c0.1,0.1,0.3,0.1,0.8,0.1c1.6-1.9,2.8-3.7,1.4-6.7c-0.9-1.9-0.8-4.6-0.3-6.7
				c0.7-2.7-0.4-4.4-2-6.1c-2-2.1-3.9-4.5-6.2-6.3c-3.4-2.7-4.1-6.6-4.9-10.4c-0.8-3.5,2.2-8.9,5.4-10.3c2.6-1.2,8.8,0.7,10.5,3.7
				c2.2,4,3.9,8.3,5.6,12.5C1033.6-551.2,1033.9-549.3,1034.4-547.5z"/>
			<path fill="#A9D4CC" d="M1033.6-122.2c0.7-0.1,1-0.1,1-0.2c3.3-5.8,6.6-11.7,10-17.4c2.6-4.4,1.5-8.5-1.1-12.4
				c-2-3-3.7-6.2-5.8-9.1c-2.2-3.1-2.7-6.7-3.5-10.2c-0.2-1.1-0.1-2.3,0.1-3.4c0.8-3.6,3-4.9,6.5-3.8c3.6,1.2,6.4,3.3,7.6,7.1
				c1.3,4.2,2.6,8.5,4,12.7c0.5,1.4,1.1,2.6,2,4.6c2.7-2.4,5.1-4.5,7.4-6.7c3.9-3.7,7.7-7.6,11.6-11.4c0.6-0.6,1.3-1,2.1-1.3
				c7.3-3.3,14.6-6.6,22-9.8c3.1-1.3,6.3-1.5,9.4,0.7c1.3,0.9,3.3,1.1,3.2,3.2c-0.1,2.5-0.5,5.1-3.1,6.3c-4.5,2-9,3.9-13.7,5.5
				c-4.3,1.5-8.8,2.5-13.2,3.7c-7.5,2.1-13.3,6.9-18.6,12.3c-0.4,0.4-0.6,1.1-1.2,2.5c3.4-0.9,6.1-1.6,8.8-2.3
				c8.2-2.2,16.5-3,24.9-2c2.4,0.3,4.8,2,6.8,3.6c1.7,1.3,0.8,3.2-0.9,4c-3.2,1.6-6.6,2.9-10,4.2c-10.6,4.3-21.8,5-33,4.8
				c-6.9-0.1-11.2,2.2-14,8.3c-1,2.2-2.8,4-2.7,7.1c4-1.9,7.9-3.6,11.6-5.6c7.4-3.9,15.1-2.2,22.7-1c1.2,0.2,2.4,1.7,3.1,2.9
				c1.2,2.1,2.1,4.5,2.9,6.8c0.8,2.1-0.1,3.8-1.7,5.3c-2.5,2.4-5.7,3.5-9,3.3c-3.9-0.2-7.9-0.6-11.6-1.8c-8.2-2.7-15.9-1.8-23.3,2.3
				c-1.2,0.7-2.4,1.8-3,3c-1.7,3.3-3.1,6.8-4.9,11c2.4-0.7,4.2-1,5.9-1.8c4-1.8,8.3-1.8,12.5-1.9c3-0.1,5.4,1,7.5,3
				c4,3.8,3.2,10-1.9,12.1c-4.2,1.8-8.7,3.2-13.4,2.3c-3.8-0.7-7.9,0.4-11.4-2.3c-0.4-0.3-2.5,0.4-2.8,1.1c-1.8,5.2-4,10.4-3.9,16.5
				c3.8-1.6,7.1-3,10.4-4.3c6.2-2.5,12.4-2.9,18.8-0.8c5,1.7,6.3,4.1,6.1,8.3c-0.1,3.6-4.2,6.8-8.5,6.5c-5.9-0.4-11.7-1.4-17.6-1.7
				c-3-0.2-6.1,0.6-9.1,1c-1.5,5.4-3.8,10.1-2.1,15.4c4.6-0.8,9-1.7,13.5-2.3c4.2-0.5,5.1,0.2,6.6,4.2c1.2,3.3,0.2,5.4-3.4,6
				c-2.9,0.5-5.9,0.4-8.8,0.7c-2.4,0.3-4.8,0.9-7.3,1.3c-0.6,6.1-1.2,11.8-1.7,17.5c-0.5,5.5-2.3,10.5-5.9,14.8
				c-2.7-0.4-3.8-1.9-2.4-4.1c3.6-6.2,4.1-13.1,5-19.9c0.7-5.4-0.2-7.2-5.5-8.6c-3.8-1-7.2-2.3-9.4-5.8c-1.2-1.9-2-3.8-0.9-6.2
				c6-3.2,9.8,3.5,15.7,3.6c0-3.9,0.3-7.8,0-11.6c-0.1-2-1.4-3.6-3.5-4.4c-1.1-0.4-2.3-0.7-3.1-1.4c-3.4-3.4-7.3-5.3-12.2-5.4
				c-2.8,0-5.6-4.5-5.4-7.4c0.2-2.2,1.6-3,3.6-3.4c6.1-1.1,11.4,0.6,15.9,4.8c1.8,1.7,3.3,3.6,5.2,5.7c1.9-3.1,2.5-6.4,1.5-9.4
				c-0.8-2.6-0.6-4.7,0.6-7c0.6-1.1,0.8-2.5,1.3-3.7c0.8-1.9,0.1-3.2-1.3-4.3c-1.6-1.2-3-2.5-4.6-3.7c-2.7-1.9-5.5-3.5-9.1-3
				c-1.8,0.3-3.7,0.1-5.4-0.3c-1.8-0.5-3.8-1.2-5.2-2.5c-3.7-3.3-2.8-8.3,1.9-9.7c2.7-0.8,5.8-0.8,8.7-0.6c2.3,0.1,4.5,0.8,6.7,1.5
				c4.9,1.6,9.8,3.2,12.2,8.4c0.2,0.4,0.7,0.6,1.1,0.9c0.1,0.1,0.3,0.1,0.8,0.1c1.6-1.9,2.8-3.7,1.4-6.7c-0.9-1.9-0.8-4.6-0.3-6.7
				c0.7-2.7-0.4-4.4-2-6.1c-2-2.1-3.9-4.5-6.2-6.3c-3.4-2.7-4.1-6.6-4.9-10.4c-0.8-3.5,2.2-8.9,5.4-10.3c2.6-1.2,8.8,0.7,10.5,3.7
				c2.2,4,3.9,8.3,5.6,12.5C1032.8-125.9,1033.1-124,1033.6-122.2z"/>
		</g>
		<g>
			<polygon fill="#C9C9C9" points="1000.2,-168.1 500.1,-168.1 500.1,-593.1 1000.2,-593.1 			"/>
			<path fill="#A9D4CC" d="M689.3-545.4c0.4-0.6,0.6-0.8,0.6-0.9c-1.7-6.5-3.6-12.9-5.2-19.4c-1.3-5-4.9-7-9.5-8
				c-3.5-0.8-7-1.8-10.6-2.4c-3.7-0.6-6.6-2.8-9.7-4.7c-0.9-0.6-1.7-1.5-2.3-2.5c-2-3.1-1.4-5.6,1.9-7.3c3.4-1.7,6.9-2.2,10.4-0.3
				c3.9,2.1,7.8,4.1,11.8,6.1c1.3,0.6,2.7,1.1,4.7,1.8c0.2-3.6,0.4-6.8,0.5-10c0.1-5.4,0.1-10.8,0.2-16.2c0-0.8,0.2-1.6,0.5-2.4
				c2.8-7.5,5.6-15,8.6-22.4c1.3-3.1,3.4-5.5,7.1-6.2c1.6-0.3,3.1-1.5,4.5,0c1.7,1.8,3.3,4,2.3,6.6c-1.8,4.6-3.6,9.1-5.8,13.6
				c-2,4.1-4.5,8-6.7,12c-3.9,6.8-4.6,14.3-4.5,21.9c0,0.6,0.4,1.2,0.9,2.6c1.7-3,3.2-5.4,4.6-7.9c4.2-7.4,9.5-13.8,16.2-19
				c1.9-1.5,4.8-2,7.3-2.3c2.1-0.2,2.8,1.7,2.2,3.5c-1.2,3.4-2.6,6.7-4,10c-4.5,10.5-11.9,19-19.9,26.7c-4.9,4.8-6.4,9.5-4,15.8
				c0.8,2.3,0.8,4.8,3.1,6.9c1.5-4.2,3-8.1,4.2-12.2c2.5-8,9.1-12.2,15.3-16.7c1-0.7,2.9-0.5,4.3-0.2c2.4,0.6,4.6,1.7,6.9,2.7
				c2.1,0.9,2.6,2.8,2.6,4.9c-0.1,3.5-1.6,6.5-4.1,8.7c-2.9,2.6-6,5.2-9.5,7c-7.7,3.9-12.5,9.9-14.8,18.1c-0.4,1.3-0.4,3,0,4.3
				c1.2,3.6,2.7,7,4.3,11.2c1.2-2.2,2.3-3.7,2.9-5.4c1.5-4.1,4.6-7.1,7.5-10.2c2.1-2.2,4.5-3.1,7.5-3.2c5.5-0.1,9.3,4.8,7.2,10
				c-1.7,4.2-3.8,8.4-7.9,11.1c-3.2,2.2-5.3,5.9-9.7,6.4c-0.5,0.1-1.5,2.1-1.2,2.7c2.4,5,4.5,10.1,8.9,14.4
				c1.6-3.8,2.9-7.1,4.3-10.4c2.6-6.1,6.7-10.8,12.7-13.8c4.7-2.4,7.3-1.6,10.2,1.5c2.5,2.7,1.8,7.8-1.4,10.6
				c-4.4,3.9-9.3,7.3-13.7,11.2c-2.2,2-3.8,4.7-5.7,7.1c2.8,4.9,4.4,9.8,9.4,12.4c2.7-3.8,5.2-7.6,7.9-11.1c2.6-3.4,3.8-3.5,7.6-1.7
				c3.2,1.5,4,3.7,1.8,6.6c-1.7,2.4-3.9,4.4-5.7,6.7c-1.5,1.9-2.8,4-4.2,6.1c3.9,4.7,7.5,9.2,11.1,13.6c3.6,4.3,5.8,9.1,6.3,14.7
				c-2.2,1.6-4,1.3-4.7-1.2c-1.8-6.9-6.4-12.1-10.5-17.6c-3.3-4.4-5.2-5-10-2.1c-3.4,2-6.7,3.4-10.7,2.6c-2.2-0.5-4.1-1.3-5-3.7
				c2-6.5,9.4-4.5,13.6-8.5c-2.7-2.8-5.3-5.7-8.2-8.2c-1.5-1.3-3.6-1.6-5.6-0.6c-1,0.5-2.1,1.2-3.2,1.2c-4.8,0-8.9,1.4-12.4,4.9
				c-2,1.9-7.2,0.8-9-1.4c-1.4-1.7-1-3.3,0.1-4.9c3.6-5.1,8.5-7.7,14.6-7.9c2.4-0.1,4.9,0.2,7.7,0.4c-0.8-3.6-2.7-6.3-5.6-7.7
				c-2.5-1.3-3.8-2.9-4.5-5.4c-0.4-1.2-1.2-2.3-1.7-3.6c-0.7-1.9-2.1-2.3-4-2.1c-2,0.2-3.9,0.4-5.9,0.7c-3.3,0.5-6.4,1.4-8.6,4.3
				c-1.1,1.4-2.5,2.7-4,3.6c-1.7,1-3.6,1.8-5.4,2c-4.9,0.3-7.9-3.9-5.5-8.2c1.4-2.5,3.6-4.6,5.7-6.6c1.7-1.5,3.8-2.6,5.8-3.7
				c4.6-2.3,9.2-4.7,14.6-2.7c0.4,0.2,1,0,1.4-0.1c0.1,0,0.3-0.2,0.7-0.5c-0.2-2.5-0.7-4.6-3.8-5.8c-2-0.8-3.9-2.7-5-4.5
				c-1.5-2.4-3.4-2.8-5.8-2.9c-3-0.1-5.9-0.4-8.9-0.1c-4.4,0.5-7.6-1.8-10.8-3.9c-3-1.9-4.7-7.9-3.5-11.1c1-2.7,6.7-5.8,10.1-4.8
				c4.4,1.3,8.6,3.1,12.8,4.9C686.1-547.5,687.7-546.3,689.3-545.4z"/>
			<path fill="#A9D4CC" d="M542.1-291.9c-0.7,0.1-1,0.1-1,0.2c-3.3,5.8-6.6,11.7-10,17.4c-2.6,4.4-1.5,8.5,1.1,12.4
				c2,3,3.7,6.2,5.8,9.1c2.2,3.1,2.7,6.7,3.5,10.2c0.2,1.1,0.1,2.3-0.1,3.4c-0.8,3.6-3,4.9-6.5,3.8c-3.6-1.2-6.4-3.3-7.6-7.1
				c-1.3-4.2-2.6-8.5-4-12.7c-0.5-1.4-1.1-2.6-2-4.6c-2.7,2.4-5.1,4.5-7.4,6.7c-3.9,3.7-7.7,7.6-11.6,11.4c-0.6,0.6-1.3,1-2.1,1.3
				c-7.3,3.3-14.6,6.6-22,9.8c-3.1,1.3-6.3,1.5-9.4-0.7c-1.3-0.9-3.3-1.1-3.2-3.2c0.1-2.5,0.5-5.1,3.1-6.3c4.5-2,9-3.9,13.7-5.5
				c4.3-1.5,8.8-2.5,13.2-3.7c7.5-2.1,13.3-6.9,18.6-12.3c0.4-0.4,0.6-1.1,1.2-2.5c-3.4,0.9-6.1,1.6-8.8,2.3c-8.2,2.2-16.5,3-24.9,2
				c-2.4-0.3-4.8-2-6.8-3.6c-1.7-1.3-0.8-3.2,0.9-4c3.2-1.6,6.6-2.9,10-4.2c10.6-4.3,21.8-5,33-4.8c6.9,0.1,11.2-2.2,14-8.3
				c1-2.2,2.8-4,2.7-7.1c-4,1.9-7.9,3.6-11.6,5.6c-7.4,3.9-15.1,2.2-22.7,1c-1.2-0.2-2.4-1.7-3.1-2.9c-1.2-2.1-2.1-4.5-2.9-6.8
				c-0.8-2.1,0.1-3.8,1.7-5.3c2.5-2.4,5.7-3.5,9-3.3c3.9,0.2,7.9,0.6,11.6,1.8c8.2,2.7,15.9,1.8,23.3-2.3c1.2-0.7,2.4-1.8,3-3
				c1.7-3.3,3.1-6.8,4.9-11c-2.4,0.7-4.2,1-5.9,1.8c-4,1.8-8.3,1.8-12.5,1.9c-3,0.1-5.4-1-7.5-3c-4-3.8-3.2-10,1.9-12.1
				c4.2-1.8,8.7-3.2,13.4-2.3c3.8,0.7,7.9-0.4,11.4,2.3c0.4,0.3,2.5-0.4,2.8-1.1c1.8-5.2,4-10.4,3.9-16.5c-3.8,1.6-7.1,3-10.4,4.3
				c-6.2,2.5-12.4,2.9-18.8,0.8c-5-1.7-6.3-4.1-6.1-8.3c0.1-3.6,4.2-6.8,8.5-6.5c5.9,0.4,11.7,1.4,17.6,1.7c3,0.2,6.1-0.6,9.1-1
				c1.5-5.4,3.8-10.1,2.1-15.4c-4.6,0.8-9,1.7-13.5,2.3c-4.2,0.5-5.1-0.2-6.6-4.2c-1.2-3.3-0.2-5.4,3.4-6c2.9-0.5,5.9-0.4,8.8-0.7
				c2.4-0.3,4.8-0.9,7.3-1.3c0.6-6.1,1.2-11.8,1.7-17.5c0.5-5.5,2.3-10.5,5.9-14.8c2.7,0.4,3.8,1.9,2.4,4.1
				c-3.6,6.2-4.1,13.1-5,19.9c-0.7,5.4,0.2,7.2,5.5,8.6c3.8,1,7.2,2.3,9.4,5.8c1.2,1.9,2,3.8,0.9,6.2c-6,3.2-9.8-3.5-15.7-3.6
				c0,3.9-0.3,7.8,0,11.6c0.1,2,1.4,3.6,3.5,4.4c1.1,0.4,2.3,0.7,3.1,1.4c3.4,3.4,7.3,5.3,12.2,5.4c2.8,0,5.6,4.5,5.4,7.4
				c-0.2,2.2-1.6,3-3.6,3.4c-6.1,1.1-11.4-0.6-15.9-4.8c-1.8-1.7-3.3-3.6-5.2-5.7c-1.9,3.1-2.5,6.4-1.5,9.4c0.8,2.6,0.6,4.7-0.6,7
				c-0.6,1.1-0.8,2.5-1.3,3.7c-0.8,1.9-0.1,3.2,1.3,4.3c1.6,1.2,3,2.5,4.6,3.7c2.7,1.9,5.5,3.5,9.1,3c1.8-0.3,3.7-0.1,5.4,0.3
				c1.8,0.5,3.8,1.2,5.2,2.5c3.7,3.3,2.8,8.3-1.9,9.7c-2.7,0.8-5.8,0.8-8.7,0.6c-2.3-0.1-4.5-0.8-6.7-1.5c-4.9-1.6-9.8-3.2-12.2-8.4
				c-0.2-0.4-0.7-0.6-1.1-0.9c-0.1-0.1-0.3-0.1-0.8-0.1c-1.6,1.9-2.8,3.7-1.4,6.7c0.9,1.9,0.8,4.6,0.3,6.7c-0.7,2.7,0.4,4.4,2,6.1
				c2,2.1,3.9,4.5,6.2,6.3c3.4,2.7,4.1,6.6,4.9,10.4c0.8,3.5-2.2,8.9-5.4,10.3c-2.6,1.2-8.8-0.7-10.5-3.7c-2.2-4-3.9-8.3-5.6-12.5
				C542.9-288.2,542.6-290.1,542.1-291.9z"/>
			<path fill="#A9D4CC" d="M659.3-386.4c-0.4,0.6-0.6,0.8-0.6,0.9c1.7,6.5,3.6,12.9,5.2,19.4c1.3,5,4.9,7,9.5,8
				c3.5,0.8,7,1.8,10.6,2.4c3.7,0.6,6.6,2.8,9.7,4.7c0.9,0.6,1.7,1.5,2.3,2.5c2,3.1,1.4,5.6-1.9,7.3c-3.4,1.7-6.9,2.2-10.4,0.3
				c-3.9-2.1-7.8-4.1-11.8-6.1c-1.3-0.6-2.7-1.1-4.7-1.8c-0.2,3.6-0.4,6.8-0.5,10c-0.1,5.4-0.1,10.8-0.2,16.2c0,0.8-0.2,1.6-0.5,2.4
				c-2.8,7.5-5.6,15-8.6,22.4c-1.3,3.1-3.4,5.5-7.1,6.2c-1.6,0.3-3.1,1.5-4.5,0c-1.7-1.8-3.3-4-2.3-6.6c1.8-4.6,3.6-9.1,5.8-13.6
				c2-4.1,4.5-8,6.7-12c3.9-6.8,4.6-14.3,4.5-21.9c0-0.6-0.4-1.2-0.9-2.6c-1.7,3-3.2,5.4-4.6,7.9c-4.2,7.4-9.5,13.8-16.2,19
				c-1.9,1.5-4.8,2-7.3,2.3c-2.1,0.2-2.8-1.7-2.2-3.5c1.2-3.4,2.6-6.7,4-10c4.5-10.5,11.9-19,19.9-26.7c4.9-4.8,6.4-9.5,4-15.8
				c-0.8-2.3-0.8-4.8-3.1-6.9c-1.5,4.2-3,8.1-4.2,12.2c-2.5,8-9.1,12.2-15.3,16.7c-1,0.7-2.9,0.5-4.3,0.2c-2.4-0.6-4.6-1.7-6.9-2.7
				c-2.1-0.9-2.6-2.8-2.6-4.9c0.1-3.5,1.6-6.5,4.1-8.7c2.9-2.6,6-5.2,9.5-7c7.7-3.9,12.5-9.9,14.8-18.1c0.4-1.3,0.4-3,0-4.3
				c-1.2-3.6-2.7-7-4.3-11.2c-1.2,2.2-2.3,3.7-2.9,5.4c-1.5,4.1-4.6,7.1-7.5,10.2c-2.1,2.2-4.5,3.1-7.5,3.2c-5.5,0.1-9.3-4.8-7.2-10
				c1.7-4.2,3.8-8.4,7.9-11.1c3.2-2.2,5.3-5.9,9.7-6.4c0.5-0.1,1.5-2.1,1.2-2.7c-2.4-5-4.5-10.1-8.9-14.4c-1.6,3.8-2.9,7.1-4.3,10.4
				c-2.6,6.1-6.7,10.8-12.7,13.8c-4.7,2.4-7.3,1.6-10.2-1.5c-2.5-2.7-1.8-7.8,1.4-10.6c4.4-3.9,9.3-7.3,13.7-11.2
				c2.2-2,3.8-4.7,5.7-7.1c-2.8-4.9-4.4-9.8-9.4-12.4c-2.7,3.8-5.2,7.6-7.9,11.1c-2.6,3.4-3.8,3.5-7.6,1.7c-3.2-1.5-4-3.7-1.8-6.6
				c1.7-2.4,3.9-4.4,5.7-6.7c1.5-1.9,2.8-4,4.2-6.1c-3.9-4.7-7.5-9.2-11.1-13.6c-3.6-4.3-5.8-9.1-6.3-14.7c2.2-1.6,4-1.3,4.7,1.2
				c1.8,6.9,6.4,12.1,10.5,17.6c3.3,4.4,5.2,5,10,2.1c3.4-2,6.7-3.4,10.7-2.6c2.2,0.5,4.1,1.3,5,3.7c-2,6.5-9.4,4.5-13.6,8.5
				c2.7,2.8,5.3,5.7,8.2,8.2c1.5,1.3,3.6,1.6,5.6,0.6c1-0.5,2.1-1.2,3.2-1.2c4.8,0,8.9-1.4,12.4-4.9c2-1.9,7.2-0.8,9,1.4
				c1.4,1.7,1,3.3-0.1,4.9c-3.6,5.1-8.5,7.7-14.6,7.9c-2.4,0.1-4.9-0.2-7.7-0.4c0.8,3.6,2.7,6.3,5.6,7.7c2.5,1.3,3.8,2.9,4.5,5.4
				c0.4,1.2,1.2,2.3,1.7,3.6c0.7,1.9,2.1,2.3,4,2.1c2-0.2,3.9-0.4,5.9-0.7c3.3-0.5,6.4-1.4,8.6-4.3c1.1-1.4,2.5-2.7,4-3.6
				c1.7-1,3.6-1.8,5.4-2c4.9-0.3,7.9,3.9,5.5,8.2c-1.4,2.5-3.6,4.6-5.7,6.6c-1.7,1.5-3.8,2.6-5.8,3.7c-4.6,2.3-9.2,4.7-14.6,2.7
				c-0.4-0.2-1,0-1.4,0.1c-0.1,0-0.3,0.2-0.7,0.5c0.2,2.5,0.7,4.6,3.8,5.8c2,0.8,3.9,2.7,5,4.5c1.5,2.4,3.4,2.8,5.8,2.9
				c3,0.1,5.9,0.4,8.9,0.1c4.4-0.5,7.6,1.8,10.8,3.9c3,1.9,4.7,7.9,3.5,11.1c-1,2.7-6.7,5.8-10.1,4.8c-4.4-1.3-8.6-3.1-12.8-4.9
				C662.5-384.4,660.9-385.5,659.3-386.4z"/>
			<path fill="#A9D4CC" d="M534.3-547.5c0.7-0.1,1-0.1,1-0.2c3.3-5.8,6.6-11.7,10-17.4c2.6-4.4,1.5-8.5-1.1-12.4
				c-2-3-3.7-6.2-5.8-9.1c-2.2-3.1-2.7-6.7-3.5-10.2c-0.2-1.1-0.1-2.3,0.1-3.4c0.8-3.6,3-4.9,6.5-3.8c3.6,1.2,6.4,3.3,7.6,7.1
				c1.3,4.2,2.6,8.5,4,12.7c0.5,1.4,1.1,2.6,2,4.6c2.7-2.4,5.1-4.5,7.4-6.7c3.9-3.7,7.7-7.6,11.6-11.4c0.6-0.6,1.3-1,2.1-1.3
				c7.3-3.3,14.6-6.6,22-9.8c3.1-1.3,6.3-1.5,9.4,0.7c1.3,0.9,3.3,1.1,3.2,3.2c-0.1,2.5-0.5,5.1-3.1,6.3c-4.5,2-9,3.9-13.7,5.5
				c-4.3,1.5-8.8,2.5-13.2,3.7c-7.5,2.1-13.3,6.9-18.6,12.3c-0.4,0.4-0.6,1.1-1.2,2.5c3.4-0.9,6.1-1.6,8.8-2.3
				c8.2-2.2,16.5-3,24.9-2c2.4,0.3,4.8,2,6.8,3.6c1.7,1.3,0.8,3.2-0.9,4c-3.2,1.6-6.6,2.9-10,4.2c-10.6,4.3-21.8,5-33,4.8
				c-6.9-0.1-11.2,2.2-14,8.3c-1,2.2-2.8,4-2.7,7.1c4-1.9,7.9-3.6,11.6-5.6c7.4-3.9,15.1-2.2,22.7-1c1.2,0.2,2.4,1.7,3.1,2.9
				c1.2,2.1,2.1,4.5,2.9,6.8c0.8,2.1-0.1,3.8-1.7,5.3c-2.5,2.4-5.7,3.5-9,3.3c-3.9-0.2-7.9-0.6-11.6-1.8c-8.2-2.7-15.9-1.8-23.3,2.3
				c-1.2,0.7-2.4,1.8-3,3c-1.7,3.3-3.1,6.8-4.9,11c2.4-0.7,4.2-1,5.9-1.8c4-1.8,8.3-1.8,12.5-1.9c3-0.1,5.4,1,7.5,3
				c4,3.8,3.2,10-1.9,12.1c-4.2,1.8-8.7,3.2-13.4,2.3c-3.8-0.7-7.9,0.4-11.4-2.3c-0.4-0.3-2.5,0.4-2.8,1.1c-1.8,5.2-4,10.4-3.9,16.5
				c3.8-1.6,7.1-3,10.4-4.3c6.2-2.5,12.4-2.9,18.8-0.8c5,1.7,6.3,4.1,6.1,8.3c-0.1,3.6-4.2,6.8-8.5,6.5c-5.9-0.4-11.7-1.4-17.6-1.7
				c-3-0.2-6.1,0.6-9.1,1c-1.5,5.4-3.8,10.1-2.1,15.4c4.6-0.8,9-1.7,13.5-2.3c4.2-0.5,5.1,0.2,6.6,4.2c1.2,3.3,0.2,5.4-3.4,6
				c-2.9,0.5-5.9,0.4-8.8,0.7c-2.4,0.3-4.8,0.9-7.3,1.3c-0.6,6.1-1.2,11.8-1.7,17.5c-0.5,5.5-2.3,10.5-5.9,14.8
				c-2.7-0.4-3.8-1.9-2.4-4.1c3.6-6.2,4.1-13.1,5-19.9c0.7-5.4-0.2-7.2-5.5-8.6c-3.8-1-7.2-2.3-9.4-5.8c-1.2-1.9-2-3.8-0.9-6.2
				c6-3.2,9.8,3.5,15.7,3.6c0-3.9,0.3-7.8,0-11.6c-0.1-2-1.4-3.6-3.5-4.4c-1.1-0.4-2.3-0.7-3.1-1.4c-3.4-3.4-7.3-5.3-12.2-5.4
				c-2.8,0-5.6-4.5-5.4-7.4c0.2-2.2,1.6-3,3.6-3.4c6.1-1.1,11.4,0.6,15.9,4.8c1.8,1.7,3.3,3.6,5.2,5.7c1.9-3.1,2.5-6.4,1.5-9.4
				c-0.8-2.6-0.6-4.7,0.6-7c0.6-1.1,0.8-2.5,1.3-3.7c0.8-1.9,0.1-3.2-1.3-4.3c-1.6-1.2-3-2.5-4.6-3.7c-2.7-1.9-5.5-3.5-9.1-3
				c-1.8,0.3-3.7,0.1-5.4-0.3c-1.8-0.5-3.8-1.2-5.2-2.5c-3.7-3.3-2.8-8.3,1.9-9.7c2.7-0.8,5.8-0.8,8.7-0.6c2.3,0.1,4.5,0.8,6.7,1.5
				c4.9,1.6,9.8,3.2,12.2,8.4c0.2,0.4,0.7,0.6,1.1,0.9c0.1,0.1,0.3,0.1,0.8,0.1c1.6-1.9,2.8-3.7,1.4-6.7c-0.9-1.9-0.8-4.6-0.3-6.7
				c0.7-2.7-0.4-4.4-2-6.1c-2-2.1-3.9-4.5-6.2-6.3c-3.4-2.7-4.1-6.6-4.9-10.4c-0.8-3.5,2.2-8.9,5.4-10.3c2.6-1.2,8.8,0.7,10.5,3.7
				c2.2,4,3.9,8.3,5.6,12.5C533.5-551.2,533.8-549.3,534.3-547.5z"/>
			<path fill="#A9D4CC" d="M842.9-523.3c-0.4,0.6-0.6,0.8-0.6,0.9c1.7,6.5,3.6,12.9,5.2,19.4c1.3,5,4.9,7,9.5,8
				c3.5,0.8,7,1.8,10.6,2.4c3.7,0.6,6.6,2.8,9.7,4.7c0.9,0.6,1.7,1.5,2.3,2.5c2,3.1,1.4,5.6-1.9,7.3c-3.4,1.7-6.9,2.2-10.4,0.3
				c-3.9-2.1-7.8-4.1-11.8-6.1c-1.3-0.6-2.7-1.1-4.7-1.8c-0.2,3.6-0.4,6.8-0.5,10c-0.1,5.4-0.1,10.8-0.2,16.2c0,0.8-0.2,1.6-0.5,2.4
				c-2.8,7.5-5.6,15-8.6,22.4c-1.3,3.1-3.4,5.5-7.1,6.2c-1.6,0.3-3.1,1.5-4.5,0c-1.7-1.8-3.3-4-2.3-6.6c1.8-4.6,3.6-9.1,5.8-13.6
				c2-4.1,4.5-8,6.7-12c3.9-6.8,4.6-14.3,4.5-21.9c0-0.6-0.4-1.2-0.9-2.6c-1.7,3-3.2,5.4-4.6,7.9c-4.2,7.4-9.5,13.8-16.2,19
				c-1.9,1.5-4.8,2-7.3,2.3c-2.1,0.2-2.8-1.7-2.2-3.5c1.2-3.4,2.6-6.7,4-10c4.5-10.5,11.9-19,19.9-26.7c4.9-4.8,6.4-9.5,4-15.8
				c-0.8-2.3-0.8-4.8-3.1-6.9c-1.5,4.2-3,8.1-4.2,12.2c-2.5,8-9.1,12.2-15.3,16.7c-1,0.7-2.9,0.5-4.3,0.2c-2.4-0.6-4.6-1.7-6.9-2.7
				c-2.1-0.9-2.6-2.8-2.6-4.9c0.1-3.5,1.6-6.5,4.1-8.7c2.9-2.6,6-5.2,9.5-7c7.7-3.9,12.5-9.9,14.8-18.1c0.4-1.3,0.4-3,0-4.3
				c-1.2-3.6-2.7-7-4.3-11.2c-1.2,2.2-2.3,3.7-2.9,5.4c-1.5,4.1-4.6,7.1-7.5,10.2c-2.1,2.2-4.5,3.1-7.5,3.2c-5.5,0.1-9.3-4.8-7.2-10
				c1.7-4.2,3.8-8.4,7.9-11.1c3.2-2.2,5.3-5.9,9.7-6.4c0.5-0.1,1.5-2.1,1.2-2.7c-2.4-5-4.5-10.1-8.9-14.4c-1.6,3.8-2.9,7.1-4.3,10.4
				c-2.6,6.1-6.7,10.8-12.7,13.8c-4.7,2.4-7.3,1.6-10.2-1.5c-2.5-2.7-1.8-7.8,1.4-10.6c4.4-3.9,9.3-7.3,13.7-11.2
				c2.2-2,3.8-4.7,5.7-7.1c-2.8-4.9-4.4-9.8-9.4-12.4c-2.7,3.8-5.2,7.6-7.9,11.1c-2.6,3.4-3.8,3.5-7.6,1.7c-3.2-1.5-4-3.7-1.8-6.6
				c1.7-2.4,3.9-4.4,5.7-6.7c1.5-1.9,2.8-4,4.2-6.1c-3.9-4.7-7.5-9.2-11.1-13.6c-3.6-4.3-5.8-9.1-6.3-14.7c2.2-1.6,4-1.3,4.7,1.2
				c1.8,6.9,6.4,12.1,10.5,17.6c3.3,4.4,5.2,5,10,2.1c3.4-2,6.7-3.4,10.7-2.6c2.2,0.5,4.1,1.3,5,3.7c-2,6.5-9.4,4.5-13.6,8.5
				c2.7,2.8,5.3,5.7,8.2,8.2c1.5,1.3,3.6,1.6,5.6,0.6c1-0.5,2.1-1.2,3.2-1.2c4.8,0,8.9-1.4,12.4-4.9c2-1.9,7.2-0.8,9,1.4
				c1.4,1.7,1,3.3-0.1,4.9c-3.6,5.1-8.5,7.7-14.6,7.9c-2.4,0.1-4.9-0.2-7.7-0.4c0.8,3.6,2.7,6.3,5.6,7.7c2.5,1.3,3.8,2.9,4.5,5.4
				c0.4,1.2,1.2,2.3,1.7,3.6c0.7,1.9,2.1,2.3,4,2.1c2-0.2,3.9-0.4,5.9-0.7c3.3-0.5,6.4-1.4,8.6-4.3c1.1-1.4,2.5-2.7,4-3.6
				c1.7-1,3.6-1.8,5.4-2c4.9-0.3,7.9,3.9,5.5,8.2c-1.4,2.5-3.6,4.6-5.7,6.6c-1.7,1.5-3.8,2.6-5.8,3.7c-4.6,2.3-9.2,4.7-14.6,2.7
				c-0.4-0.2-1,0-1.4,0.1c-0.1,0-0.3,0.2-0.7,0.5c0.2,2.5,0.7,4.6,3.8,5.8c2,0.8,3.9,2.7,5,4.5c1.5,2.4,3.4,2.8,5.8,2.9
				c3,0.1,5.9,0.4,8.9,0.1c4.4-0.5,7.6,1.8,10.8,3.9c3,1.9,4.7,7.9,3.5,11.1c-1,2.7-6.7,5.8-10.1,4.8c-4.4-1.3-8.6-3.1-12.8-4.9
				C846-521.3,844.5-522.4,842.9-523.3z"/>
			<path fill="#A9D4CC" d="M752-300.3c-0.7,0.1-1,0.1-1,0.2c-3.3,5.8-6.6,11.7-10,17.4c-2.6,4.4-1.5,8.5,1.1,12.4
				c2,3,3.7,6.2,5.8,9.1c2.2,3.1,2.7,6.7,3.5,10.2c0.2,1.1,0.1,2.3-0.1,3.4c-0.8,3.6-3,4.9-6.5,3.8c-3.6-1.2-6.4-3.3-7.6-7.1
				c-1.3-4.2-2.6-8.5-4-12.7c-0.5-1.4-1.1-2.6-2-4.6c-2.7,2.4-5.1,4.5-7.4,6.7c-3.9,3.7-7.7,7.6-11.6,11.4c-0.6,0.6-1.3,1-2.1,1.3
				c-7.3,3.3-14.6,6.6-22,9.8c-3.1,1.3-6.3,1.5-9.4-0.7c-1.3-0.9-3.3-1.1-3.2-3.2c0.1-2.5,0.5-5.1,3.1-6.3c4.5-2,9-3.9,13.7-5.5
				c4.3-1.5,8.8-2.5,13.2-3.7c7.5-2.1,13.3-6.9,18.6-12.3c0.4-0.4,0.6-1.1,1.2-2.5c-3.4,0.9-6.1,1.6-8.8,2.3c-8.2,2.2-16.5,3-24.9,2
				c-2.4-0.3-4.8-2-6.8-3.6c-1.7-1.3-0.8-3.2,0.9-4c3.2-1.6,6.6-2.9,10-4.2c10.6-4.3,21.8-5,33-4.8c6.9,0.1,11.2-2.2,14-8.3
				c1-2.2,2.8-4,2.7-7.1c-4,1.9-7.9,3.6-11.6,5.6c-7.4,3.9-15.1,2.2-22.7,1c-1.2-0.2-2.4-1.7-3.1-2.9c-1.2-2.1-2.1-4.5-2.9-6.8
				c-0.8-2.1,0.1-3.8,1.7-5.3c2.5-2.4,5.7-3.5,9-3.3c3.9,0.2,7.9,0.6,11.6,1.8c8.2,2.7,15.9,1.8,23.3-2.3c1.2-0.7,2.4-1.8,3-3
				c1.7-3.3,3.1-6.8,4.9-11c-2.4,0.7-4.2,1-5.9,1.8c-4,1.8-8.3,1.8-12.5,1.9c-3,0.1-5.4-1-7.5-3c-4-3.8-3.2-10,1.9-12.1
				c4.2-1.8,8.7-3.2,13.4-2.3c3.8,0.7,7.9-0.4,11.4,2.3c0.4,0.3,2.5-0.4,2.8-1.1c1.8-5.2,4-10.4,3.9-16.5c-3.8,1.6-7.1,3-10.4,4.3
				c-6.2,2.5-12.4,2.9-18.8,0.8c-5-1.7-6.3-4.1-6.1-8.3c0.1-3.6,4.2-6.8,8.5-6.5c5.9,0.4,11.7,1.4,17.6,1.7c3,0.2,6.1-0.6,9.1-1
				c1.5-5.4,3.8-10.1,2.1-15.4c-4.6,0.8-9,1.7-13.5,2.3c-4.2,0.5-5.1-0.2-6.6-4.2c-1.2-3.3-0.2-5.4,3.4-6c2.9-0.5,5.9-0.4,8.8-0.7
				c2.4-0.3,4.8-0.9,7.3-1.3c0.6-6.1,1.2-11.8,1.7-17.5c0.5-5.5,2.3-10.5,5.9-14.8c2.7,0.4,3.8,1.9,2.4,4.1
				c-3.6,6.2-4.1,13.1-5,19.9c-0.7,5.4,0.2,7.2,5.5,8.6c3.8,1,7.2,2.3,9.4,5.8c1.2,1.9,2,3.8,0.9,6.2c-6,3.2-9.8-3.5-15.7-3.6
				c0,3.9-0.3,7.8,0,11.6c0.1,2,1.4,3.6,3.5,4.4c1.1,0.4,2.3,0.7,3.1,1.4c3.4,3.4,7.3,5.3,12.2,5.4c2.8,0,5.6,4.5,5.4,7.4
				c-0.2,2.2-1.6,3-3.6,3.4c-6.1,1.1-11.4-0.6-15.9-4.8c-1.8-1.7-3.3-3.6-5.2-5.7c-1.9,3.1-2.5,6.4-1.5,9.4c0.8,2.6,0.6,4.7-0.6,7
				c-0.6,1.1-0.8,2.5-1.3,3.7c-0.8,1.9-0.1,3.2,1.3,4.3c1.6,1.2,3,2.5,4.6,3.7c2.7,1.9,5.5,3.5,9.1,3c1.8-0.3,3.7-0.1,5.4,0.3
				c1.8,0.5,3.8,1.2,5.2,2.5c3.7,3.3,2.8,8.3-1.9,9.7c-2.7,0.8-5.8,0.8-8.7,0.6c-2.3-0.1-4.5-0.8-6.7-1.5c-4.9-1.6-9.8-3.2-12.2-8.4
				c-0.2-0.4-0.7-0.6-1.1-0.9c-0.1-0.1-0.3-0.1-0.8-0.1c-1.6,1.9-2.8,3.7-1.4,6.7c0.9,1.9,0.8,4.6,0.3,6.7c-0.7,2.7,0.4,4.4,2,6.1
				c2,2.1,3.9,4.5,6.2,6.3c3.4,2.7,4.1,6.6,4.9,10.4c0.8,3.5-2.2,8.9-5.4,10.3c-2.6,1.2-8.8-0.7-10.5-3.7c-2.2-4-3.9-8.3-5.6-12.5
				C752.8-296.7,752.5-298.6,752-300.3z"/>
			<path fill="#A9D4CC" d="M944-580.6c0.7-0.1,1-0.1,1-0.2c3.3-5.8,6.6-11.7,10-17.4c2.6-4.4,1.5-8.5-1.1-12.4c-2-3-3.7-6.2-5.8-9.1
				c-2.2-3.1-2.7-6.7-3.5-10.2c-0.2-1.1-0.1-2.3,0.1-3.4c0.8-3.6,3-4.9,6.5-3.8c3.6,1.2,6.4,3.3,7.6,7.1c1.3,4.2,2.6,8.5,4,12.7
				c0.5,1.4,1.1,2.6,2,4.6c2.7-2.4,5.1-4.5,7.4-6.7c3.9-3.7,7.7-7.6,11.6-11.4c0.6-0.6,1.3-1,2.1-1.3c7.3-3.3,14.6-6.6,22-9.8
				c3.1-1.3,6.3-1.5,9.4,0.7c1.3,0.9,3.3,1.1,3.2,3.2c-0.1,2.5-0.5,5.1-3.1,6.3c-4.5,2-9,3.9-13.7,5.5c-4.3,1.5-8.8,2.5-13.2,3.7
				c-7.5,2.1-13.3,6.9-18.6,12.3c-0.4,0.4-0.6,1.1-1.2,2.5c3.4-0.9,6.1-1.6,8.8-2.3c8.2-2.2,16.5-3,24.9-2c2.4,0.3,4.8,2,6.8,3.6
				c1.7,1.3,0.8,3.2-0.9,4c-3.2,1.6-6.6,2.9-10,4.2c-10.6,4.3-21.8,5-33,4.8c-6.9-0.1-11.2,2.2-14,8.3c-1,2.2-2.8,4-2.7,7.1
				c4-1.9,7.9-3.6,11.6-5.6c7.4-3.9,15.1-2.2,22.7-1c1.2,0.2,2.4,1.7,3.1,2.9c1.2,2.1,2.1,4.5,2.9,6.8c0.8,2.1-0.1,3.8-1.7,5.3
				c-2.5,2.4-5.7,3.5-9,3.3c-3.9-0.2-7.9-0.6-11.6-1.8c-8.2-2.7-15.9-1.8-23.3,2.3c-1.2,0.7-2.4,1.8-3,3c-1.7,3.3-3.1,6.8-4.9,11
				c2.4-0.7,4.2-1,5.9-1.8c4-1.8,8.3-1.8,12.5-1.9c3-0.1,5.4,1,7.5,3c4,3.8,3.2,10-1.9,12.1c-4.2,1.8-8.7,3.2-13.4,2.3
				c-3.8-0.7-7.9,0.4-11.4-2.3c-0.4-0.3-2.5,0.4-2.8,1.1c-1.8,5.2-4,10.4-3.9,16.5c3.8-1.6,7.1-3,10.4-4.3
				c6.2-2.5,12.4-2.9,18.8-0.8c5,1.7,6.3,4.1,6.1,8.3c-0.1,3.6-4.2,6.8-8.5,6.5c-5.9-0.4-11.7-1.4-17.6-1.7c-3-0.2-6.1,0.6-9.1,1
				c-1.5,5.4-3.8,10.1-2.1,15.4c4.6-0.8,9-1.7,13.5-2.3c4.2-0.5,5.1,0.2,6.6,4.2c1.2,3.3,0.2,5.4-3.4,6c-2.9,0.5-5.9,0.4-8.8,0.7
				c-2.4,0.3-4.8,0.9-7.3,1.3c-0.6,6.1-1.2,11.8-1.7,17.5c-0.5,5.5-2.3,10.5-5.9,14.8c-2.7-0.4-3.8-1.9-2.4-4.1
				c3.6-6.2,4.1-13.1,5-19.9c0.7-5.4-0.2-7.2-5.5-8.6c-3.8-1-7.2-2.3-9.4-5.8c-1.2-1.9-2-3.8-0.9-6.2c6-3.2,9.8,3.5,15.7,3.6
				c0-3.9,0.3-7.8,0-11.6c-0.1-2-1.4-3.6-3.5-4.4c-1.1-0.4-2.3-0.7-3.1-1.4c-3.4-3.4-7.3-5.3-12.2-5.4c-2.8,0-5.6-4.5-5.4-7.4
				c0.2-2.2,1.6-3,3.6-3.4c6.1-1.1,11.4,0.6,15.9,4.8c1.8,1.7,3.3,3.6,5.2,5.7c1.9-3.1,2.5-6.4,1.5-9.4c-0.8-2.6-0.6-4.7,0.6-7
				c0.6-1.1,0.8-2.5,1.3-3.7c0.8-1.9,0.1-3.2-1.3-4.3c-1.6-1.2-3-2.5-4.6-3.7c-2.7-1.9-5.5-3.5-9.1-3c-1.8,0.3-3.7,0.1-5.4-0.3
				c-1.8-0.5-3.8-1.2-5.2-2.5c-3.7-3.3-2.8-8.3,1.9-9.7c2.7-0.8,5.8-0.8,8.7-0.6c2.3,0.1,4.5,0.8,6.7,1.5c4.9,1.6,9.8,3.2,12.2,8.4
				c0.2,0.4,0.7,0.6,1.1,0.9c0.1,0.1,0.3,0.1,0.8,0.1c1.6-1.9,2.8-3.7,1.4-6.7c-0.9-1.9-0.8-4.6-0.3-6.7c0.7-2.7-0.4-4.4-2-6.1
				c-2-2.1-3.9-4.5-6.2-6.3c-3.4-2.7-4.1-6.6-4.9-10.4c-0.8-3.5,2.2-8.9,5.4-10.3c2.6-1.2,8.8,0.7,10.5,3.7c2.2,4,3.9,8.3,5.6,12.5
				C943.2-584.3,943.6-582.4,944-580.6z"/>
			<path fill="#A9D4CC" d="M689.4-120.1c0.4-0.6,0.6-0.8,0.6-0.9c-1.7-6.5-3.6-12.9-5.2-19.4c-1.3-5-4.9-7-9.5-8
				c-3.5-0.8-7-1.8-10.6-2.4c-3.7-0.6-6.6-2.8-9.7-4.7c-0.9-0.6-1.7-1.5-2.3-2.5c-2-3.1-1.4-5.6,1.9-7.3c3.4-1.7,6.9-2.2,10.4-0.3
				c3.9,2.1,7.8,4.1,11.8,6.1c1.3,0.6,2.7,1.1,4.7,1.8c0.2-3.6,0.4-6.8,0.5-10c0.1-5.4,0.1-10.8,0.2-16.2c0-0.8,0.2-1.6,0.5-2.4
				c2.8-7.5,5.6-15,8.6-22.4c1.3-3.1,3.4-5.5,7.1-6.2c1.6-0.3,3.1-1.5,4.5,0c1.7,1.8,3.3,4,2.3,6.6c-1.8,4.6-3.6,9.1-5.8,13.6
				c-2,4.1-4.5,8-6.7,12c-3.9,6.8-4.6,14.3-4.5,21.9c0,0.6,0.4,1.2,0.9,2.6c1.7-3,3.2-5.4,4.6-7.9c4.2-7.4,9.5-13.8,16.2-19
				c1.9-1.5,4.8-2,7.3-2.3c2.1-0.2,2.8,1.7,2.2,3.5c-1.2,3.4-2.6,6.7-4,10c-4.5,10.5-11.9,19-19.9,26.7c-4.9,4.8-6.4,9.5-4,15.8
				c0.8,2.3,0.8,4.8,3.1,6.9c1.5-4.2,3-8.1,4.2-12.2c2.5-8,9.1-12.2,15.3-16.7c1-0.7,2.9-0.5,4.3-0.2c2.4,0.6,4.6,1.7,6.9,2.7
				c2.1,0.9,2.6,2.8,2.6,4.9c-0.1,3.5-1.6,6.5-4.1,8.7c-2.9,2.6-6,5.2-9.5,7c-7.7,3.9-12.5,9.9-14.8,18.1c-0.4,1.3-0.4,3,0,4.3
				c1.2,3.6,2.7,7,4.3,11.2c1.2-2.2,2.3-3.7,2.9-5.4c1.5-4.1,4.6-7.1,7.5-10.2c2.1-2.2,4.5-3.1,7.5-3.2c5.5-0.1,9.3,4.8,7.2,10
				c-1.7,4.2-3.8,8.4-7.9,11.1c-3.2,2.2-5.3,5.9-9.7,6.4c-0.5,0.1-1.5,2.1-1.2,2.7c2.4,5,4.5,10.1,8.9,14.4
				c1.6-3.8,2.9-7.1,4.3-10.4c2.6-6.1,6.7-10.8,12.7-13.8c4.7-2.4,7.3-1.6,10.2,1.5c2.5,2.7,1.8,7.8-1.4,10.6
				c-4.4,3.9-9.3,7.3-13.7,11.2c-2.2,2-3.8,4.7-5.7,7.1c2.8,4.9,4.4,9.8,9.4,12.4c2.7-3.8,5.2-7.6,7.9-11.1c2.6-3.4,3.8-3.5,7.6-1.7
				c3.2,1.5,4,3.7,1.8,6.6c-1.7,2.4-3.9,4.4-5.7,6.7c-1.5,1.9-2.8,4-4.2,6.1c3.9,4.7,7.5,9.2,11.1,13.6c3.6,4.3,5.8,9.1,6.3,14.7
				c-2.2,1.6-4,1.3-4.7-1.2c-1.8-6.9-6.4-12.1-10.5-17.6c-3.3-4.4-5.2-5-10-2.1c-3.4,2-6.7,3.4-10.7,2.6c-2.2-0.5-4.1-1.3-5-3.7
				c2-6.5,9.4-4.5,13.6-8.5c-2.7-2.8-5.3-5.7-8.2-8.2c-1.5-1.3-3.6-1.6-5.6-0.6c-1,0.5-2.1,1.2-3.2,1.2c-4.8,0-8.9,1.4-12.4,4.9
				c-2,1.9-7.2,0.8-9-1.4c-1.4-1.7-1-3.3,0.1-4.9c3.6-5.1,8.5-7.7,14.6-7.9c2.4-0.1,4.9,0.2,7.7,0.4c-0.8-3.6-2.7-6.3-5.6-7.7
				c-2.5-1.3-3.8-2.9-4.5-5.4c-0.4-1.2-1.2-2.3-1.7-3.6c-0.7-1.9-2.1-2.3-4-2.1c-2,0.2-3.9,0.4-5.9,0.7c-3.3,0.5-6.4,1.4-8.6,4.3
				c-1.1,1.4-2.5,2.7-4,3.6c-1.7,1-3.6,1.8-5.4,2c-4.9,0.3-7.9-3.9-5.5-8.2c1.4-2.5,3.6-4.6,5.7-6.6c1.7-1.5,3.8-2.6,5.8-3.7
				c4.6-2.3,9.2-4.7,14.6-2.7c0.4,0.2,1,0,1.4-0.1c0.1,0,0.3-0.2,0.7-0.5c-0.2-2.5-0.7-4.6-3.8-5.8c-2-0.8-3.9-2.7-5-4.5
				c-1.5-2.4-3.4-2.8-5.8-2.9c-3-0.1-5.9-0.4-8.9-0.1c-4.4,0.5-7.6-1.8-10.8-3.9c-3-1.9-4.7-7.9-3.5-11.1c1-2.7,6.7-5.8,10.1-4.8
				c4.4,1.3,8.6,3.1,12.8,4.9C686.2-122.2,687.8-121,689.4-120.1z"/>
			<path fill="#A9D4CC" d="M533.5-122.2c0.7-0.1,1-0.1,1-0.2c3.3-5.8,6.6-11.7,10-17.4c2.6-4.4,1.5-8.5-1.1-12.4
				c-2-3-3.7-6.2-5.8-9.1c-2.2-3.1-2.7-6.7-3.5-10.2c-0.2-1.1-0.1-2.3,0.1-3.4c0.8-3.6,3-4.9,6.5-3.8c3.6,1.2,6.4,3.3,7.6,7.1
				c1.3,4.2,2.6,8.5,4,12.7c0.5,1.4,1.1,2.6,2,4.6c2.7-2.4,5.1-4.5,7.4-6.7c3.9-3.7,7.7-7.6,11.6-11.4c0.6-0.6,1.3-1,2.1-1.3
				c7.3-3.3,14.6-6.6,22-9.8c3.1-1.3,6.3-1.5,9.4,0.7c1.3,0.9,3.3,1.1,3.2,3.2c-0.1,2.5-0.5,5.1-3.1,6.3c-4.5,2-9,3.9-13.7,5.5
				c-4.3,1.5-8.8,2.5-13.2,3.7c-7.5,2.1-13.3,6.9-18.6,12.3c-0.4,0.4-0.6,1.1-1.2,2.5c3.4-0.9,6.1-1.6,8.8-2.3
				c8.2-2.2,16.5-3,24.9-2c2.4,0.3,4.8,2,6.8,3.6c1.7,1.3,0.8,3.2-0.9,4c-3.2,1.6-6.6,2.9-10,4.2c-10.6,4.3-21.8,5-33,4.8
				c-6.9-0.1-11.2,2.2-14,8.3c-1,2.2-2.8,4-2.7,7.1c4-1.9,7.9-3.6,11.6-5.6c7.4-3.9,15.1-2.2,22.7-1c1.2,0.2,2.4,1.7,3.1,2.9
				c1.2,2.1,2.1,4.5,2.9,6.8c0.8,2.1-0.1,3.8-1.7,5.3c-2.5,2.4-5.7,3.5-9,3.3c-3.9-0.2-7.9-0.6-11.6-1.8c-8.2-2.7-15.9-1.8-23.3,2.3
				c-1.2,0.7-2.4,1.8-3,3c-1.7,3.3-3.1,6.8-4.9,11c2.4-0.7,4.2-1,5.9-1.8c4-1.8,8.3-1.8,12.5-1.9c3-0.1,5.4,1,7.5,3
				c4,3.8,3.2,10-1.9,12.1c-4.2,1.8-8.7,3.2-13.4,2.3c-3.8-0.7-7.9,0.4-11.4-2.3c-0.4-0.3-2.5,0.4-2.8,1.1c-1.8,5.2-4,10.4-3.9,16.5
				c3.8-1.6,7.1-3,10.4-4.3c6.2-2.5,12.4-2.9,18.8-0.8c5,1.7,6.3,4.1,6.1,8.3c-0.1,3.6-4.2,6.8-8.5,6.5c-5.9-0.4-11.7-1.4-17.6-1.7
				c-3-0.2-6.1,0.6-9.1,1c-1.5,5.4-3.8,10.1-2.1,15.4c4.6-0.8,9-1.7,13.5-2.3c4.2-0.5,5.1,0.2,6.6,4.2c1.2,3.3,0.2,5.4-3.4,6
				c-2.9,0.5-5.9,0.4-8.8,0.7c-2.4,0.3-4.8,0.9-7.3,1.3c-0.6,6.1-1.2,11.8-1.7,17.5C515.9-9.3,514-4.3,510.4,0
				c-2.7-0.4-3.8-1.9-2.4-4.1c3.6-6.2,4.1-13.1,5-19.9c0.7-5.4-0.2-7.2-5.5-8.6c-3.8-1-7.2-2.3-9.4-5.8c-1.2-1.9-2-3.8-0.9-6.2
				c6-3.2,9.8,3.5,15.7,3.6c0-3.9,0.3-7.8,0-11.6c-0.1-2-1.4-3.6-3.5-4.4c-1.1-0.4-2.3-0.7-3.1-1.4c-3.4-3.4-7.3-5.3-12.2-5.4
				c-2.8,0-5.6-4.5-5.4-7.4c0.2-2.2,1.6-3,3.6-3.4c6.1-1.1,11.4,0.6,15.9,4.8c1.8,1.7,3.3,3.6,5.2,5.7c1.9-3.1,2.5-6.4,1.5-9.4
				c-0.8-2.6-0.6-4.7,0.6-7c0.6-1.1,0.8-2.5,1.3-3.7c0.8-1.9,0.1-3.2-1.3-4.3c-1.6-1.2-3-2.5-4.6-3.7c-2.7-1.9-5.5-3.5-9.1-3
				c-1.8,0.3-3.7,0.1-5.4-0.3c-1.8-0.5-3.8-1.2-5.2-2.5c-3.7-3.3-2.8-8.3,1.9-9.7c2.7-0.8,5.8-0.8,8.7-0.6c2.3,0.1,4.5,0.8,6.7,1.5
				c4.9,1.6,9.8,3.2,12.2,8.4c0.2,0.4,0.7,0.6,1.1,0.9c0.1,0.1,0.3,0.1,0.8,0.1c1.6-1.9,2.8-3.7,1.4-6.7c-0.9-1.9-0.8-4.6-0.3-6.7
				c0.7-2.7-0.4-4.4-2-6.1c-2-2.1-3.9-4.5-6.2-6.3c-3.4-2.7-4.1-6.6-4.9-10.4c-0.8-3.5,2.2-8.9,5.4-10.3c2.6-1.2,8.8,0.7,10.5,3.7
				c2.2,4,3.9,8.3,5.6,12.5C532.7-125.9,533-124,533.5-122.2z"/>
			<path fill="#A9D4CC" d="M843-98c-0.4,0.6-0.6,0.8-0.6,0.9c1.7,6.5,3.6,12.9,5.2,19.4c1.3,5,4.9,7,9.5,8c3.5,0.8,7,1.8,10.6,2.4
				c3.7,0.6,6.6,2.8,9.7,4.7c0.9,0.6,1.7,1.5,2.3,2.5c2,3.1,1.4,5.6-1.9,7.3c-3.4,1.7-6.9,2.2-10.4,0.3c-3.9-2.1-7.8-4.1-11.8-6.1
				c-1.3-0.6-2.7-1.1-4.7-1.8c-0.2,3.6-0.4,6.8-0.5,10c-0.1,5.4-0.1,10.8-0.2,16.2c0,0.8-0.2,1.6-0.5,2.4c-2.8,7.5-5.6,15-8.6,22.4
				c-1.3,3.1-3.4,5.5-7.1,6.2c-1.6,0.3-3.1,1.5-4.5,0c-1.7-1.8-3.3-4-2.3-6.6c1.8-4.6,3.6-9.1,5.8-13.6c2-4.1,4.5-8,6.7-12
				c3.9-6.8,4.6-14.3,4.5-21.9c0-0.6-0.4-1.2-0.9-2.6c-1.7,3-3.2,5.4-4.6,7.9c-4.2,7.4-9.5,13.8-16.2,19c-1.9,1.5-4.8,2-7.3,2.3
				c-2.1,0.2-2.8-1.7-2.2-3.5c1.2-3.4,2.6-6.7,4-10c4.5-10.5,11.9-19,19.9-26.7c4.9-4.8,6.4-9.5,4-15.8c-0.8-2.3-0.8-4.8-3.1-6.9
				c-1.5,4.2-3,8.1-4.2,12.2c-2.5,8-9.1,12.2-15.3,16.7c-1,0.7-2.9,0.5-4.3,0.2c-2.4-0.6-4.6-1.7-6.9-2.7c-2.1-0.9-2.6-2.8-2.6-4.9
				c0.1-3.5,1.6-6.5,4.1-8.7c2.9-2.6,6-5.2,9.5-7c7.7-3.9,12.5-9.9,14.8-18.1c0.4-1.3,0.4-3,0-4.3c-1.2-3.6-2.7-7-4.3-11.2
				c-1.2,2.2-2.3,3.7-2.9,5.4c-1.5,4.1-4.6,7.1-7.5,10.2c-2.1,2.2-4.5,3.1-7.5,3.2c-5.5,0.1-9.3-4.8-7.2-10
				c1.7-4.2,3.8-8.4,7.9-11.1c3.2-2.2,5.3-5.9,9.7-6.4c0.5-0.1,1.5-2.1,1.2-2.7c-2.4-5-4.5-10.1-8.9-14.4c-1.6,3.8-2.9,7.1-4.3,10.4
				c-2.6,6.1-6.7,10.8-12.7,13.8c-4.7,2.4-7.3,1.6-10.2-1.5c-2.5-2.7-1.8-7.8,1.4-10.6c4.4-3.9,9.3-7.3,13.7-11.2
				c2.2-2,3.8-4.7,5.7-7.1c-2.8-4.9-4.4-9.8-9.4-12.4c-2.7,3.8-5.2,7.6-7.9,11.1c-2.6,3.4-3.8,3.5-7.6,1.7c-3.2-1.5-4-3.7-1.8-6.6
				c1.7-2.4,3.9-4.4,5.7-6.7c1.5-1.9,2.8-4,4.2-6.1c-3.9-4.7-7.5-9.2-11.1-13.6c-3.6-4.3-5.8-9.1-6.3-14.7c2.2-1.6,4-1.3,4.7,1.2
				c1.8,6.9,6.4,12.1,10.5,17.6c3.3,4.4,5.2,5,10,2.1c3.4-2,6.7-3.4,10.7-2.6c2.2,0.5,4.1,1.3,5,3.7c-2,6.5-9.4,4.5-13.6,8.5
				c2.7,2.8,5.3,5.7,8.2,8.2c1.5,1.3,3.6,1.6,5.6,0.6c1-0.5,2.1-1.2,3.2-1.2c4.8,0,8.9-1.4,12.4-4.9c2-1.9,7.2-0.8,9,1.4
				c1.4,1.7,1,3.3-0.1,4.9c-3.6,5.1-8.5,7.7-14.6,7.9c-2.4,0.1-4.9-0.2-7.7-0.4c0.8,3.6,2.7,6.3,5.6,7.7c2.5,1.3,3.8,2.9,4.5,5.4
				c0.4,1.2,1.2,2.3,1.7,3.6c0.7,1.9,2.1,2.3,4,2.1c2-0.2,3.9-0.4,5.9-0.7c3.3-0.5,6.4-1.4,8.6-4.3c1.1-1.4,2.5-2.7,4-3.6
				c1.7-1,3.6-1.8,5.4-2c4.9-0.3,7.9,3.9,5.5,8.2c-1.4,2.5-3.6,4.6-5.7,6.6c-1.7,1.5-3.8,2.6-5.8,3.7c-4.6,2.3-9.2,4.7-14.6,2.7
				c-0.4-0.2-1,0-1.4,0.1c-0.1,0-0.3,0.2-0.7,0.5c0.2,2.5,0.7,4.6,3.8,5.8c2,0.8,3.9,2.7,5,4.5c1.5,2.4,3.4,2.8,5.8,2.9
				c3,0.1,5.9,0.4,8.9,0.1c4.4-0.5,7.6,1.8,10.8,3.9c3,1.9,4.7,7.9,3.5,11.1c-1,2.7-6.7,5.8-10.1,4.8c-4.4-1.3-8.6-3.1-12.8-4.9
				C846.1-96,844.6-97.1,843-98z"/>
			<path fill="#A9D4CC" d="M944.1-155.3c0.7-0.1,1-0.1,1-0.2c3.3-5.8,6.6-11.7,10-17.4c2.6-4.4,1.5-8.5-1.1-12.4
				c-2-3-3.7-6.2-5.8-9.1c-2.2-3.1-2.7-6.7-3.5-10.2c-0.2-1.1-0.1-2.3,0.1-3.4c0.8-3.6,3-4.9,6.5-3.8c3.6,1.2,6.4,3.3,7.6,7.1
				c1.3,4.2,2.6,8.5,4,12.7c0.5,1.4,1.1,2.6,2,4.6c2.7-2.4,5.1-4.5,7.4-6.7c3.9-3.7,7.7-7.6,11.6-11.4c0.6-0.6,1.3-1,2.1-1.3
				c7.3-3.3,14.6-6.6,22-9.8c3.1-1.3,6.3-1.5,9.4,0.7c1.3,0.9,3.3,1.1,3.2,3.2c-0.1,2.5-0.5,5.1-3.1,6.3c-4.5,2-9,3.9-13.7,5.5
				c-4.3,1.5-8.8,2.5-13.2,3.7c-7.5,2.1-13.3,6.9-18.6,12.3c-0.4,0.4-0.6,1.1-1.2,2.5c3.4-0.9,6.1-1.6,8.8-2.3
				c8.2-2.2,16.5-3,24.9-2c2.4,0.3,4.8,2,6.8,3.6c1.7,1.3,0.8,3.2-0.9,4c-3.2,1.6-6.6,2.9-10,4.2c-10.6,4.3-21.8,5-33,4.8
				c-6.9-0.1-11.2,2.2-14,8.3c-1,2.2-2.8,4-2.7,7.1c4-1.9,7.9-3.6,11.6-5.6c7.4-3.9,15.1-2.2,22.7-1c1.2,0.2,2.4,1.7,3.1,2.9
				c1.2,2.1,2.1,4.5,2.9,6.8c0.8,2.1-0.1,3.8-1.7,5.3c-2.5,2.4-5.7,3.5-9,3.3c-3.9-0.2-7.9-0.6-11.6-1.8c-8.2-2.7-15.9-1.8-23.3,2.3
				c-1.2,0.7-2.4,1.8-3,3c-1.7,3.3-3.1,6.8-4.9,11c2.4-0.7,4.2-1,5.9-1.8c4-1.8,8.3-1.8,12.5-1.9c3-0.1,5.4,1,7.5,3
				c4,3.8,3.2,10-1.9,12.1c-4.2,1.8-8.7,3.2-13.4,2.3c-3.8-0.7-7.9,0.4-11.4-2.3c-0.4-0.3-2.5,0.4-2.8,1.1c-1.8,5.2-4,10.4-3.9,16.5
				c3.8-1.6,7.1-3,10.4-4.3c6.2-2.5,12.4-2.9,18.8-0.8c5,1.7,6.3,4.1,6.1,8.3c-0.1,3.6-4.2,6.8-8.5,6.5c-5.9-0.4-11.7-1.4-17.6-1.7
				c-3-0.2-6.1,0.6-9.1,1c-1.5,5.4-3.8,10.1-2.1,15.4c4.6-0.8,9-1.7,13.5-2.3c4.2-0.5,5.1,0.2,6.6,4.2c1.2,3.3,0.2,5.4-3.4,6
				c-2.9,0.5-5.9,0.4-8.8,0.7c-2.4,0.3-4.8,0.9-7.3,1.3c-0.6,6.1-1.2,11.8-1.7,17.5c-0.5,5.5-2.3,10.5-5.9,14.8
				c-2.7-0.4-3.8-1.9-2.4-4.1c3.6-6.2,4.1-13.1,5-19.9c0.7-5.4-0.2-7.2-5.5-8.6c-3.8-1-7.2-2.3-9.4-5.8c-1.2-1.9-2-3.8-0.9-6.2
				c6-3.2,9.8,3.5,15.7,3.6c0-3.9,0.3-7.8,0-11.6c-0.1-2-1.4-3.6-3.5-4.4c-1.1-0.4-2.3-0.7-3.1-1.4c-3.4-3.4-7.3-5.3-12.2-5.4
				c-2.8,0-5.6-4.5-5.4-7.4c0.2-2.2,1.6-3,3.6-3.4c6.1-1.1,11.4,0.6,15.9,4.8c1.8,1.7,3.3,3.6,5.2,5.7c1.9-3.1,2.5-6.4,1.5-9.4
				c-0.8-2.6-0.6-4.7,0.6-7c0.6-1.1,0.8-2.5,1.3-3.7c0.8-1.9,0.1-3.2-1.3-4.3c-1.6-1.2-3-2.5-4.6-3.7c-2.7-1.9-5.5-3.5-9.1-3
				c-1.8,0.3-3.7,0.1-5.4-0.3c-1.8-0.5-3.8-1.2-5.2-2.5c-3.7-3.3-2.8-8.3,1.9-9.7c2.7-0.8,5.8-0.8,8.7-0.6c2.3,0.1,4.5,0.8,6.7,1.5
				c4.9,1.6,9.8,3.2,12.2,8.4c0.2,0.4,0.7,0.6,1.1,0.9c0.1,0.1,0.3,0.1,0.8,0.1c1.6-1.9,2.8-3.7,1.4-6.7c-0.9-1.9-0.8-4.6-0.3-6.7
				c0.7-2.7-0.4-4.4-2-6.1c-2-2.1-3.9-4.5-6.2-6.3c-3.4-2.7-4.1-6.6-4.9-10.4c-0.8-3.5,2.2-8.9,5.4-10.3c2.6-1.2,8.8,0.7,10.5,3.7
				c2.2,4,3.9,8.3,5.6,12.5C943.3-159,943.7-157.1,944.1-155.3z"/>
			<path fill="#A9D4CC" d="M1041.3-291.4c-0.7,0.1-1,0.1-1,0.2c-3.3,5.8-6.6,11.7-10,17.4c-2.6,4.4-1.5,8.5,1.1,12.4
				c2,3,3.7,6.2,5.8,9.1c2.2,3.1,2.7,6.7,3.5,10.2c0.2,1.1,0.1,2.3-0.1,3.4c-0.8,3.6-3,4.9-6.5,3.8c-3.6-1.2-6.4-3.3-7.6-7.1
				c-1.3-4.2-2.6-8.5-4-12.7c-0.5-1.4-1.1-2.6-2-4.6c-2.7,2.4-5.1,4.5-7.4,6.7c-3.9,3.7-7.7,7.6-11.6,11.4c-0.6,0.6-1.3,1-2.1,1.3
				c-7.3,3.3-14.6,6.6-22,9.8c-3.1,1.3-6.3,1.5-9.4-0.7c-1.3-0.9-3.3-1.1-3.2-3.2c0.1-2.5,0.5-5.1,3.1-6.3c4.5-2,9-3.9,13.7-5.5
				c4.3-1.5,8.8-2.5,13.2-3.7c7.5-2.1,13.3-6.9,18.6-12.3c0.4-0.4,0.6-1.1,1.2-2.5c-3.4,0.9-6.1,1.6-8.8,2.3c-8.2,2.2-16.5,3-24.9,2
				c-2.4-0.3-4.8-2-6.8-3.6c-1.7-1.3-0.8-3.2,0.9-4c3.2-1.6,6.6-2.9,10-4.2c10.6-4.3,21.8-5,33-4.8c6.9,0.1,11.2-2.2,14-8.3
				c1-2.2,2.8-4,2.7-7.1c-4,1.9-7.9,3.6-11.6,5.6c-7.4,3.9-15.1,2.2-22.7,1c-1.2-0.2-2.4-1.7-3.1-2.9c-1.2-2.1-2.1-4.5-2.9-6.8
				c-0.8-2.1,0.1-3.8,1.7-5.3c2.5-2.4,5.7-3.5,9-3.3c3.9,0.2,7.9,0.6,11.6,1.8c8.2,2.7,15.9,1.8,23.3-2.3c1.2-0.7,2.4-1.8,3-3
				c1.7-3.3,3.1-6.8,4.9-11c-2.4,0.7-4.2,1-5.9,1.8c-4,1.8-8.3,1.8-12.5,1.9c-3,0.1-5.4-1-7.5-3c-4-3.8-3.2-10,1.9-12.1
				c4.2-1.8,8.7-3.2,13.4-2.3c3.8,0.7,7.9-0.4,11.4,2.3c0.4,0.3,2.5-0.4,2.8-1.1c1.8-5.2,4-10.4,3.9-16.5c-3.8,1.6-7.1,3-10.4,4.3
				c-6.2,2.5-12.4,2.9-18.8,0.8c-5-1.7-6.3-4.1-6.1-8.3c0.1-3.6,4.2-6.8,8.5-6.5c5.9,0.4,11.7,1.4,17.6,1.7c3,0.2,6.1-0.6,9.1-1
				c1.5-5.4,3.8-10.1,2.1-15.4c-4.6,0.8-9,1.7-13.5,2.3c-4.2,0.5-5.1-0.2-6.6-4.2c-1.2-3.3-0.2-5.4,3.4-6c2.9-0.5,5.9-0.4,8.8-0.7
				c2.4-0.3,4.8-0.9,7.3-1.3c0.6-6.1,1.2-11.8,1.7-17.5c0.5-5.5,2.3-10.5,5.9-14.8c2.7,0.4,3.8,1.9,2.4,4.1
				c-3.6,6.2-4.1,13.1-5,19.9c-0.7,5.4,0.2,7.2,5.5,8.6c3.8,1,7.2,2.3,9.4,5.8c1.2,1.9,2,3.8,0.9,6.2c-6,3.2-9.8-3.5-15.7-3.6
				c0,3.9-0.3,7.8,0,11.6c0.1,2,1.4,3.6,3.5,4.4c1.1,0.4,2.3,0.7,3.1,1.4c3.4,3.4,7.3,5.3,12.2,5.4c2.8,0,5.6,4.5,5.4,7.4
				c-0.2,2.2-1.6,3-3.6,3.4c-6.1,1.1-11.4-0.6-15.9-4.8c-1.8-1.7-3.3-3.6-5.2-5.7c-1.9,3.1-2.5,6.4-1.5,9.4c0.8,2.6,0.6,4.7-0.6,7
				c-0.6,1.1-0.8,2.5-1.3,3.7c-0.8,1.9-0.1,3.2,1.3,4.3c1.6,1.2,3,2.5,4.6,3.7c2.7,1.9,5.5,3.5,9.1,3c1.8-0.3,3.7-0.1,5.4,0.3
				c1.8,0.5,3.8,1.2,5.2,2.5c3.7,3.3,2.8,8.3-1.9,9.7c-2.7,0.8-5.8,0.8-8.7,0.6c-2.3-0.1-4.5-0.8-6.7-1.5c-4.9-1.6-9.8-3.2-12.2-8.4
				c-0.2-0.4-0.7-0.6-1.1-0.9c-0.1-0.1-0.3-0.1-0.8-0.1c-1.6,1.9-2.8,3.7-1.4,6.7c0.9,1.9,0.8,4.6,0.3,6.7c-0.7,2.7,0.4,4.4,2,6.1
				c2,2.1,3.9,4.5,6.2,6.3c3.4,2.7,4.1,6.6,4.9,10.4c0.8,3.5-2.2,8.9-5.4,10.3c-2.6,1.2-8.8-0.7-10.5-3.7c-2.2-4-3.9-8.3-5.6-12.5
				C1042.1-287.7,1041.8-289.6,1041.3-291.4z"/>
			<path fill="#A9D4CC" d="M1033.5-547.9c0.7-0.1,1-0.1,1-0.2c3.3-5.8,6.6-11.7,10-17.4c2.6-4.4,1.5-8.5-1.1-12.4
				c-2-3-3.7-6.2-5.8-9.1c-2.2-3.1-2.7-6.7-3.5-10.2c-0.2-1.1-0.1-2.3,0.1-3.4c0.8-3.6,3-4.9,6.5-3.8c3.6,1.2,6.4,3.3,7.6,7.1
				c1.3,4.2,2.6,8.5,4,12.7c0.5,1.4,1.1,2.6,2,4.6c2.7-2.4,5.1-4.5,7.4-6.7c3.9-3.7,7.7-7.6,11.6-11.4c0.6-0.6,1.3-1,2.1-1.3
				c7.3-3.3,14.6-6.6,22-9.8c3.1-1.3,6.3-1.5,9.4,0.7c1.3,0.9,3.3,1.1,3.2,3.2c-0.1,2.5-0.5,5.1-3.1,6.3c-4.5,2-9,3.9-13.7,5.5
				c-4.3,1.5-8.8,2.5-13.2,3.7c-7.5,2.1-13.3,6.9-18.6,12.3c-0.4,0.4-0.6,1.1-1.2,2.5c3.4-0.9,6.1-1.6,8.8-2.3
				c8.2-2.2,16.5-3,24.9-2c2.4,0.3,4.8,2,6.8,3.6c1.7,1.3,0.8,3.2-0.9,4c-3.2,1.6-6.6,2.9-10,4.2c-10.6,4.3-21.8,5-33,4.8
				c-6.9-0.1-11.2,2.2-14,8.3c-1,2.2-2.8,4-2.7,7.1c4-1.9,7.9-3.6,11.6-5.6c7.4-3.9,15.1-2.2,22.7-1c1.2,0.2,2.4,1.7,3.1,2.9
				c1.2,2.1,2.1,4.5,2.9,6.8c0.8,2.1-0.1,3.8-1.7,5.3c-2.5,2.4-5.7,3.5-9,3.3c-3.9-0.2-7.9-0.6-11.6-1.8c-8.2-2.7-15.9-1.8-23.3,2.3
				c-1.2,0.7-2.4,1.8-3,3c-1.7,3.3-3.1,6.8-4.9,11c2.4-0.7,4.2-1,5.9-1.8c4-1.8,8.3-1.8,12.5-1.9c3-0.1,5.4,1,7.5,3
				c4,3.8,3.2,10-1.9,12.1c-4.2,1.8-8.7,3.2-13.4,2.3c-3.8-0.7-7.9,0.4-11.4-2.3c-0.4-0.3-2.5,0.4-2.8,1.1c-1.8,5.2-4,10.4-3.9,16.5
				c3.8-1.6,7.1-3,10.4-4.3c6.2-2.5,12.4-2.9,18.8-0.8c5,1.7,6.3,4.1,6.1,8.3c-0.1,3.6-4.2,6.8-8.5,6.5c-5.9-0.4-11.7-1.4-17.6-1.7
				c-3-0.2-6.1,0.6-9.1,1c-1.5,5.4-3.8,10.1-2.1,15.4c4.6-0.8,9-1.7,13.5-2.3c4.2-0.5,5.1,0.2,6.6,4.2c1.2,3.3,0.2,5.4-3.4,6
				c-2.9,0.5-5.9,0.4-8.8,0.7c-2.4,0.3-4.8,0.9-7.3,1.3c-0.6,6.1-1.2,11.8-1.7,17.5c-0.5,5.5-2.3,10.5-5.9,14.8
				c-2.7-0.4-3.8-1.9-2.4-4.1c3.6-6.2,4.1-13.1,5-19.9c0.7-5.4-0.2-7.2-5.5-8.6c-3.8-1-7.2-2.3-9.4-5.8c-1.2-1.9-2-3.8-0.9-6.2
				c6-3.2,9.8,3.5,15.7,3.6c0-3.9,0.3-7.8,0-11.6c-0.1-2-1.4-3.6-3.5-4.4c-1.1-0.4-2.3-0.7-3.1-1.4c-3.4-3.4-7.3-5.3-12.2-5.4
				c-2.8,0-5.6-4.5-5.4-7.4c0.2-2.2,1.6-3,3.6-3.4c6.1-1.1,11.4,0.6,15.9,4.8c1.8,1.7,3.3,3.6,5.2,5.7c1.9-3.1,2.5-6.4,1.5-9.4
				c-0.8-2.6-0.6-4.7,0.6-7c0.6-1.1,0.8-2.5,1.3-3.7c0.8-1.9,0.1-3.2-1.3-4.3c-1.6-1.2-3-2.5-4.6-3.7c-2.7-1.9-5.5-3.5-9.1-3
				c-1.8,0.3-3.7,0.1-5.4-0.3c-1.8-0.5-3.8-1.2-5.2-2.5c-3.7-3.3-2.8-8.3,1.9-9.7c2.7-0.8,5.8-0.8,8.7-0.6c2.3,0.1,4.5,0.8,6.7,1.5
				c4.9,1.6,9.8,3.2,12.2,8.4c0.2,0.4,0.7,0.6,1.1,0.9c0.1,0.1,0.3,0.1,0.8,0.1c1.6-1.9,2.8-3.7,1.4-6.7c-0.9-1.9-0.8-4.6-0.3-6.7
				c0.7-2.7-0.4-4.4-2-6.1c-2-2.1-3.9-4.5-6.2-6.3c-3.4-2.7-4.1-6.6-4.9-10.4c-0.8-3.5,2.2-8.9,5.4-10.3c2.6-1.2,8.8,0.7,10.5,3.7
				c2.2,4,3.9,8.3,5.6,12.5C1032.7-551.6,1033-549.7,1033.5-547.9z"/>
			<path fill="#A9D4CC" d="M903.4-243.6c-0.7-0.1-1-0.2-1-0.2c-5.1,4.4-10.1,8.8-15.2,13.1c-3.9,3.3-4.2,7.5-3.1,12.1
				c0.8,3.5,1.4,7.1,2.4,10.5c1.1,3.6,0.4,7.2-0.1,10.7c-0.1,1.1-0.7,2.2-1.2,3.2c-1.9,3.1-4.4,3.6-7.4,1.4c-3-2.3-4.9-5.3-4.8-9.3
				c0.2-4.4,0.3-8.9,0.4-13.3c0-1.4-0.2-2.9-0.4-5c-3.4,1.4-6.3,2.6-9.3,3.9c-4.9,2.2-9.8,4.6-14.7,6.8c-0.7,0.3-1.6,0.5-2.4,0.6
				c-8,0.7-16,1.4-24,1.9c-3.4,0.2-6.4-0.7-8.6-3.7c-1-1.3-2.7-2.1-2-4.1c0.9-2.4,2.2-4.7,5-4.9c4.9-0.4,9.8-0.7,14.7-0.6
				c4.6,0,9.1,0.6,13.7,0.9c7.8,0.6,14.8-2,21.7-5.4c0.5-0.3,0.9-0.9,1.9-1.9c-3.5-0.3-6.3-0.5-9.1-0.7c-8.5-0.6-16.6-2.6-24.2-6.4
				c-2.2-1.1-3.8-3.5-5.2-5.6c-1.1-1.8,0.3-3.3,2.2-3.5c3.6-0.4,7.2-0.5,10.8-0.7c11.4-0.5,22.2,2.5,32.7,6.4
				c6.4,2.4,11.3,1.7,16-3.2c1.7-1.7,4-2.8,4.9-5.8c-4.5,0.5-8.6,0.8-12.8,1.4c-8.3,1.2-15-2.9-21.7-6.6c-1.1-0.6-1.7-2.4-2-3.8
				c-0.4-2.4-0.5-4.9-0.5-7.3c0-2.3,1.4-3.6,3.3-4.4c3.2-1.5,6.5-1.4,9.6-0.1c3.6,1.5,7.3,3.2,10.4,5.6c6.8,5.3,14.4,7,22.7,5.6
				c1.4-0.2,2.9-0.9,3.8-1.9c2.7-2.6,5.2-5.4,8.3-8.7c-2.5-0.1-4.3-0.4-6.1-0.3c-4.4,0.4-8.4-1.1-12.5-2.4c-2.9-0.9-4.7-2.7-6.1-5.4
				c-2.5-4.9,0.3-10.5,5.9-10.8c4.6-0.3,9.3-0.2,13.4,2.3c3.3,1.9,7.6,2.2,10,5.9c0.3,0.5,2.5,0.4,3-0.1c3.5-4.3,7.2-8.4,9.2-14.2
				c-4.1,0.2-7.7,0.4-11.3,0.6c-6.6,0.3-12.7-1.4-18-5.5c-4.2-3.2-4.6-5.9-3-9.8c1.3-3.4,6.2-5,10.2-3.3c5.4,2.3,10.6,5.2,16,7.5
				c2.8,1.2,5.9,1.4,8.9,2.1c3.2-4.7,7-8.2,7.1-13.8c-4.6-0.8-9.1-1.4-13.4-2.4c-4.2-0.9-4.8-1.9-4.8-6.1c-0.1-3.6,1.7-5.2,5.2-4.5
				c2.9,0.5,5.7,1.6,8.6,2.3c2.4,0.5,4.8,0.8,7.3,1.2c2.6-5.5,5.1-10.7,7.4-15.9c2.3-5.1,5.7-9.1,10.5-12c2.4,1.3,2.9,3,0.9,4.7
				c-5.5,4.6-8.2,11-11.3,17.1c-2.5,4.9-2.2,6.9,2.4,9.9c3.3,2.2,6,4.6,6.9,8.6c0.5,2.2,0.6,4.2-1.2,6.1c-6.7,1-8.1-6.6-13.6-8.6
				c-1.3,3.7-2.8,7.2-3.9,11c-0.5,1.9,0.1,3.9,1.9,5.3c0.9,0.7,2,1.4,2.4,2.4c2.1,4.4,5.1,7.4,9.8,9.1c2.6,1,3.8,6.1,2.6,8.7
				c-0.9,2-2.5,2.3-4.5,2c-6.1-1-10.6-4.3-13.4-9.8c-1.1-2.2-1.9-4.5-3-7.1c-2.9,2.3-4.5,5.2-4.6,8.4c-0.1,2.8-1,4.7-2.9,6.4
				c-1,0.9-1.6,2.1-2.5,3.1c-1.4,1.5-1.2,2.9-0.2,4.5c1.1,1.7,2,3.4,3.2,5c1.9,2.7,4,5.2,7.6,5.9c1.7,0.3,3.5,1.1,5,2.1
				c1.6,1.1,3.2,2.4,4.1,4.1c2.4,4.3-0.1,8.8-5,8.5c-2.8-0.2-5.7-1.2-8.4-2.3c-2.1-0.9-4-2.3-5.8-3.7c-4.1-3.1-8.2-6.3-8.7-12
				c0-0.4-0.5-0.8-0.7-1.2c-0.1-0.1-0.3-0.2-0.7-0.4c-2.2,1.3-3.8,2.6-3.6,5.9c0.2,2.1-0.7,4.6-1.9,6.5c-1.5,2.3-1.1,4.3-0.1,6.5
				c1.2,2.7,2.2,5.5,3.7,8c2.3,3.7,1.6,7.6,1.2,11.5c-0.4,3.6-5.1,7.6-8.5,7.9c-2.8,0.2-8.1-3.6-8.7-7c-0.8-4.5-0.9-9.1-1.2-13.7
				C902.9-239.9,903.2-241.8,903.4-243.6z"/>
			<path fill="#A9D4CC" d="M887.5-383.7c0.7,0.2,1,0.3,1,0.2c5.3-4.1,10.6-8.2,16-12.2c4.1-3.1,4.6-7.2,3.8-11.9
				c-0.6-3.6-1-7.2-1.8-10.7c-0.9-3.7,0.1-7.2,0.7-10.7c0.2-1.1,0.8-2.2,1.4-3.1c2.1-3,4.6-3.4,7.5-1c2.9,2.5,4.6,5.5,4.2,9.5
				c-0.4,4.4-0.8,8.8-1.1,13.2c-0.1,1.4,0,2.9,0.1,5c3.4-1.2,6.5-2.2,9.5-3.4c5-2,10-4,15.1-6c0.7-0.3,1.6-0.4,2.4-0.4
				c8-0.2,16-0.5,24-0.5c3.4,0,6.3,1.1,8.4,4.2c0.9,1.4,2.6,2.3,1.8,4.2c-1,2.3-2.4,4.6-5.3,4.6c-4.9,0.1-9.8,0.1-14.7-0.2
				c-4.6-0.3-9.1-1.1-13.7-1.7c-7.8-1-14.9,1.2-21.9,4.1c-0.6,0.2-1,0.8-2,1.8c3.4,0.5,6.2,0.9,9.1,1.3c8.4,1.1,16.4,3.6,23.8,7.7
				c2.1,1.2,3.6,3.7,4.9,5.9c1,1.9-0.5,3.2-2.4,3.3c-3.6,0.2-7.2,0.1-10.8,0.1c-11.4-0.2-22.1-3.8-32.3-8.3
				c-6.3-2.8-11.2-2.3-16.1,2.3c-1.8,1.6-4.1,2.6-5.2,5.5c4.5-0.2,8.7-0.3,12.9-0.7c8.3-0.7,14.8,3.7,21.3,7.8
				c1,0.6,1.6,2.5,1.8,3.9c0.3,2.4,0.2,4.9,0.1,7.4c-0.1,2.3-1.6,3.5-3.6,4.2c-3.3,1.3-6.6,1-9.6-0.5c-3.5-1.7-7.1-3.6-10-6.1
				c-6.5-5.7-14-7.8-22.4-6.9c-1.4,0.2-2.9,0.8-3.9,1.6c-2.8,2.4-5.5,5.1-8.7,8.3c2.4,0.3,4.3,0.7,6.1,0.6c4.4-0.1,8.3,1.6,12.3,3.1
				c2.8,1.1,4.6,3,5.8,5.7c2.2,5-0.9,10.5-6.5,10.5c-4.6,0-9.2-0.4-13.3-3c-3.2-2.1-7.5-2.7-9.6-6.5c-0.3-0.5-2.5-0.6-3-0.1
				c-3.7,4.1-7.7,8-10,13.7c4.1,0,7.7,0,11.3,0c6.6,0.1,12.6,2.1,17.6,6.5c4,3.5,4.2,6.2,2.5,10c-1.5,3.3-6.5,4.7-10.4,2.8
				c-5.3-2.6-10.3-5.8-15.6-8.4c-2.7-1.3-5.8-1.8-8.8-2.6c-3.4,4.5-7.4,7.8-7.9,13.4c4.5,1,9,1.9,13.3,3.1c4.1,1.2,4.6,2.2,4.5,6.4
				c-0.2,3.6-1.9,5.1-5.4,4.2c-2.9-0.7-5.6-1.9-8.4-2.7c-2.3-0.7-4.7-1-7.3-1.6c-2.9,5.4-5.7,10.4-8.3,15.4
				c-2.6,4.9-6.2,8.8-11.2,11.4c-2.3-1.5-2.7-3.2-0.6-4.8c5.7-4.3,8.8-10.5,12.3-16.5c2.8-4.7,2.6-6.7-1.8-10
				c-3.1-2.4-5.7-4.9-6.4-9c-0.4-2.2-0.3-4.3,1.5-6c6.8-0.6,7.7,7,13.1,9.3c1.5-3.6,3.2-7.1,4.5-10.7c0.7-1.9,0.1-3.9-1.6-5.4
				c-0.8-0.8-1.9-1.5-2.3-2.5c-1.8-4.5-4.7-7.7-9.2-9.7c-2.6-1.1-3.4-6.4-2.1-8.9c1-2,2.6-2.2,4.6-1.8c6,1.4,10.3,4.9,12.8,10.5
				c1,2.2,1.6,4.6,2.6,7.3c3-2.1,4.8-4.9,5-8.1c0.2-2.8,1.2-4.6,3.3-6.2c1-0.8,1.7-2,2.7-2.9c1.5-1.4,1.3-2.9,0.4-4.5
				c-1-1.7-1.8-3.5-2.9-5.2c-1.7-2.8-3.7-5.4-7.2-6.3c-1.7-0.4-3.4-1.3-4.9-2.4c-1.5-1.2-3-2.6-3.9-4.3c-2.2-4.4,0.6-8.8,5.5-8.2
				c2.8,0.3,5.6,1.5,8.2,2.8c2,1,3.9,2.5,5.6,4c3.9,3.3,7.8,6.7,8,12.5c0,0.4,0.4,0.9,0.7,1.3c0.1,0.1,0.3,0.2,0.7,0.4
				c2.2-1.1,4-2.4,3.9-5.7c-0.1-2.1,1-4.6,2.3-6.3c1.7-2.3,1.3-4.2,0.5-6.4c-1.1-2.8-1.9-5.7-3.3-8.2c-2.1-3.8-1.2-7.7-0.5-11.5
				c0.6-3.6,5.5-7.3,9-7.4c2.8-0.1,7.9,4,8.3,7.5c0.5,4.5,0.4,9.2,0.4,13.7C888.2-387.4,887.8-385.5,887.5-383.7z"/>
		</g>
		<g>
			<polygon fill="#C9C9C9" points="500.1,-168.1 0,-168.1 0,-593.1 500.1,-593.1 			"/>
			<path fill="#A9D4CC" d="M444-580.6c0.7-0.1,1-0.1,1-0.2c3.3-5.8,6.6-11.7,10-17.4c2.6-4.4,1.5-8.5-1.1-12.4c-2-3-3.7-6.2-5.8-9.1
				c-2.2-3.1-2.7-6.7-3.5-10.2c-0.2-1.1-0.1-2.3,0.1-3.4c0.8-3.6,3-4.9,6.5-3.8c3.6,1.2,6.4,3.3,7.6,7.1c1.3,4.2,2.6,8.5,4,12.7
				c0.5,1.4,1.1,2.6,2,4.6c2.7-2.4,5.1-4.5,7.4-6.7c3.9-3.7,7.7-7.6,11.6-11.4c0.6-0.6,1.3-1,2.1-1.3c7.3-3.3,14.6-6.6,22-9.8
				c3.1-1.3,6.3-1.5,9.4,0.7c1.3,0.9,3.3,1.1,3.2,3.2c-0.1,2.5-0.5,5.1-3.1,6.3c-4.5,2-9,3.9-13.7,5.5c-4.3,1.5-8.8,2.5-13.2,3.7
				c-7.5,2.1-13.3,6.9-18.6,12.3c-0.4,0.4-0.6,1.1-1.2,2.5c3.4-0.9,6.1-1.6,8.8-2.3c8.2-2.2,16.5-3,24.9-2c2.4,0.3,4.8,2,6.8,3.6
				c1.7,1.3,0.8,3.2-0.9,4c-3.2,1.6-6.6,2.9-10,4.2c-10.6,4.3-21.8,5-33,4.8c-6.9-0.1-11.2,2.2-14,8.3c-1,2.2-2.8,4-2.7,7.1
				c4-1.9,7.9-3.6,11.6-5.6c7.4-3.9,15.1-2.2,22.7-1c1.2,0.2,2.4,1.7,3.1,2.9c1.2,2.1,2.1,4.5,2.9,6.8c0.8,2.1-0.1,3.8-1.7,5.3
				c-2.5,2.4-5.7,3.5-9,3.3c-3.9-0.2-7.9-0.6-11.6-1.8c-8.2-2.7-15.9-1.8-23.3,2.3c-1.2,0.7-2.4,1.8-3,3c-1.7,3.3-3.1,6.8-4.9,11
				c2.4-0.7,4.2-1,5.9-1.8c4-1.8,8.3-1.8,12.5-1.9c3-0.1,5.4,1,7.5,3c4,3.8,3.2,10-1.9,12.1c-4.2,1.8-8.7,3.2-13.4,2.3
				c-3.8-0.7-7.9,0.4-11.4-2.3c-0.4-0.3-2.5,0.4-2.8,1.1c-1.8,5.2-4,10.4-3.9,16.5c3.8-1.6,7.1-3,10.4-4.3
				c6.2-2.5,12.4-2.9,18.8-0.8c5,1.7,6.3,4.1,6.1,8.3c-0.1,3.6-4.2,6.8-8.5,6.5c-5.9-0.4-11.7-1.4-17.6-1.7c-3-0.2-6.1,0.6-9.1,1
				c-1.5,5.4-3.8,10.1-2.1,15.4c4.6-0.8,9-1.7,13.5-2.3c4.2-0.5,5.1,0.2,6.6,4.2c1.2,3.3,0.2,5.4-3.4,6c-2.9,0.5-5.9,0.4-8.8,0.7
				c-2.4,0.3-4.8,0.9-7.3,1.3c-0.6,6.1-1.2,11.8-1.7,17.5c-0.5,5.5-2.3,10.5-5.9,14.8c-2.7-0.4-3.8-1.9-2.4-4.1
				c3.6-6.2,4.1-13.1,5-19.9c0.7-5.4-0.2-7.2-5.5-8.6c-3.8-1-7.2-2.3-9.4-5.8c-1.2-1.9-2-3.8-0.9-6.2c6-3.2,9.8,3.5,15.7,3.6
				c0-3.9,0.3-7.8,0-11.6c-0.1-2-1.4-3.6-3.5-4.4c-1.1-0.4-2.3-0.7-3.1-1.4c-3.4-3.4-7.3-5.3-12.2-5.4c-2.8,0-5.6-4.5-5.4-7.4
				c0.2-2.2,1.6-3,3.6-3.4c6.1-1.1,11.4,0.6,15.9,4.8c1.8,1.7,3.3,3.6,5.2,5.7c1.9-3.1,2.5-6.4,1.5-9.4c-0.8-2.6-0.6-4.7,0.6-7
				c0.6-1.1,0.8-2.5,1.3-3.7c0.8-1.9,0.1-3.2-1.3-4.3c-1.6-1.2-3-2.5-4.6-3.7c-2.7-1.9-5.5-3.5-9.1-3c-1.8,0.3-3.7,0.1-5.4-0.3
				c-1.8-0.5-3.8-1.2-5.2-2.5c-3.7-3.3-2.8-8.3,1.9-9.7c2.7-0.8,5.8-0.8,8.7-0.6c2.3,0.1,4.5,0.8,6.7,1.5c4.9,1.6,9.8,3.2,12.2,8.4
				c0.2,0.4,0.7,0.6,1.1,0.9c0.1,0.1,0.3,0.1,0.8,0.1c1.6-1.9,2.8-3.7,1.4-6.7c-0.9-1.9-0.8-4.6-0.3-6.7c0.7-2.7-0.4-4.4-2-6.1
				c-2-2.1-3.9-4.5-6.2-6.3c-3.4-2.7-4.1-6.6-4.9-10.4c-0.8-3.5,2.2-8.9,5.4-10.3c2.6-1.2,8.8,0.7,10.5,3.7c2.2,4,3.9,8.3,5.6,12.5
				C443.2-584.3,443.5-582.4,444-580.6z"/>
			<path fill="#A9D4CC" d="M444.1-155.3c0.7-0.1,1-0.1,1-0.2c3.3-5.8,6.6-11.7,10-17.4c2.6-4.4,1.5-8.5-1.1-12.4
				c-2-3-3.7-6.2-5.8-9.1c-2.2-3.1-2.7-6.7-3.5-10.2c-0.2-1.1-0.1-2.3,0.1-3.4c0.8-3.6,3-4.9,6.5-3.8c3.6,1.2,6.4,3.3,7.6,7.1
				c1.3,4.2,2.6,8.5,4,12.7c0.5,1.4,1.1,2.6,2,4.6c2.7-2.4,5.1-4.5,7.4-6.7c3.9-3.7,7.7-7.6,11.6-11.4c0.6-0.6,1.3-1,2.1-1.3
				c7.3-3.3,14.6-6.6,22-9.8c3.1-1.3,6.3-1.5,9.4,0.7c1.3,0.9,3.3,1.1,3.2,3.2c-0.1,2.5-0.5,5.1-3.1,6.3c-4.5,2-9,3.9-13.7,5.5
				c-4.3,1.5-8.8,2.5-13.2,3.7c-7.5,2.1-13.3,6.9-18.6,12.3c-0.4,0.4-0.6,1.1-1.2,2.5c3.4-0.9,6.1-1.6,8.8-2.3
				c8.2-2.2,16.5-3,24.9-2c2.4,0.3,4.8,2,6.8,3.6c1.7,1.3,0.8,3.2-0.9,4c-3.2,1.6-6.6,2.9-10,4.2c-10.6,4.3-21.8,5-33,4.8
				c-6.9-0.1-11.2,2.2-14,8.3c-1,2.2-2.8,4-2.7,7.1c4-1.9,7.9-3.6,11.6-5.6c7.4-3.9,15.1-2.2,22.7-1c1.2,0.2,2.4,1.7,3.1,2.9
				c1.2,2.1,2.1,4.5,2.9,6.8c0.8,2.1-0.1,3.8-1.7,5.3c-2.5,2.4-5.7,3.5-9,3.3c-3.9-0.2-7.9-0.6-11.6-1.8c-8.2-2.7-15.9-1.8-23.3,2.3
				c-1.2,0.7-2.4,1.8-3,3c-1.7,3.3-3.1,6.8-4.9,11c2.4-0.7,4.2-1,5.9-1.8c4-1.8,8.3-1.8,12.5-1.9c3-0.1,5.4,1,7.5,3
				c4,3.8,3.2,10-1.9,12.1c-4.2,1.8-8.7,3.2-13.4,2.3c-3.8-0.7-7.9,0.4-11.4-2.3c-0.4-0.3-2.5,0.4-2.8,1.1c-1.8,5.2-4,10.4-3.9,16.5
				c3.8-1.6,7.1-3,10.4-4.3c6.2-2.5,12.4-2.9,18.8-0.8c5,1.7,6.3,4.1,6.1,8.3c-0.1,3.6-4.2,6.8-8.5,6.5c-5.9-0.4-11.7-1.4-17.6-1.7
				c-3-0.2-6.1,0.6-9.1,1c-1.5,5.4-3.8,10.1-2.1,15.4c4.6-0.8,9-1.7,13.5-2.3c4.2-0.5,5.1,0.2,6.6,4.2c1.2,3.3,0.2,5.4-3.4,6
				c-2.9,0.5-5.9,0.4-8.8,0.7c-2.4,0.3-4.8,0.9-7.3,1.3c-0.6,6.1-1.2,11.8-1.7,17.5c-0.5,5.5-2.3,10.5-5.9,14.8
				c-2.7-0.4-3.8-1.9-2.4-4.1c3.6-6.2,4.1-13.1,5-19.9c0.7-5.4-0.2-7.2-5.5-8.6c-3.8-1-7.2-2.3-9.4-5.8c-1.2-1.9-2-3.8-0.9-6.2
				c6-3.2,9.8,3.5,15.7,3.6c0-3.9,0.3-7.8,0-11.6c-0.1-2-1.4-3.6-3.5-4.4c-1.1-0.4-2.3-0.7-3.1-1.4c-3.4-3.4-7.3-5.3-12.2-5.4
				c-2.8,0-5.6-4.5-5.4-7.4c0.2-2.2,1.6-3,3.6-3.4c6.1-1.1,11.4,0.6,15.9,4.8c1.8,1.7,3.3,3.6,5.2,5.7c1.9-3.1,2.5-6.4,1.5-9.4
				c-0.8-2.6-0.6-4.7,0.6-7c0.6-1.1,0.8-2.5,1.3-3.7c0.8-1.9,0.1-3.2-1.3-4.3c-1.6-1.2-3-2.5-4.6-3.7c-2.7-1.9-5.5-3.5-9.1-3
				c-1.8,0.3-3.7,0.1-5.4-0.3c-1.8-0.5-3.8-1.2-5.2-2.5c-3.7-3.3-2.8-8.3,1.9-9.7c2.7-0.8,5.8-0.8,8.7-0.6c2.3,0.1,4.5,0.8,6.7,1.5
				c4.9,1.6,9.8,3.2,12.2,8.4c0.2,0.4,0.7,0.6,1.1,0.9c0.1,0.1,0.3,0.1,0.8,0.1c1.6-1.9,2.8-3.7,1.4-6.7c-0.9-1.9-0.8-4.6-0.3-6.7
				c0.7-2.7-0.4-4.4-2-6.1c-2-2.1-3.9-4.5-6.2-6.3c-3.4-2.7-4.1-6.6-4.9-10.4c-0.8-3.5,2.2-8.9,5.4-10.3c2.6-1.2,8.8,0.7,10.5,3.7
				c2.2,4,3.9,8.3,5.6,12.5C443.3-159,443.6-157.1,444.1-155.3z"/>
			<path fill="#A9D4CC" d="M541.3-291.4c-0.7,0.1-1,0.1-1,0.2c-3.3,5.8-6.6,11.7-10,17.4c-2.6,4.4-1.5,8.5,1.1,12.4
				c2,3,3.7,6.2,5.8,9.1c2.2,3.1,2.7,6.7,3.5,10.2c0.2,1.1,0.1,2.3-0.1,3.4c-0.8,3.6-3,4.9-6.5,3.8c-3.6-1.2-6.4-3.3-7.6-7.1
				c-1.3-4.2-2.6-8.5-4-12.7c-0.5-1.4-1.1-2.6-2-4.6c-2.7,2.4-5.1,4.5-7.4,6.7c-3.9,3.7-7.7,7.6-11.6,11.4c-0.6,0.6-1.3,1-2.1,1.3
				c-7.3,3.3-14.6,6.6-22,9.8c-3.1,1.3-6.3,1.5-9.4-0.7c-1.3-0.9-3.3-1.1-3.2-3.2c0.1-2.5,0.5-5.1,3.1-6.3c4.5-2,9-3.9,13.7-5.5
				c4.3-1.5,8.8-2.5,13.2-3.7c7.5-2.1,13.3-6.9,18.6-12.3c0.4-0.4,0.6-1.1,1.2-2.5c-3.4,0.9-6.1,1.6-8.8,2.3c-8.2,2.2-16.5,3-24.9,2
				c-2.4-0.3-4.8-2-6.8-3.6c-1.7-1.3-0.8-3.2,0.9-4c3.2-1.6,6.6-2.9,10-4.2c10.6-4.3,21.8-5,33-4.8c6.9,0.1,11.2-2.2,14-8.3
				c1-2.2,2.8-4,2.7-7.1c-4,1.9-7.9,3.6-11.6,5.6c-7.4,3.9-15.1,2.2-22.7,1c-1.2-0.2-2.4-1.7-3.1-2.9c-1.2-2.1-2.1-4.5-2.9-6.8
				c-0.8-2.1,0.1-3.8,1.7-5.3c2.5-2.4,5.7-3.5,9-3.3c3.9,0.2,7.9,0.6,11.6,1.8c8.2,2.7,15.9,1.8,23.3-2.3c1.2-0.7,2.4-1.8,3-3
				c1.7-3.3,3.1-6.8,4.9-11c-2.4,0.7-4.2,1-5.9,1.8c-4,1.8-8.3,1.8-12.5,1.9c-3,0.1-5.4-1-7.5-3c-4-3.8-3.2-10,1.9-12.1
				c4.2-1.8,8.7-3.2,13.4-2.3c3.8,0.7,7.9-0.4,11.4,2.3c0.4,0.3,2.5-0.4,2.8-1.1c1.8-5.2,4-10.4,3.9-16.5c-3.8,1.6-7.1,3-10.4,4.3
				c-6.2,2.5-12.4,2.9-18.8,0.8c-5-1.7-6.3-4.1-6.1-8.3c0.1-3.6,4.2-6.8,8.5-6.5c5.9,0.4,11.7,1.4,17.6,1.7c3,0.2,6.1-0.6,9.1-1
				c1.5-5.4,3.8-10.1,2.1-15.4c-4.6,0.8-9,1.7-13.5,2.3c-4.2,0.5-5.1-0.2-6.6-4.2c-1.2-3.3-0.2-5.4,3.4-6c2.9-0.5,5.9-0.4,8.8-0.7
				c2.4-0.3,4.8-0.9,7.3-1.3c0.6-6.1,1.2-11.8,1.7-17.5c0.5-5.5,2.3-10.5,5.9-14.8c2.7,0.4,3.8,1.9,2.4,4.1
				c-3.6,6.2-4.1,13.1-5,19.9c-0.7,5.4,0.2,7.2,5.5,8.6c3.8,1,7.2,2.3,9.4,5.8c1.2,1.9,2,3.8,0.9,6.2c-6,3.2-9.8-3.5-15.7-3.6
				c0,3.9-0.3,7.8,0,11.6c0.1,2,1.4,3.6,3.5,4.4c1.1,0.4,2.3,0.7,3.1,1.4c3.4,3.4,7.3,5.3,12.2,5.4c2.8,0,5.6,4.5,5.4,7.4
				c-0.2,2.2-1.6,3-3.6,3.4c-6.1,1.1-11.4-0.6-15.9-4.8c-1.8-1.7-3.3-3.6-5.2-5.7c-1.9,3.1-2.5,6.4-1.5,9.4c0.8,2.6,0.6,4.7-0.6,7
				c-0.6,1.1-0.8,2.5-1.3,3.7c-0.8,1.9-0.1,3.2,1.3,4.3c1.6,1.2,3,2.5,4.6,3.7c2.7,1.9,5.5,3.5,9.1,3c1.8-0.3,3.7-0.1,5.4,0.3
				c1.8,0.5,3.8,1.2,5.2,2.5c3.7,3.3,2.8,8.3-1.9,9.7c-2.7,0.8-5.8,0.8-8.7,0.6c-2.3-0.1-4.5-0.8-6.7-1.5c-4.9-1.6-9.8-3.2-12.2-8.4
				c-0.2-0.4-0.7-0.6-1.1-0.9c-0.1-0.1-0.3-0.1-0.8-0.1c-1.6,1.9-2.8,3.7-1.4,6.7c0.9,1.9,0.8,4.6,0.3,6.7c-0.7,2.7,0.4,4.4,2,6.1
				c2,2.1,3.9,4.5,6.2,6.3c3.4,2.7,4.1,6.6,4.9,10.4c0.8,3.5-2.2,8.9-5.4,10.3c-2.6,1.2-8.8-0.7-10.5-3.7c-2.2-4-3.9-8.3-5.6-12.5
				C542.1-287.7,541.7-289.6,541.3-291.4z"/>
			<path fill="#A9D4CC" d="M533.4-547.9c0.7-0.1,1-0.1,1-0.2c3.3-5.8,6.6-11.7,10-17.4c2.6-4.4,1.5-8.5-1.1-12.4
				c-2-3-3.7-6.2-5.8-9.1c-2.2-3.1-2.7-6.7-3.5-10.2c-0.2-1.1-0.1-2.3,0.1-3.4c0.8-3.6,3-4.9,6.5-3.8c3.6,1.2,6.4,3.3,7.6,7.1
				c1.3,4.2,2.6,8.5,4,12.7c0.5,1.4,1.1,2.6,2,4.6c2.7-2.4,5.1-4.5,7.4-6.7c3.9-3.7,7.7-7.6,11.6-11.4c0.6-0.6,1.3-1,2.1-1.3
				c7.3-3.3,14.6-6.6,22-9.8c3.1-1.3,6.3-1.5,9.4,0.7c1.3,0.9,3.3,1.1,3.2,3.2c-0.1,2.5-0.5,5.1-3.1,6.3c-4.5,2-9,3.9-13.7,5.5
				c-4.3,1.5-8.8,2.5-13.2,3.7c-7.5,2.1-13.3,6.9-18.6,12.3c-0.4,0.4-0.6,1.1-1.2,2.5c3.4-0.9,6.1-1.6,8.8-2.3
				c8.2-2.2,16.5-3,24.9-2c2.4,0.3,4.8,2,6.8,3.6c1.7,1.3,0.8,3.2-0.9,4c-3.2,1.6-6.6,2.9-10,4.2c-10.6,4.3-21.8,5-33,4.8
				c-6.9-0.1-11.2,2.2-14,8.3c-1,2.2-2.8,4-2.7,7.1c4-1.9,7.9-3.6,11.6-5.6c7.4-3.9,15.1-2.2,22.7-1c1.2,0.2,2.4,1.7,3.1,2.9
				c1.2,2.1,2.1,4.5,2.9,6.8c0.8,2.1-0.1,3.8-1.7,5.3c-2.5,2.4-5.7,3.5-9,3.3c-3.9-0.2-7.9-0.6-11.6-1.8c-8.2-2.7-15.9-1.8-23.3,2.3
				c-1.2,0.7-2.4,1.8-3,3c-1.7,3.3-3.1,6.8-4.9,11c2.4-0.7,4.2-1,5.9-1.8c4-1.8,8.3-1.8,12.5-1.9c3-0.1,5.4,1,7.5,3
				c4,3.8,3.2,10-1.9,12.1c-4.2,1.8-8.7,3.2-13.4,2.3c-3.8-0.7-7.9,0.4-11.4-2.3c-0.4-0.3-2.5,0.4-2.8,1.1c-1.8,5.2-4,10.4-3.9,16.5
				c3.8-1.6,7.1-3,10.4-4.3c6.2-2.5,12.4-2.9,18.8-0.8c5,1.7,6.3,4.1,6.1,8.3c-0.1,3.6-4.2,6.8-8.5,6.5c-5.9-0.4-11.7-1.4-17.6-1.7
				c-3-0.2-6.1,0.6-9.1,1c-1.5,5.4-3.8,10.1-2.1,15.4c4.6-0.8,9-1.7,13.5-2.3c4.2-0.5,5.1,0.2,6.6,4.2c1.2,3.3,0.2,5.4-3.4,6
				c-2.9,0.5-5.9,0.4-8.8,0.7c-2.4,0.3-4.8,0.9-7.3,1.3c-0.6,6.1-1.2,11.8-1.7,17.5c-0.5,5.5-2.3,10.5-5.9,14.8
				c-2.7-0.4-3.8-1.9-2.4-4.1c3.6-6.2,4.1-13.1,5-19.9c0.7-5.4-0.2-7.2-5.5-8.6c-3.8-1-7.2-2.3-9.4-5.8c-1.2-1.9-2-3.8-0.9-6.2
				c6-3.2,9.8,3.5,15.7,3.6c0-3.9,0.3-7.8,0-11.6c-0.1-2-1.4-3.6-3.5-4.4c-1.1-0.4-2.3-0.7-3.1-1.4c-3.4-3.4-7.3-5.3-12.2-5.4
				c-2.8,0-5.6-4.5-5.4-7.4c0.2-2.2,1.6-3,3.6-3.4c6.1-1.1,11.4,0.6,15.9,4.8c1.8,1.7,3.3,3.6,5.2,5.7c1.9-3.1,2.5-6.4,1.5-9.4
				c-0.8-2.6-0.6-4.7,0.6-7c0.6-1.1,0.8-2.5,1.3-3.7c0.8-1.9,0.1-3.2-1.3-4.3c-1.6-1.2-3-2.5-4.6-3.7c-2.7-1.9-5.5-3.5-9.1-3
				c-1.8,0.3-3.7,0.1-5.4-0.3c-1.8-0.5-3.8-1.2-5.2-2.5c-3.7-3.3-2.8-8.3,1.9-9.7c2.7-0.8,5.8-0.8,8.7-0.6c2.3,0.1,4.5,0.8,6.7,1.5
				c4.9,1.6,9.8,3.2,12.2,8.4c0.2,0.4,0.7,0.6,1.1,0.9c0.1,0.1,0.3,0.1,0.8,0.1c1.6-1.9,2.8-3.7,1.4-6.7c-0.9-1.9-0.8-4.6-0.3-6.7
				c0.7-2.7-0.4-4.4-2-6.1c-2-2.1-3.9-4.5-6.2-6.3c-3.4-2.7-4.1-6.6-4.9-10.4c-0.8-3.5,2.2-8.9,5.4-10.3c2.6-1.2,8.8,0.7,10.5,3.7
				c2.2,4,3.9,8.3,5.6,12.5C532.6-551.6,532.9-549.7,533.4-547.9z"/>
		</g>
		<g>
			<path fill="#A9D4CC" d="M1033.6-547.2c0.7-0.1,1-0.1,1-0.2c3.3-5.8,6.6-11.7,10-17.4c2.6-4.4,1.5-8.5-1.1-12.4
				c-2-3-3.7-6.2-5.8-9.1c-2.2-3.1-2.7-6.7-3.5-10.2c-0.2-1.1-0.1-2.3,0.1-3.4c0.8-3.6,3-4.9,6.5-3.8c3.6,1.2,6.4,3.3,7.6,7.1
				c1.3,4.2,2.6,8.5,4,12.7c0.5,1.4,1.1,2.6,2,4.6c2.7-2.4,5.1-4.5,7.4-6.7c3.9-3.7,7.7-7.6,11.6-11.4c0.6-0.6,1.3-1,2.1-1.3
				c7.3-3.3,14.6-6.6,22-9.8c3.1-1.3,6.3-1.5,9.4,0.7c1.3,0.9,3.3,1.1,3.2,3.2c-0.1,2.5-0.5,5.1-3.1,6.3c-4.5,2-9,3.9-13.7,5.5
				c-4.3,1.5-8.8,2.5-13.2,3.7c-7.5,2.1-13.3,6.9-18.6,12.3c-0.4,0.4-0.6,1.1-1.2,2.5c3.4-0.9,6.1-1.6,8.8-2.3
				c8.2-2.2,16.5-3,24.9-2c2.4,0.3,4.8,2,6.8,3.6c1.7,1.3,0.8,3.2-0.9,4c-3.2,1.6-6.6,2.9-10,4.2c-10.6,4.3-21.8,5-33,4.8
				c-6.9-0.1-11.2,2.2-14,8.3c-1,2.2-2.8,4-2.7,7.1c4-1.9,7.9-3.6,11.6-5.6c7.4-3.9,15.1-2.2,22.7-1c1.2,0.2,2.4,1.7,3.1,2.9
				c1.2,2.1,2.1,4.5,2.9,6.8c0.8,2.1-0.1,3.8-1.7,5.3c-2.5,2.4-5.7,3.5-9,3.3c-3.9-0.2-7.9-0.6-11.6-1.8c-8.2-2.7-15.9-1.8-23.3,2.3
				c-1.2,0.7-2.4,1.8-3,3c-1.7,3.3-3.1,6.8-4.9,11c2.4-0.7,4.2-1,5.9-1.8c4-1.8,8.3-1.8,12.5-1.9c3-0.1,5.4,1,7.5,3
				c4,3.8,3.2,10-1.9,12.1c-4.2,1.8-8.7,3.2-13.4,2.3c-3.8-0.7-7.9,0.4-11.4-2.3c-0.4-0.3-2.5,0.4-2.8,1.1c-1.8,5.2-4,10.4-3.9,16.5
				c3.8-1.6,7.1-3,10.4-4.3c6.2-2.5,12.4-2.9,18.8-0.8c5,1.7,6.3,4.1,6.1,8.3c-0.1,3.6-4.2,6.8-8.5,6.5c-5.9-0.4-11.7-1.4-17.6-1.7
				c-3-0.2-6.1,0.6-9.1,1c-1.5,5.4-3.8,10.1-2.1,15.4c4.6-0.8,9-1.7,13.5-2.3c4.2-0.5,5.1,0.2,6.6,4.2c1.2,3.3,0.2,5.4-3.4,6
				c-2.9,0.5-5.9,0.4-8.8,0.7c-2.4,0.3-4.8,0.9-7.3,1.3c-0.6,6.1-1.2,11.8-1.7,17.5c-0.5,5.5-2.3,10.5-5.9,14.8
				c-2.7-0.4-3.8-1.9-2.4-4.1c3.6-6.2,4.1-13.1,5-19.9c0.7-5.4-0.2-7.2-5.5-8.6c-3.8-1-7.2-2.3-9.4-5.8c-1.2-1.9-2-3.8-0.9-6.2
				c6-3.2,9.8,3.5,15.7,3.6c0-3.9,0.3-7.8,0-11.6c-0.1-2-1.4-3.6-3.5-4.4c-1.1-0.4-2.3-0.7-3.1-1.4c-3.4-3.4-7.3-5.3-12.2-5.4
				c-2.8,0-5.6-4.5-5.4-7.4c0.2-2.2,1.6-3,3.6-3.4c6.1-1.1,11.4,0.6,15.9,4.8c1.8,1.7,3.3,3.6,5.2,5.7c1.9-3.1,2.5-6.4,1.5-9.4
				c-0.8-2.6-0.6-4.7,0.6-7c0.6-1.1,0.8-2.5,1.3-3.7c0.8-1.9,0.1-3.2-1.3-4.3c-1.6-1.2-3-2.5-4.6-3.7c-2.7-1.9-5.5-3.5-9.1-3
				c-1.8,0.3-3.7,0.1-5.4-0.3c-1.8-0.5-3.8-1.2-5.2-2.5c-3.7-3.3-2.8-8.3,1.9-9.7c2.7-0.8,5.8-0.8,8.7-0.6c2.3,0.1,4.5,0.8,6.7,1.5
				c4.9,1.6,9.8,3.2,12.2,8.4c0.2,0.4,0.7,0.6,1.1,0.9c0.1,0.1,0.3,0.1,0.8,0.1c1.6-1.9,2.8-3.7,1.4-6.7c-0.9-1.9-0.8-4.6-0.3-6.7
				c0.7-2.7-0.4-4.4-2-6.1c-2-2.1-3.9-4.5-6.2-6.3c-3.4-2.7-4.1-6.6-4.9-10.4c-0.8-3.5,2.2-8.9,5.4-10.3c2.6-1.2,8.8,0.7,10.5,3.7
				c2.2,4,3.9,8.3,5.6,12.5C1032.8-550.9,1033.1-549,1033.6-547.2z"/>
		</g>
		<g>
			<polygon fill="#C9C9C9" points="1000.2,-593.1 500.1,-593.1 500.1,-1018.1 1000.2,-1018.1 			"/>
			<path fill="#A9D4CC" d="M689.4-545.1c0.4-0.6,0.6-0.8,0.6-0.9c-1.7-6.5-3.6-12.9-5.2-19.4c-1.3-5-4.9-7-9.5-8
				c-3.5-0.8-7-1.8-10.6-2.4c-3.7-0.6-6.6-2.8-9.7-4.7c-0.9-0.6-1.7-1.5-2.3-2.5c-2-3.1-1.4-5.6,1.9-7.3c3.4-1.7,6.9-2.2,10.4-0.3
				c3.9,2.1,7.8,4.1,11.8,6.1c1.3,0.6,2.7,1.1,4.7,1.8c0.2-3.6,0.4-6.8,0.5-10c0.1-5.4,0.1-10.8,0.2-16.2c0-0.8,0.2-1.6,0.5-2.4
				c2.8-7.5,5.6-15,8.6-22.4c1.3-3.1,3.4-5.5,7.1-6.2c1.6-0.3,3.1-1.5,4.5,0c1.7,1.8,3.3,4,2.3,6.6c-1.8,4.6-3.6,9.1-5.8,13.6
				c-2,4.1-4.5,8-6.7,12c-3.9,6.8-4.6,14.3-4.5,21.9c0,0.6,0.4,1.2,0.9,2.6c1.7-3,3.2-5.4,4.6-7.9c4.2-7.4,9.5-13.8,16.2-19
				c1.9-1.5,4.8-2,7.3-2.3c2.1-0.2,2.8,1.7,2.2,3.5c-1.2,3.4-2.6,6.7-4,10c-4.5,10.5-11.9,19-19.9,26.7c-4.9,4.8-6.4,9.5-4,15.8
				c0.8,2.3,0.8,4.8,3.1,6.9c1.5-4.2,3-8.1,4.2-12.2c2.5-8,9.1-12.2,15.3-16.7c1-0.7,2.9-0.5,4.3-0.2c2.4,0.6,4.6,1.7,6.9,2.7
				c2.1,0.9,2.6,2.8,2.6,4.9c-0.1,3.5-1.6,6.5-4.1,8.7c-2.9,2.6-6,5.2-9.5,7c-7.7,3.9-12.5,9.9-14.8,18.1c-0.4,1.3-0.4,3,0,4.3
				c1.2,3.6,2.7,7,4.3,11.2c1.2-2.2,2.3-3.7,2.9-5.4c1.5-4.1,4.6-7.1,7.5-10.2c2.1-2.2,4.5-3.1,7.5-3.2c5.5-0.1,9.3,4.8,7.2,10
				c-1.7,4.2-3.8,8.4-7.9,11.1c-3.2,2.2-5.3,5.9-9.7,6.4c-0.5,0.1-1.5,2.1-1.2,2.7c2.4,5,4.5,10.1,8.9,14.4
				c1.6-3.8,2.9-7.1,4.3-10.4c2.6-6.1,6.7-10.8,12.7-13.8c4.7-2.4,7.3-1.6,10.2,1.5c2.5,2.7,1.8,7.8-1.4,10.6
				c-4.4,3.9-9.3,7.3-13.7,11.2c-2.2,2-3.8,4.7-5.7,7.1c2.8,4.9,4.4,9.8,9.4,12.4c2.7-3.8,5.2-7.6,7.9-11.1c2.6-3.4,3.8-3.5,7.6-1.7
				c3.2,1.5,4,3.7,1.8,6.6c-1.7,2.4-3.9,4.4-5.7,6.7c-1.5,1.9-2.8,4-4.2,6.1c3.9,4.7,7.5,9.2,11.1,13.6c3.6,4.3,5.8,9.1,6.3,14.7
				c-2.2,1.6-4,1.3-4.7-1.2c-1.8-6.9-6.4-12.1-10.5-17.6c-3.3-4.4-5.2-5-10-2.1c-3.4,2-6.7,3.4-10.7,2.6c-2.2-0.5-4.1-1.3-5-3.7
				c2-6.5,9.4-4.5,13.6-8.5c-2.7-2.8-5.3-5.7-8.2-8.2c-1.5-1.3-3.6-1.6-5.6-0.6c-1,0.5-2.1,1.2-3.2,1.2c-4.8,0-8.9,1.4-12.4,4.9
				c-2,1.9-7.2,0.8-9-1.4c-1.4-1.7-1-3.3,0.1-4.9c3.6-5.1,8.5-7.7,14.6-7.9c2.4-0.1,4.9,0.2,7.7,0.4c-0.8-3.6-2.7-6.3-5.6-7.7
				c-2.5-1.3-3.8-2.9-4.5-5.4c-0.4-1.2-1.2-2.3-1.7-3.6c-0.7-1.9-2.1-2.3-4-2.1c-2,0.2-3.9,0.4-5.9,0.7c-3.3,0.5-6.4,1.4-8.6,4.3
				c-1.1,1.4-2.5,2.7-4,3.6c-1.7,1-3.6,1.8-5.4,2c-4.9,0.3-7.9-3.9-5.5-8.2c1.4-2.5,3.6-4.6,5.7-6.6c1.7-1.5,3.8-2.6,5.8-3.7
				c4.6-2.3,9.2-4.7,14.6-2.7c0.4,0.2,1,0,1.4-0.1c0.1,0,0.3-0.2,0.7-0.5c-0.2-2.5-0.7-4.6-3.8-5.8c-2-0.8-3.9-2.7-5-4.5
				c-1.5-2.4-3.4-2.8-5.8-2.9c-3-0.1-5.9-0.4-8.9-0.1c-4.4,0.5-7.6-1.8-10.8-3.9c-3-1.9-4.7-7.9-3.5-11.1c1-2.7,6.7-5.8,10.1-4.8
				c4.4,1.3,8.6,3.1,12.8,4.9C686.2-547.2,687.8-546,689.4-545.1z"/>
			<path fill="#A9D4CC" d="M533.5-547.2c0.7-0.1,1-0.1,1-0.2c3.3-5.8,6.6-11.7,10-17.4c2.6-4.4,1.5-8.5-1.1-12.4
				c-2-3-3.7-6.2-5.8-9.1c-2.2-3.1-2.7-6.7-3.5-10.2c-0.2-1.1-0.1-2.3,0.1-3.4c0.8-3.6,3-4.9,6.5-3.8c3.6,1.2,6.4,3.3,7.6,7.1
				c1.3,4.2,2.6,8.5,4,12.7c0.5,1.4,1.1,2.6,2,4.6c2.7-2.4,5.1-4.5,7.4-6.7c3.9-3.7,7.7-7.6,11.6-11.4c0.6-0.6,1.3-1,2.1-1.3
				c7.3-3.3,14.6-6.6,22-9.8c3.1-1.3,6.3-1.5,9.4,0.7c1.3,0.9,3.3,1.1,3.2,3.2c-0.1,2.5-0.5,5.1-3.1,6.3c-4.5,2-9,3.9-13.7,5.5
				c-4.3,1.5-8.8,2.5-13.2,3.7c-7.5,2.1-13.3,6.9-18.6,12.3c-0.4,0.4-0.6,1.1-1.2,2.5c3.4-0.9,6.1-1.6,8.8-2.3
				c8.2-2.2,16.5-3,24.9-2c2.4,0.3,4.8,2,6.8,3.6c1.7,1.3,0.8,3.2-0.9,4c-3.2,1.6-6.6,2.9-10,4.2c-10.6,4.3-21.8,5-33,4.8
				c-6.9-0.1-11.2,2.2-14,8.3c-1,2.2-2.8,4-2.7,7.1c4-1.9,7.9-3.6,11.6-5.6c7.4-3.9,15.1-2.2,22.7-1c1.2,0.2,2.4,1.7,3.1,2.9
				c1.2,2.1,2.1,4.5,2.9,6.8c0.8,2.1-0.1,3.8-1.7,5.3c-2.5,2.4-5.7,3.5-9,3.3c-3.9-0.2-7.9-0.6-11.6-1.8c-8.2-2.7-15.9-1.8-23.3,2.3
				c-1.2,0.7-2.4,1.8-3,3c-1.7,3.3-3.1,6.8-4.9,11c2.4-0.7,4.2-1,5.9-1.8c4-1.8,8.3-1.8,12.5-1.9c3-0.1,5.4,1,7.5,3
				c4,3.8,3.2,10-1.9,12.1c-4.2,1.8-8.7,3.2-13.4,2.3c-3.8-0.7-7.9,0.4-11.4-2.3c-0.4-0.3-2.5,0.4-2.8,1.1c-1.8,5.2-4,10.4-3.9,16.5
				c3.8-1.6,7.1-3,10.4-4.3c6.2-2.5,12.4-2.9,18.8-0.8c5,1.7,6.3,4.1,6.1,8.3c-0.1,3.6-4.2,6.8-8.5,6.5c-5.9-0.4-11.7-1.4-17.6-1.7
				c-3-0.2-6.1,0.6-9.1,1c-1.5,5.4-3.8,10.1-2.1,15.4c4.6-0.8,9-1.7,13.5-2.3c4.2-0.5,5.1,0.2,6.6,4.2c1.2,3.3,0.2,5.4-3.4,6
				c-2.9,0.5-5.9,0.4-8.8,0.7c-2.4,0.3-4.8,0.9-7.3,1.3c-0.6,6.1-1.2,11.8-1.7,17.5c-0.5,5.5-2.3,10.5-5.9,14.8
				c-2.7-0.4-3.8-1.9-2.4-4.1c3.6-6.2,4.1-13.1,5-19.9c0.7-5.4-0.2-7.2-5.5-8.6c-3.8-1-7.2-2.3-9.4-5.8c-1.2-1.9-2-3.8-0.9-6.2
				c6-3.2,9.8,3.5,15.7,3.6c0-3.9,0.3-7.8,0-11.6c-0.1-2-1.4-3.6-3.5-4.4c-1.1-0.4-2.3-0.7-3.1-1.4c-3.4-3.4-7.3-5.3-12.2-5.4
				c-2.8,0-5.6-4.5-5.4-7.4c0.2-2.2,1.6-3,3.6-3.4c6.1-1.1,11.4,0.6,15.9,4.8c1.8,1.7,3.3,3.6,5.2,5.7c1.9-3.1,2.5-6.4,1.5-9.4
				c-0.8-2.6-0.6-4.7,0.6-7c0.6-1.1,0.8-2.5,1.3-3.7c0.8-1.9,0.1-3.2-1.3-4.3c-1.6-1.2-3-2.5-4.6-3.7c-2.7-1.9-5.5-3.5-9.1-3
				c-1.8,0.3-3.7,0.1-5.4-0.3c-1.8-0.5-3.8-1.2-5.2-2.5c-3.7-3.3-2.8-8.3,1.9-9.7c2.7-0.8,5.8-0.8,8.7-0.6c2.3,0.1,4.5,0.8,6.7,1.5
				c4.9,1.6,9.8,3.2,12.2,8.4c0.2,0.4,0.7,0.6,1.1,0.9c0.1,0.1,0.3,0.1,0.8,0.1c1.6-1.9,2.8-3.7,1.4-6.7c-0.9-1.9-0.8-4.6-0.3-6.7
				c0.7-2.7-0.4-4.4-2-6.1c-2-2.1-3.9-4.5-6.2-6.3c-3.4-2.7-4.1-6.6-4.9-10.4c-0.8-3.5,2.2-8.9,5.4-10.3c2.6-1.2,8.8,0.7,10.5,3.7
				c2.2,4,3.9,8.3,5.6,12.5C532.7-550.9,533-549,533.5-547.2z"/>
			<path fill="#A9D4CC" d="M843-523c-0.4,0.6-0.6,0.8-0.6,0.9c1.7,6.5,3.6,12.9,5.2,19.4c1.3,5,4.9,7,9.5,8c3.5,0.8,7,1.8,10.6,2.4
				c3.7,0.6,6.6,2.8,9.7,4.7c0.9,0.6,1.7,1.5,2.3,2.5c2,3.1,1.4,5.6-1.9,7.3c-3.4,1.7-6.9,2.2-10.4,0.3c-3.9-2.1-7.8-4.1-11.8-6.1
				c-1.3-0.6-2.7-1.1-4.7-1.8c-0.2,3.6-0.4,6.8-0.5,10c-0.1,5.4-0.1,10.8-0.2,16.2c0,0.8-0.2,1.6-0.5,2.4c-2.8,7.5-5.6,15-8.6,22.4
				c-1.3,3.1-3.4,5.5-7.1,6.2c-1.6,0.3-3.1,1.5-4.5,0c-1.7-1.8-3.3-4-2.3-6.6c1.8-4.6,3.6-9.1,5.8-13.6c2-4.1,4.5-8,6.7-12
				c3.9-6.8,4.6-14.3,4.5-21.9c0-0.6-0.4-1.2-0.9-2.6c-1.7,3-3.2,5.4-4.6,7.9c-4.2,7.4-9.5,13.8-16.2,19c-1.9,1.5-4.8,2-7.3,2.3
				c-2.1,0.2-2.8-1.7-2.2-3.5c1.2-3.4,2.6-6.7,4-10c4.5-10.5,11.9-19,19.9-26.7c4.9-4.8,6.4-9.5,4-15.8c-0.8-2.3-0.8-4.8-3.1-6.9
				c-1.5,4.2-3,8.1-4.2,12.2c-2.5,8-9.1,12.2-15.3,16.7c-1,0.7-2.9,0.5-4.3,0.2c-2.4-0.6-4.6-1.7-6.9-2.7c-2.1-0.9-2.6-2.8-2.6-4.9
				c0.1-3.5,1.6-6.5,4.1-8.7c2.9-2.6,6-5.2,9.5-7c7.7-3.9,12.5-9.9,14.8-18.1c0.4-1.3,0.4-3,0-4.3c-1.2-3.6-2.7-7-4.3-11.2
				c-1.2,2.2-2.3,3.7-2.9,5.4c-1.5,4.1-4.6,7.1-7.5,10.2c-2.1,2.2-4.5,3.1-7.5,3.2c-5.5,0.1-9.3-4.8-7.2-10
				c1.7-4.2,3.8-8.4,7.9-11.1c3.2-2.2,5.3-5.9,9.7-6.4c0.5-0.1,1.5-2.1,1.2-2.7c-2.4-5-4.5-10.1-8.9-14.4c-1.6,3.8-2.9,7.1-4.3,10.4
				c-2.6,6.1-6.7,10.8-12.7,13.8c-4.7,2.4-7.3,1.6-10.2-1.5c-2.5-2.7-1.8-7.8,1.4-10.6c4.4-3.9,9.3-7.3,13.7-11.2
				c2.2-2,3.8-4.7,5.7-7.1c-2.8-4.9-4.4-9.8-9.4-12.4c-2.7,3.8-5.2,7.6-7.9,11.1c-2.6,3.4-3.8,3.5-7.6,1.7c-3.2-1.5-4-3.7-1.8-6.6
				c1.7-2.4,3.9-4.4,5.7-6.7c1.5-1.9,2.8-4,4.2-6.1c-3.9-4.7-7.5-9.2-11.1-13.6c-3.6-4.3-5.8-9.1-6.3-14.7c2.2-1.6,4-1.3,4.7,1.2
				c1.8,6.9,6.4,12.1,10.5,17.6c3.3,4.4,5.2,5,10,2.1c3.4-2,6.7-3.4,10.7-2.6c2.2,0.5,4.1,1.3,5,3.7c-2,6.5-9.4,4.5-13.6,8.5
				c2.7,2.8,5.3,5.7,8.2,8.2c1.5,1.3,3.6,1.6,5.6,0.6c1-0.5,2.1-1.2,3.2-1.2c4.8,0,8.9-1.4,12.4-4.9c2-1.9,7.2-0.8,9,1.4
				c1.4,1.7,1,3.3-0.1,4.9c-3.6,5.1-8.5,7.7-14.6,7.9c-2.4,0.1-4.9-0.2-7.7-0.4c0.8,3.6,2.7,6.3,5.6,7.7c2.5,1.3,3.8,2.9,4.5,5.4
				c0.4,1.2,1.2,2.3,1.7,3.6c0.7,1.9,2.1,2.3,4,2.1c2-0.2,3.9-0.4,5.9-0.7c3.3-0.5,6.4-1.4,8.6-4.3c1.1-1.4,2.5-2.7,4-3.6
				c1.7-1,3.6-1.8,5.4-2c4.9-0.3,7.9,3.9,5.5,8.2c-1.4,2.5-3.6,4.6-5.7,6.6c-1.7,1.5-3.8,2.6-5.8,3.7c-4.6,2.3-9.2,4.7-14.6,2.7
				c-0.4-0.2-1,0-1.4,0.1c-0.1,0-0.3,0.2-0.7,0.5c0.2,2.5,0.7,4.6,3.8,5.8c2,0.8,3.9,2.7,5,4.5c1.5,2.4,3.4,2.8,5.8,2.9
				c3,0.1,5.9,0.4,8.9,0.1c4.4-0.5,7.6,1.8,10.8,3.9c3,1.9,4.7,7.9,3.5,11.1c-1,2.7-6.7,5.8-10.1,4.8c-4.4-1.3-8.6-3.1-12.8-4.9
				C846.1-521,844.6-522.1,843-523z"/>
			<path fill="#A9D4CC" d="M944.1-580.3c0.7-0.1,1-0.1,1-0.2c3.3-5.8,6.6-11.7,10-17.4c2.6-4.4,1.5-8.5-1.1-12.4
				c-2-3-3.7-6.2-5.8-9.1c-2.2-3.1-2.7-6.7-3.5-10.2c-0.2-1.1-0.1-2.3,0.1-3.4c0.8-3.6,3-4.9,6.5-3.8c3.6,1.2,6.4,3.3,7.6,7.1
				c1.3,4.2,2.6,8.5,4,12.7c0.5,1.4,1.1,2.6,2,4.6c2.7-2.4,5.1-4.5,7.4-6.7c3.9-3.7,7.7-7.6,11.6-11.4c0.6-0.6,1.3-1,2.1-1.3
				c7.3-3.3,14.6-6.6,22-9.8c3.1-1.3,6.3-1.5,9.4,0.7c1.3,0.9,3.3,1.1,3.2,3.2c-0.1,2.5-0.5,5.1-3.1,6.3c-4.5,2-9,3.9-13.7,5.5
				c-4.3,1.5-8.8,2.5-13.2,3.7c-7.5,2.1-13.3,6.9-18.6,12.3c-0.4,0.4-0.6,1.1-1.2,2.5c3.4-0.9,6.1-1.6,8.8-2.3
				c8.2-2.2,16.5-3,24.9-2c2.4,0.3,4.8,2,6.8,3.6c1.7,1.3,0.8,3.2-0.9,4c-3.2,1.6-6.6,2.9-10,4.2c-10.6,4.3-21.8,5-33,4.8
				c-6.9-0.1-11.2,2.2-14,8.3c-1,2.2-2.8,4-2.7,7.1c4-1.9,7.9-3.6,11.6-5.6c7.4-3.9,15.1-2.2,22.7-1c1.2,0.2,2.4,1.7,3.1,2.9
				c1.2,2.1,2.1,4.5,2.9,6.8c0.8,2.1-0.1,3.8-1.7,5.3c-2.5,2.4-5.7,3.5-9,3.3c-3.9-0.2-7.9-0.6-11.6-1.8c-8.2-2.7-15.9-1.8-23.3,2.3
				c-1.2,0.7-2.4,1.8-3,3c-1.7,3.3-3.1,6.8-4.9,11c2.4-0.7,4.2-1,5.9-1.8c4-1.8,8.3-1.8,12.5-1.9c3-0.1,5.4,1,7.5,3
				c4,3.8,3.2,10-1.9,12.1c-4.2,1.8-8.7,3.2-13.4,2.3c-3.8-0.7-7.9,0.4-11.4-2.3c-0.4-0.3-2.5,0.4-2.8,1.1c-1.8,5.2-4,10.4-3.9,16.5
				c3.8-1.6,7.1-3,10.4-4.3c6.2-2.5,12.4-2.9,18.8-0.8c5,1.7,6.3,4.1,6.1,8.3c-0.1,3.6-4.2,6.8-8.5,6.5c-5.9-0.4-11.7-1.4-17.6-1.7
				c-3-0.2-6.1,0.6-9.1,1c-1.5,5.4-3.8,10.1-2.1,15.4c4.6-0.8,9-1.7,13.5-2.3c4.2-0.5,5.1,0.2,6.6,4.2c1.2,3.3,0.2,5.4-3.4,6
				c-2.9,0.5-5.9,0.4-8.8,0.7c-2.4,0.3-4.8,0.9-7.3,1.3c-0.6,6.1-1.2,11.8-1.7,17.5c-0.5,5.5-2.3,10.5-5.9,14.8
				c-2.7-0.4-3.8-1.9-2.4-4.1c3.6-6.2,4.1-13.1,5-19.9c0.7-5.4-0.2-7.2-5.5-8.6c-3.8-1-7.2-2.3-9.4-5.8c-1.2-1.9-2-3.8-0.9-6.2
				c6-3.2,9.8,3.5,15.7,3.6c0-3.9,0.3-7.8,0-11.6c-0.1-2-1.4-3.6-3.5-4.4c-1.1-0.4-2.3-0.7-3.1-1.4c-3.4-3.4-7.3-5.3-12.2-5.4
				c-2.8,0-5.6-4.5-5.4-7.4c0.2-2.2,1.6-3,3.6-3.4c6.1-1.1,11.4,0.6,15.9,4.8c1.8,1.7,3.3,3.6,5.2,5.7c1.9-3.1,2.5-6.4,1.5-9.4
				c-0.8-2.6-0.6-4.7,0.6-7c0.6-1.1,0.8-2.5,1.3-3.7c0.8-1.9,0.1-3.2-1.3-4.3c-1.6-1.2-3-2.5-4.6-3.7c-2.7-1.9-5.5-3.5-9.1-3
				c-1.8,0.3-3.7,0.1-5.4-0.3c-1.8-0.5-3.8-1.2-5.2-2.5c-3.7-3.3-2.8-8.3,1.9-9.7c2.7-0.8,5.8-0.8,8.7-0.6c2.3,0.1,4.5,0.8,6.7,1.5
				c4.9,1.6,9.8,3.2,12.2,8.4c0.2,0.4,0.7,0.6,1.1,0.9c0.1,0.1,0.3,0.1,0.8,0.1c1.6-1.9,2.8-3.7,1.4-6.7c-0.9-1.9-0.8-4.6-0.3-6.7
				c0.7-2.7-0.4-4.4-2-6.1c-2-2.1-3.9-4.5-6.2-6.3c-3.4-2.7-4.1-6.6-4.9-10.4c-0.8-3.5,2.2-8.9,5.4-10.3c2.6-1.2,8.8,0.7,10.5,3.7
				c2.2,4,3.9,8.3,5.6,12.5C943.3-584,943.7-582.1,944.1-580.3z"/>
		</g>
		<g>
			<polygon fill="#C9C9C9" points="500.1,-593.1 0,-593.1 0,-1018.1 500.1,-1018.1 			"/>
			<path fill="#A9D4CC" d="M444.1-580.3c0.7-0.1,1-0.1,1-0.2c3.3-5.8,6.6-11.7,10-17.4c2.6-4.4,1.5-8.5-1.1-12.4
				c-2-3-3.7-6.2-5.8-9.1c-2.2-3.1-2.7-6.7-3.5-10.2c-0.2-1.1-0.1-2.3,0.1-3.4c0.8-3.6,3-4.9,6.5-3.8c3.6,1.2,6.4,3.3,7.6,7.1
				c1.3,4.2,2.6,8.5,4,12.7c0.5,1.4,1.1,2.6,2,4.6c2.7-2.4,5.1-4.5,7.4-6.7c3.9-3.7,7.7-7.6,11.6-11.4c0.6-0.6,1.3-1,2.1-1.3
				c7.3-3.3,14.6-6.6,22-9.8c3.1-1.3,6.3-1.5,9.4,0.7c1.3,0.9,3.3,1.1,3.2,3.2c-0.1,2.5-0.5,5.1-3.1,6.3c-4.5,2-9,3.9-13.7,5.5
				c-4.3,1.5-8.8,2.5-13.2,3.7c-7.5,2.1-13.3,6.9-18.6,12.3c-0.4,0.4-0.6,1.1-1.2,2.5c3.4-0.9,6.1-1.6,8.8-2.3
				c8.2-2.2,16.5-3,24.9-2c2.4,0.3,4.8,2,6.8,3.6c1.7,1.3,0.8,3.2-0.9,4c-3.2,1.6-6.6,2.9-10,4.2c-10.6,4.3-21.8,5-33,4.8
				c-6.9-0.1-11.2,2.2-14,8.3c-1,2.2-2.8,4-2.7,7.1c4-1.9,7.9-3.6,11.6-5.6c7.4-3.9,15.1-2.2,22.7-1c1.2,0.2,2.4,1.7,3.1,2.9
				c1.2,2.1,2.1,4.5,2.9,6.8c0.8,2.1-0.1,3.8-1.7,5.3c-2.5,2.4-5.7,3.5-9,3.3c-3.9-0.2-7.9-0.6-11.6-1.8c-8.2-2.7-15.9-1.8-23.3,2.3
				c-1.2,0.7-2.4,1.8-3,3c-1.7,3.3-3.1,6.8-4.9,11c2.4-0.7,4.2-1,5.9-1.8c4-1.8,8.3-1.8,12.5-1.9c3-0.1,5.4,1,7.5,3
				c4,3.8,3.2,10-1.9,12.1c-4.2,1.8-8.7,3.2-13.4,2.3c-3.8-0.7-7.9,0.4-11.4-2.3c-0.4-0.3-2.5,0.4-2.8,1.1c-1.8,5.2-4,10.4-3.9,16.5
				c3.8-1.6,7.1-3,10.4-4.3c6.2-2.5,12.4-2.9,18.8-0.8c5,1.7,6.3,4.1,6.1,8.3c-0.1,3.6-4.2,6.8-8.5,6.5c-5.9-0.4-11.7-1.4-17.6-1.7
				c-3-0.2-6.1,0.6-9.1,1c-1.5,5.4-3.8,10.1-2.1,15.4c4.6-0.8,9-1.7,13.5-2.3c4.2-0.5,5.1,0.2,6.6,4.2c1.2,3.3,0.2,5.4-3.4,6
				c-2.9,0.5-5.9,0.4-8.8,0.7c-2.4,0.3-4.8,0.9-7.3,1.3c-0.6,6.1-1.2,11.8-1.7,17.5c-0.5,5.5-2.3,10.5-5.9,14.8
				c-2.7-0.4-3.8-1.9-2.4-4.1c3.6-6.2,4.1-13.1,5-19.9c0.7-5.4-0.2-7.2-5.5-8.6c-3.8-1-7.2-2.3-9.4-5.8c-1.2-1.9-2-3.8-0.9-6.2
				c6-3.2,9.8,3.5,15.7,3.6c0-3.9,0.3-7.8,0-11.6c-0.1-2-1.4-3.6-3.5-4.4c-1.1-0.4-2.3-0.7-3.1-1.4c-3.4-3.4-7.3-5.3-12.2-5.4
				c-2.8,0-5.6-4.5-5.4-7.4c0.2-2.2,1.6-3,3.6-3.4c6.1-1.1,11.4,0.6,15.9,4.8c1.8,1.7,3.3,3.6,5.2,5.7c1.9-3.1,2.5-6.4,1.5-9.4
				c-0.8-2.6-0.6-4.7,0.6-7c0.6-1.1,0.8-2.5,1.3-3.7c0.8-1.9,0.1-3.2-1.3-4.3c-1.6-1.2-3-2.5-4.6-3.7c-2.7-1.9-5.5-3.5-9.1-3
				c-1.8,0.3-3.7,0.1-5.4-0.3c-1.8-0.5-3.8-1.2-5.2-2.5c-3.7-3.3-2.8-8.3,1.9-9.7c2.7-0.8,5.8-0.8,8.7-0.6c2.3,0.1,4.5,0.8,6.7,1.5
				c4.9,1.6,9.8,3.2,12.2,8.4c0.2,0.4,0.7,0.6,1.1,0.9c0.1,0.1,0.3,0.1,0.8,0.1c1.6-1.9,2.8-3.7,1.4-6.7c-0.9-1.9-0.8-4.6-0.3-6.7
				c0.7-2.7-0.4-4.4-2-6.1c-2-2.1-3.9-4.5-6.2-6.3c-3.4-2.7-4.1-6.6-4.9-10.4c-0.8-3.5,2.2-8.9,5.4-10.3c2.6-1.2,8.8,0.7,10.5,3.7
				c2.2,4,3.9,8.3,5.6,12.5C443.3-584,443.6-582.1,444.1-580.3z"/>
		</g>
	</g>
</pattern>
<rect fill="url(#Leaf-edits_4)" width="501" height="425"/>
</svg>
