<?xml version="1.0" encoding="utf-8"?>
<!-- Generator: Adobe Illustrator 18.1.1, SVG Export Plug-In . SVG Version: 6.00 Build 0)  -->
<svg version="1.1" id="Layer_1" xmlns="http://www.w3.org/2000/svg" xmlns:xlink="http://www.w3.org/1999/xlink" x="0px" y="0px"
	 viewBox="0 0 123.2 68.1" enable-background="new 0 0 123.2 68.1" xml:space="preserve">
<g>
	<path stroke="#1C1B1A" stroke-miterlimit="10" d="M32.8,12.8c-2-0.5-2.8-1.5-3.1-2.9c-0.4-1.7-1.4-2.5-3-2.9c-1.8-0.5-3,0.3-4,1.5
		c-0.1,0.1-0.2,0.1-0.2,0.2c-0.8,2.4-1.5,4.8-2.3,7.2c-0.1,0.5-0.1,1-0.2,1.4c-0.7,2.6-0.9,5.1-0.9,7.8c0,2-0.6,4-1,6
		c-0.1,0.8-0.3,1.6-0.4,2.4c-0.2,1.1,0.5,1.5,1.5,1.5c2.6,0,5.2,0.1,7.6,1.1c0.6,0.3,1.3,0.3,1.8,0.5c0.4,0.2,0.7,0.7,1.1,1.1
		c-0.4,0.3-0.7,0.9-1.1,0.9c-0.9,0.1-1.8-0.1-2.7-0.2c-1.5-0.1-3.1-0.4-4.6-0.4c-1.1,0-2.2,0.4-3.2,0.8c-0.4,0.2-0.8,1-0.9,1.5
		c-0.2,3-0.4,6-0.4,8.9c0.1,3,0.6,6,0.8,8.9c0.1,0.9-0.2,1.9-0.6,2.7c-0.6,1-2.6,0.4-3.1-1.1c-0.3-0.9-0.4-2-0.4-3
		C13.1,54.5,13,52,13,49.4c0-2.8,0-5.6,0.2-8.3c0.1-1.5-0.3-2.1-1.9-2c-1.3,0.1-3.2-2.1-2.9-3.3c0.3-0.9,0.7-1.6,2-1.1
		c3.3,1.3,3.6,1.1,4-2.3c0.6-4.3,0.8-8.6,1.5-12.9c0.5-3.5,1.1-7.1,3.4-10.1C20,8.2,20.7,7,21.7,6.1c2-2,3.9-2.4,6.2-0.9
		c1.1,0.7,2.5,1.3,2.8,3c0.2,0.9,1.3,1.5,1.8,2.3C32.8,11.1,32.6,11.9,32.8,12.8z"/>
	<path stroke="#1C1B1A" stroke-miterlimit="10" d="M64.3,35.9c-0.8,1.9-1.5,3.9-2.4,5.7c-0.9,1.7-2,3.3-3,5c-1,1.6-2.3,2.9-3.6,4.3
		c-1.3,1.4-2.5,2.5-4.1,3.2c-1.2,0.6-4.1-0.4-4.8-1.6c-0.1-0.1,0-0.4-0.1-0.4c-1.5-0.9-1.5-2.8-2.6-3.9c-1.3-1.4-0.7-3.1-0.9-4.7
		c-0.4-3-0.6-6-1-8.9c-0.1-0.6-0.2-1.3-1.3-1.2c-1.2,0.1-1.7-0.9-1.1-1.8c0.7-1.1,1.3-2.4,2.9-2.2c1.3,0.2,2.9,2.6,3.1,4.3
		c0.4,4.1,0.6,8.3,1.3,12.3c0.3,1.6,1.4,3.1,2.4,4.5c0.9,1.2,2,0.3,2.7-0.4c2.1-2.4,4.3-4.7,6.2-7.3c1.5-2,2.5-4.4,3.6-6.7
		c1-2,1.8-4,2.8-6c0.2-0.5,0.5-0.9,0.9-1.3c0.8-0.7,1.7-0.8,1.9,0.4c0.4,1.8,0.6,3.6,0.9,5.4c0.4,2.7,0.6,5.5,1,8.2
		c0.3,2.1,1.6,3.5,3.5,4.5c1.1,0.5,1.3,1.3,1,2.5c-0.3,1.4-1.3,0.8-2,0.9c-2.4,0.2-3.2-1.8-3.9-3.3c-1.1-2.4-1.8-5-2.5-7.6
		c-0.3-1.1-0.2-2.4-0.3-3.6C64.7,35.9,64.5,35.9,64.3,35.9z"/>
	<path stroke="#1C1B1A" stroke-miterlimit="10" d="M91.8,46.5c1.5-2.4,2.7-4.5,4-6.5c0.4-0.6,1.1-0.9,1.4-1.4
		c2.1-3.6,5.5-5.5,9.3-6.8c0.7-0.2,1.6-0.2,2.2,0.1c1.9,1.1,3.6,2.3,4,4.8c0.2,1,0.9,1.9,1.2,2.8c0.3,0.9,0.4,1.9,0.5,2.9
		c0.2,2.4,0,4.8,0.4,7.1c0.2,1.5,1.4,2.8,1.8,4.2c0.4,1.8,0.7,3.6,0.6,5.4c0,0.6-1.4,1.5-2.3,1.5c-0.6,0-1.5-1-1.8-1.8
		c-0.5-1.7-0.7-3.5-1-5.3c-0.3-1.8-0.8-3.6-1-5.5c-0.3-2.8-0.4-5.7-0.7-8.5c-0.1-1.1-0.5-2.1-0.9-3.2c-0.5-1.5-2.3-2.3-3.7-1.7
		c-1.5,0.7-3.2,1.3-4.5,2.4c-3,2.6-5.2,5.8-6.6,9.6c-0.8,2.2-1.6,4.4-2.3,6.6c-0.3,0.9-0.1,2-0.5,2.8c-0.3,0.6-1.4,1.3-1.9,1.1
		c-0.8-0.2-1.8-1.1-1.9-1.7c-0.2-2.2,0-4.4,0-6.6c0-0.7-0.1-1.4-0.1-2.1c0-3.2,0-6.4-0.1-9.6c0-0.7-0.2-1.5-0.3-2.2
		c-0.1-0.5-0.3-1-0.1-1.4c0.2-0.5,0.6-1,0.9-1.5c0.4,0.4,1,0.8,1.2,1.3c1.6,3.6,1.3,7.4,1.3,11.1C91.2,45.1,91.5,45.6,91.8,46.5z"/>
</g>
</svg>
