<?xml version="1.0" encoding="utf-8"?>
<!-- Generator: Adobe Illustrator 18.1.1, SVG Export Plug-In . SVG Version: 6.00 Build 0)  -->
<svg version="1.1" id="Layer_1" xmlns="http://www.w3.org/2000/svg" xmlns:xlink="http://www.w3.org/1999/xlink" x="0px" y="0px"
	 viewBox="0 0 154.5 70" enable-background="new 0 0 154.5 70" xml:space="preserve">
<g>
	<path stroke="#000000" stroke-miterlimit="10" d="M42.7,20.4c-0.6-0.4-1.5-0.7-1.8-1.2c-0.6-1.1,0.3-2,1.1-2.7
		c0.5-0.4,0.9-0.9,1.5-1.2c0.4-0.3,1-0.6,1.3-0.5c0.4,0.2,0.7,0.8,0.8,1.3c0.1,1.2,0.1,2.4,0,3.6C45,24.8,44.8,30,45.1,35.3
		c0.1,1.6-0.6,3.3-0.7,5c-0.1,3.5-2.6,5.5-5,7.3c-1,0.7-3,0.4-4.4-0.1c-3.8-1.3-6.2-4.1-7.8-7.8c-1.1-2.8-2.3-5.5-3.4-8.2
		c-0.5-1.1-1.1-2.4-2.6-2c-1.5,0.3-2,1.6-2.2,3c-0.3,1.8-0.6,3.7-0.8,5.5c-0.5,3.4-1,6.9-1.5,10.3c-0.1,0.5-0.2,1-0.4,1.4
		c-1.1,2-1.2,4.5-3.5,5.8c-1.4,0.8-2.4,0.5-3.3-0.7c-1.6-2.2-1.8-4.8-2-7.4C7.4,43.6,7.1,40,6.9,36.4c-0.2-3.9-0.5-7.8-0.6-11.7
		c-0.1-1.9,0.6-3.6,2-3.8c0.4,0.8,0.8,1.4,1,2c0.2,1.1,0.3,2.1,0.4,3.2c0.2,2.4,0.4,4.7,0.6,7.1c0.2,2.8,0.3,5.7,0.3,8.5
		c0,1.2-0.4,2.5-0.4,3.7c0,1.1,0.4,2.2,0.7,3.3c0.1,0.4,0.4,0.9,0.7,1.6c0.4-0.7,1-1.2,1.1-1.7c0.5-2.2,0.8-4.4,1.3-6.6
		c0.3-1.2,0.7-2.4,1-3.7c0.5-2.3,1-4.7,1.5-7c0.3-1.6,3.3-4.8,4.8-4.9c1.6-0.1,5,1.7,5.6,4.2c0.7,3.1,1.8,6.2,3.5,8.9
		c1.3,2,2.6,4.4,5.2,5c3.4,0.8,4.7-0.1,5.6-3.2c0.4-1.2,0.8-2.4,0.9-3.6c0.4-5.9,0.7-11.7,1-17.6C43,20.3,42.9,20.3,42.7,20.4z"/>
	<path stroke="#000000" stroke-miterlimit="10" d="M124.7,36.6c-0.1,1.4-0.3,2.3-0.3,3.3c0,0.4,0.2,1.1,0.3,1.1
		c0.6,0,1.2-0.1,2.1-0.2c0,0.6,0.1,1.4,0,2.2c-0.3,1.8-0.8,3.5-1.1,5.2c-0.2,0.9-0.1,1.9-0.3,2.8c-0.1,0.5-0.5,1.4-0.8,1.4
		c-0.7,0-1.6-0.2-2.1-0.6c-0.5-0.4-0.8-1.2-0.9-1.8c-0.2-2.5-0.4-5.1-0.4-7.6c0-3.5,0.3-7.1,0.5-10.6c0.2-3.5,0.7-7,0.6-10.4
		c-0.1-3.5,0.7-7-0.8-10.5c-0.4-0.8-0.1-2,0-3c0-0.2,0.7-0.6,0.8-0.5c0.6,0.4,1.4,0.8,1.7,1.4c1.5,2.5,1.4,5.4,1.4,8.1
		c0,3.1-0.1,6.2-0.1,9.3c0,0.5,0.1,1.4,0.3,1.4c0.6,0.1,1.3,0,1.7-0.3c3.2-2.4,6.4-4.8,9.5-7.4c1.2-1,1.9-2.5,3-3.6
		c0.3-0.4,1.2-0.7,1.6-0.5c0.7,0.3,0.5,1,0.5,1.8c-0.2,2.5-2.3,3.3-3.5,4.9c-2.1,2.8-5.2,4.4-8.2,6.1c-1.3,0.7-2.4,1.8-3.5,2.8
		c-0.3,0.2-0.2,1.2,0,1.5c0.4,0.6,1.1,1.1,1.8,1.2c3.2,0.6,5.6,2.8,8.4,4.3c2,1.1,4,2.4,6,3.5c1.8,0.9,3.7,1.4,5.5,2.4
		c0.8,0.5,1.6,1.5,1.8,2.3c0.1,0.6-0.6,1.9-1.2,2.1c-0.8,0.2-1.9-0.2-2.6-0.6c-1.9-1-3.6-2.4-5.5-3.4c-3.1-1.7-6.1-3.5-8.9-5.7
		c-1.6-1.3-3.8-1.8-5.8-2.6C125.6,36.2,125,36.5,124.7,36.6z"/>
	<path stroke="#000000" stroke-miterlimit="10" d="M57.4,44.2c0-1.7-0.1-3.5,0-5.2c0.4-4.6,0.5-9.2,2-13.7c1.2-3.6,3.6-6.1,6.1-8.4
		c2.6-2.4,7-1.8,10,0.7c2.6,2.2,4.1,5,4.5,8.1c0.3,2.2,0.8,4.8-0.7,7c-0.7,1-0.8,2.3-1.4,3.3c-1.4,2.3-2.9,4.5-4.3,6.7
		c-0.2,0.3-0.4,0.6-0.5,0.9c-0.3,2.1-1.7,3.4-3.1,4.8c-1,1-1.9,2.1-2.9,3.2c-1,1.2-4.7,1-6.3-0.1C58.2,49.7,57.7,47.1,57.4,44.2z
		 M60,42.7c-0.1,0-0.2,0.1-0.3,0.1c0.4,1.5,0.8,3,1.1,4.5c0.4,2,2.5,3.1,4.4,2.4c1.5-0.6,2-1.9,2.9-3c1.7-2.3,3.8-4.3,4.9-7.1
		c0.8-2,2-3.9,3-5.9c1-1.9,1.8-3.8,1.5-6c-0.2-1.4-0.6-2.7-0.8-4c-0.4-2.8-2.5-4.4-4.4-5.8c-1.5-1-5.2,0.2-6.6,1.4
		c-1.2,1.1-2,2.4-2.6,3.8c-0.4,0.8-1.4,1.4-1.5,2.2c-0.5,3.5-0.8,6.9-1.1,10.4C60.1,38.1,60.1,40.4,60,42.7z"/>
	<path stroke="#000000" stroke-miterlimit="10" d="M89.6,25.8c0.9,1.6,1.7,3.1,2.6,4.8c0.1-0.5,0.1-1.1,0.3-1.6
		c0.9-1.9,1.8-3.9,2.9-5.7c1.1-1.7,4.6-2.5,6.4-0.4c0.4,0.5,1,0.9,1.3,1.4c0.3,0.5,0.3,1.2,0.5,1.8c-0.7,0-1.4,0.1-2.1,0.1
		c-0.2,0-0.5-0.4-0.6-0.7c-0.4-0.8-0.8-1.7-1.8-1.3c-0.8,0.3-1.5,0.9-2,1.6c-2.3,3.1-2.2,6.8-2.5,10.4c-0.2,2.3-0.1,4.6-0.3,6.9
		c-0.2,2.2-0.6,4.4-0.8,6.6c-0.1,0.8,0.1,1.7,0.1,2.5c0.1,1.4-1,1.9-1.9,1.7c-0.6-0.1-1.5-1.1-1.5-1.8c-0.2-2.4-0.1-4.9-0.2-7.4
		c-0.1-3.5-0.3-6.9-0.5-10.4c-0.1-2-0.3-3.9-0.4-5.9c0-0.8,0-1.7,0-2.5C89.3,25.9,89.4,25.8,89.6,25.8z"/>
	<path fill="#FFFFFF" stroke="#000000" stroke-miterlimit="10" d="M60,42.7c0.1-2.3,0.1-4.6,0.3-6.9c0.3-3.5,0.6-7,1.1-10.4
		c0.1-0.8,1.2-1.4,1.5-2.2c0.7-1.4,1.4-2.8,2.6-3.8c1.4-1.2,5.2-2.4,6.6-1.4c2,1.4,4.1,3,4.4,5.8c0.2,1.4,0.6,2.7,0.8,4
		c0.4,2.2-0.5,4.1-1.5,6c-1.1,1.9-2.2,3.9-3,5.9c-1.1,2.7-3.2,4.8-4.9,7.1c-0.8,1.1-1.3,2.5-2.9,3c-1.9,0.7-4.1-0.4-4.4-2.4
		c-0.3-1.5-0.8-3-1.1-4.5C59.8,42.8,59.9,42.8,60,42.7z"/>
</g>
</svg>
